<svg width="218" height="218" viewBox="0 0 218 218" fill="none" xmlns="http://www.w3.org/2000/svg">
<path opacity="0.5" fill-rule="evenodd" clip-rule="evenodd" d="M216.558 107.718L203.747 91.2179L203.76 91.2116L183.15 50.2225C181.983 47.9029 179.608 46.4394 177.011 46.4394H147.7V39.5696C147.7 35.775 144.625 32.7 140.831 32.7H26.3347C22.5402 32.7 19.4652 35.7754 19.4652 39.5696C19.4652 43.3637 22.5406 46.4391 26.3347 46.4391H133.961V94.5273C133.961 98.3219 137.036 101.397 140.83 101.397H194.257L204.261 114.284V149.714H191.312C188.335 137.76 177.508 128.876 164.645 128.876C151.781 128.876 140.954 137.76 137.977 149.715H97.426C94.4484 137.76 83.6214 128.876 70.7581 128.876C57.8947 128.876 47.0677 137.76 44.0901 149.715H26.3347C22.5402 149.715 19.4652 152.79 19.4652 156.584C19.4652 160.379 22.5406 163.454 26.3347 163.454H44.2084C47.3453 175.177 58.0594 183.834 70.7581 183.834C83.4565 183.834 94.1705 175.177 97.3076 163.454H138.095C141.232 175.177 151.946 183.834 164.645 183.834C177.345 183.834 188.058 175.176 191.195 163.453H211.131C214.925 163.453 218 160.378 218.001 156.584V111.931C218.001 110.406 217.492 108.922 216.558 107.718ZM172.775 60.179L186.59 87.6578H147.7V60.179H172.775ZM70.7581 170.095C63.1809 170.095 57.0185 163.933 57.0185 156.355C57.0185 148.778 63.1809 142.616 70.7581 142.616C78.3331 142.616 84.4976 148.778 84.4976 156.355C84.4976 163.933 78.3353 170.095 70.7581 170.095ZM164.645 170.095C157.067 170.095 150.905 163.933 150.905 156.355C150.905 148.778 157.067 142.616 164.645 142.616C172.222 142.616 178.384 148.778 178.384 156.355C178.384 163.933 172.222 170.095 164.645 170.095ZM18.0906 114.908H49.6917C53.4858 114.908 56.5612 117.983 56.5608 121.778C56.5608 125.572 53.4858 128.647 49.6912 128.647H18.0906C14.2964 128.647 11.221 125.572 11.221 121.778C11.221 117.983 14.296 114.908 18.0906 114.908ZM65.4916 87.8868H6.86956C3.07542 87.8868 0 90.9622 0 94.7568C0 98.5514 3.07542 101.626 6.86956 101.626H65.4916C69.2862 101.626 72.3612 98.5509 72.3612 94.7568C72.3612 90.9627 69.2862 87.8868 65.4916 87.8868ZM18.0906 60.8657H76.7126C80.5072 60.8657 83.5826 63.9411 83.5822 67.7352C83.5822 71.5294 80.5072 74.6048 76.7126 74.6048H18.0906C14.2964 74.6048 11.221 71.5298 11.221 67.7352C11.221 63.9411 14.296 60.8657 18.0906 60.8657Z" fill="#FF7600" fill-opacity="0.5"/>
</svg>
