<svg width="146" height="146" viewBox="0 0 146 146" fill="none" xmlns="http://www.w3.org/2000/svg">
<g clip-path="url(#clip0)">
<path d="M102.203 24.3315H107.069V53.5296H102.203V24.3315Z" fill="#FF6F00" fill-opacity="0.5"/>
<path d="M102.203 14.5991H107.069V19.4655H102.203V14.5991Z" fill="#FF6F00" fill-opacity="0.5"/>
<path d="M146.002 80.2946V17.0322C146.002 13.0011 142.734 9.73268 138.702 9.73268H121.67V7.29951C121.67 3.26839 118.402 0 114.371 0H65.7073C61.6762 0 58.4078 3.26839 58.4078 7.29951V9.73268H7.31123C3.2801 9.73268 0.0117188 13.0011 0.0117188 17.0322V80.2946C0.0117188 84.3258 3.2801 87.5942 7.31123 87.5942H58.4078V90.0273C58.4078 94.0585 61.6762 97.3268 65.7073 97.3268H94.9054V111.926C94.9042 112.349 95.0159 112.765 95.2262 113.131L103.468 127.576L101.339 128.807C100.174 129.478 99.7741 130.967 100.445 132.131L107.745 144.783C108.07 145.342 108.601 145.749 109.225 145.918C109.431 145.971 109.642 145.999 109.855 146C110.281 145.999 110.701 145.887 111.071 145.674L144.785 126.209C145.95 125.536 146.348 124.049 145.676 122.885L138.377 110.233C137.704 109.069 136.217 108.671 135.053 109.342L132.951 110.558L132.16 109.189L134.37 94.6335C134.453 94.087 134.348 93.5286 134.073 93.0498L130.916 87.5942H138.702C142.734 87.5942 146.002 84.3258 146.002 80.2946ZM135.379 114.772L140.246 123.201L110.746 140.233L105.88 131.805L135.379 114.772ZM138.702 82.7278H121.814C122.963 72.571 130.979 64.5551 141.136 63.4062V80.2946C141.136 81.6384 140.046 82.7278 138.702 82.7278ZM121.67 69.8325V27.5074C126.181 33.9527 133.302 38.086 141.136 38.8072V58.5149C133.298 59.2396 126.178 63.3789 121.67 69.8325ZM141.136 17.0322V33.9206C130.979 32.7718 122.963 24.7559 121.814 14.599H138.702C140.046 14.599 141.136 15.6885 141.136 17.0322ZM7.31123 14.599H24.1997C23.0508 24.7559 15.0349 32.7718 4.87806 33.9206V17.0322C4.87806 15.6885 5.96752 14.599 7.31123 14.599ZM4.87806 80.2946V63.4062C15.0349 64.5551 23.0508 72.571 24.1997 82.7278H7.31123C5.96752 82.7278 4.87806 81.6384 4.87806 80.2946ZM29.0862 82.7278C27.897 69.8824 17.7235 59.7089 4.87806 58.5197V38.8119C17.7247 37.6227 27.8993 27.4456 29.0862 14.599H58.4078V26.3027C50.8232 31.2106 46.2432 39.6293 46.2432 48.6634C46.2432 57.6975 50.8232 66.1162 58.4078 71.0241V82.7278H29.0862ZM58.4078 32.4118V64.9151C53.7648 60.7889 51.1083 54.8747 51.1083 48.6634C51.1083 42.4522 53.7648 36.538 58.4078 32.4118ZM63.2742 90.0273V7.29951C63.2742 5.9558 64.3636 4.86634 65.7073 4.86634H70.5737V92.4605H65.7073C64.3636 92.4605 63.2742 91.371 63.2742 90.0273ZM75.44 92.4605V4.86634H85.1727V92.4605H75.44ZM94.9054 77.8615V92.4605H90.0391V4.86634H114.371C115.714 4.86634 116.804 5.9558 116.804 7.29951V90.0273C116.804 91.371 115.714 92.4605 114.371 92.4605V77.8615C114.371 72.4866 110.013 68.1288 104.638 68.1288C99.2632 68.1288 94.9054 72.4866 94.9054 77.8615ZM129.43 94.7404L127.221 109.298C127.138 109.844 127.242 110.404 127.519 110.882L128.736 112.984L107.682 125.15L99.7717 111.278V77.8615C99.7694 76.5724 100.283 75.3344 101.197 74.4256C101.631 73.9895 102.143 73.6391 102.706 73.3919C103.317 73.1318 103.974 72.9975 104.638 72.9951C107.326 72.9951 109.504 75.1741 109.504 77.8615V102.193H114.371V97.3268C118.402 97.3268 121.67 94.0585 121.67 90.0273V87.5942H125.303L129.43 94.7404Z" fill="#FF6F00" fill-opacity="0.5"/>
</g>
<defs>
<clipPath id="clip0">
<rect width="146" height="146" fill="white"/>
</clipPath>
</defs>
</svg>
