<svg width="110" height="100" viewBox="0 0 110 100" fill="none" xmlns="http://www.w3.org/2000/svg">
<path d="M109.9 39.3996C109.741 38.4726 108.933 37.8001 107.995 37.8137H71.8045C70.5774 33.3817 67.8921 29.4962 64.1854 26.7887L63.0425 20.1966H71.976C74.5691 20.3623 76.8053 18.3881 76.9705 15.7868C77.1358 13.1856 75.1677 10.9424 72.5745 10.7766C72.3752 10.764 72.1755 10.764 71.9762 10.7766H61.4999L60.738 6.49654C60.5475 4.16543 59.1189 0 55.0236 0H54.8141C50.6997 0 49.2711 4.18453 49.0997 6.49654L48.3568 10.7766H37.8805C35.2874 10.6109 33.0512 12.5851 32.8859 15.1864C32.7207 17.7876 34.6888 20.0308 37.282 20.1966C37.4812 20.2092 37.681 20.2092 37.8803 20.1966H46.6423L45.4994 26.7887C41.7915 29.4952 39.106 33.381 37.8803 37.8137H2.01319C1.07579 37.8001 0.267688 38.4726 0.108401 39.3996C-0.649466 44.6135 2.6382 49.5605 7.72754 50.8641C9.28947 51.3609 11.7657 52.0487 15.1181 52.9086C15.1181 53.0232 15.1181 53.1379 15.1181 53.2716C15.1112 57.4294 18.4655 60.8057 22.6103 60.8126C25.5632 60.8176 28.2445 59.085 29.4611 56.3861C35.7469 57.8574 41.2518 59.0994 42.928 59.4815C48.94 66.093 59.1565 66.5635 65.7471 60.5327C66.1123 60.1985 66.4618 59.8479 66.7949 59.4815C68.033 59.1949 73.8426 57.8956 80.5284 56.3288C82.2363 60.1173 86.6823 61.7995 90.4588 60.0865C93.1493 58.866 94.8762 56.1764 94.8715 53.2143C94.8715 53.0996 94.8715 52.985 94.8715 52.8512C98.2429 51.9914 100.719 51.3035 102.262 50.8067C107.334 49.5132 110.625 44.5992 109.9 39.3996ZM71.9569 14.5599C72.4462 14.4878 72.901 14.8272 72.9729 15.3177C73.0448 15.8086 72.7064 16.2647 72.2174 16.3369C72.131 16.3495 72.0433 16.3495 71.9569 16.3369H62.5473L62.2425 14.5599H71.9569ZM50.8138 18.6109L51.7852 13.0124L52.8329 6.89803C52.8329 6.89803 53.1186 3.78352 54.8329 3.84084H55.0234C56.7377 3.84084 56.9282 6.87892 56.9282 6.89803C56.9246 6.96157 56.9246 7.02557 56.9282 7.08911L59.9758 24.6107C56.6631 23.4575 53.0598 23.4575 49.7471 24.6107L50.8138 18.6109ZM37.8803 16.3369C37.4227 16.308 37.0608 15.9366 37.0422 15.477L37.0231 15.4579C37.0231 14.9619 37.4239 14.5599 37.9184 14.5599H47.6518L47.3471 16.3369H37.8803ZM22.7384 56.9799C22.7063 56.9799 22.6742 56.9794 22.642 56.9787C20.6022 56.9154 18.9996 55.2053 19.0629 53.1589C19.126 51.1127 20.8308 49.505 22.8708 49.5686C24.8582 49.6302 26.4404 51.2584 26.4516 53.2527C26.4523 55.3104 24.7899 56.9792 22.7384 56.9799ZM30.0897 52.6028C29.7445 48.4806 26.1332 45.4199 22.0239 45.7662C19.6796 45.9637 17.5653 47.258 16.3181 49.259C12.9276 48.3992 10.4514 47.7113 8.92756 47.2336C6.23348 46.6339 4.20559 44.4007 3.86083 41.6543H37.1946C37.0884 42.5165 37.0312 43.3842 37.0231 44.2529C37.0141 47.9258 37.8967 51.546 39.5946 54.8002L30.0897 52.6028ZM54.9281 60.9528H54.8519C47.0804 60.9528 40.7756 53.4627 40.7756 44.2529C40.7756 35.0431 47.0804 27.553 54.8519 27.553C62.6235 27.553 68.9283 35.0431 68.9283 44.2529C68.9283 53.4627 62.6425 60.9528 54.9281 60.9528ZM87.4047 56.9785H87.2333C85.1925 56.9785 83.538 55.3187 83.538 53.2716C83.538 51.2245 85.1925 49.5648 87.2333 49.5648C89.274 49.5648 90.9286 51.2242 90.9286 53.2716C90.9212 55.2497 89.374 56.8772 87.4047 56.9785ZM101.1 47.2336H100.948C99.443 47.7113 96.9477 48.3992 93.5572 49.259C91.371 45.7516 86.764 44.6859 83.2675 46.8792C81.2727 48.1303 79.9825 50.2512 79.7856 52.6028L70.2616 54.8384C71.9531 51.5696 72.8229 47.9358 72.795 44.2529C72.7933 43.3844 72.7424 42.517 72.6426 41.6543H106.167C105.817 44.3983 103.791 46.6289 101.1 47.2336Z" fill="#FF6F00" fill-opacity="0.5"/>
<path d="M62.1677 38.1767H47.2913C46.2394 38.1767 45.3865 39.0322 45.3865 40.0875C45.3865 41.1427 46.2394 41.9982 47.2913 41.9982H62.1677C63.2196 41.9982 64.0725 41.1427 64.0725 40.0875C64.0725 39.0322 63.2196 38.1767 62.1677 38.1767Z" fill="#FF6F00" fill-opacity="0.5"/>
<path d="M34.0832 64.4927C34.0794 64.491 34.0759 64.4893 34.0721 64.4879C33.1147 64.0575 31.9906 64.4846 31.5577 65.4433L17.2147 97.2763C16.778 98.2367 17.2002 99.37 18.1576 99.808C19.115 100.246 20.2447 99.8226 20.6814 98.8622L35.0625 67.0101C35.4852 66.0435 35.0466 64.9166 34.0832 64.4927Z" fill="#FF6F00" fill-opacity="0.5"/>
<path d="M92.6243 97.2954L78.2431 65.4433C77.8064 64.4829 76.6767 64.0594 75.7193 64.4975C74.7619 64.9355 74.3397 66.0688 74.7764 67.0292L89.1575 98.8814C89.5942 99.8418 90.724 100.265 91.6814 99.8272C92.6388 99.3892 93.0609 98.2556 92.6243 97.2954Z" fill="#FF6F00" fill-opacity="0.5"/>
<path d="M54.7391 67.1818C53.6872 67.1818 52.8343 68.0374 52.8343 69.0926V77.0604C52.8329 78.1156 53.6846 78.9723 54.7365 78.9737C55.7884 78.9752 56.6425 78.1208 56.6439 77.0656V69.0926C56.6439 68.0374 55.791 67.1818 54.7391 67.1818Z" fill="#FF6F00" fill-opacity="0.5"/>
<path d="M54.7391 86.6332C53.6872 86.6332 52.8343 87.4888 52.8343 88.544V96.5118C52.8329 97.567 53.6846 98.4237 54.7365 98.4251C55.7884 98.4266 56.6425 97.5722 56.6439 96.517V88.544C56.6439 87.4888 55.791 86.6332 54.7391 86.6332Z" fill="#FF6F00" fill-opacity="0.5"/>
</svg>
