<svg width="120" height="120" viewBox="0 0 120 120" fill="none" xmlns="http://www.w3.org/2000/svg">
<path d="M118 96C114.553 96.0645 111.36 97.8271 109.47 100.71C107.862 102.62 106.698 104 104 104C101.302 104 100.138 102.62 98.5303 100.71C96.6396 97.8271 93.4473 96.0645 90 96C89.6602 96 89.3584 96.042 89.0439 96.0703L99.9404 52.4863C100.206 51.4238 99.5684 50.3457 98.5098 50.0664L90 47.8262V26C90 24.8955 89.1045 24 88 24H82V10C82 8.89551 81.1045 8 80 8H62V2C62 0.895508 61.1045 0 60 0C58.8955 0 58 0.895508 58 2V8H40C38.8955 8 38 8.89551 38 10V24H32C30.8955 24 30 24.8955 30 26V47.4004L21.5176 49.5078C20.4541 49.7715 19.8008 50.8418 20.0518 51.9082L30.9561 96.0742C30.6396 96.0381 30.334 96 30 96C26.5537 96.0654 23.3613 97.8281 21.4697 100.71C19.8604 102.62 18.6963 104 16 104C13.3037 104 12.1396 102.62 10.5303 100.71C8.63867 97.8281 5.44629 96.0654 2 96C0.895508 96 0 96.8955 0 98V110C0 111.104 0.895508 112 2 112C4.69629 112 5.86035 113.38 7.46973 115.29C9.36133 118.172 12.5537 119.935 16 120C19.4463 119.935 22.6387 118.172 24.5303 115.29C26.1396 113.38 27.3037 112 30 112C32.8477 112 34.5996 113.612 36.6504 115.476C38.9697 117.6 41.5996 120 46 120C49.4453 119.937 52.6357 118.172 54.5225 115.288C56.1221 113.378 57.2881 112 59.9805 112C62.832 112 64.5977 113.612 66.6416 115.478C68.9639 117.6 71.5996 120 76 120C79.4463 119.935 82.6387 118.172 84.5303 115.29C86.1396 113.38 87.3037 112 90 112C92.6963 112 93.8623 113.38 95.4697 115.29C97.3154 118.221 100.536 119.999 104 119.999C107.464 119.999 110.685 118.221 112.53 115.29C114.138 113.38 115.302 112 118 112C119.104 112 120 111.104 120 110V98C120 96.8955 119.104 96 118 96ZM94.5322 57.624L62 50.4004V44.5996L95.5801 53.4385L94.5322 57.624ZM42 12H78V24H42V12ZM50 28H70V32H50V28ZM46 28V34C46 35.1045 46.8955 36 48 36H72C73.1045 36 74 35.1045 74 34V28H86V46.7744L60.5098 40.0664C60.3438 40.0225 60.1719 40.001 60 40H59.9844C59.8271 39.999 59.6709 40.0176 59.5176 40.0537L34 46.4004V28H46ZM58 44.5576V50.4004L25.498 57.6182L24.4004 52.9102L58 44.5576ZM26.4385 61.5059L58 54.4941V82C58 83.1045 58.8955 84 60 84C61.1045 84 62 83.1045 62 82V54.4941L93.5615 61.5059L84.5615 97.5059C84.5586 97.5596 84.5586 97.6143 84.5615 97.668C83.4082 98.543 82.3721 99.5625 81.4775 100.702C79.8604 102.62 78.6963 104 76 104C73.1484 104 71.3818 102.388 69.3379 100.522C67.0156 98.4004 64.3799 96 59.9805 96C56.5352 96.0625 53.3438 97.8271 51.46 100.712C49.8564 102.622 48.6943 104 46 104C43.1523 104 41.4004 102.388 39.3496 100.524C38.1592 99.3574 36.8418 98.3262 35.4238 97.4502L26.4385 61.5059ZM116 108.184C113.344 108.844 111.021 110.454 109.47 112.71C107.862 114.62 106.698 116 104 116C101.302 116 100.138 114.62 98.5303 112.71C96.6846 109.779 93.4639 108.001 90 108.001C86.5361 108.001 83.3154 109.779 81.4697 112.71C79.8604 114.62 78.6963 116 76 116C73.1484 116 71.3818 114.388 69.3379 112.522C67.0156 110.4 64.3799 108 59.9805 108C56.5352 108.062 53.3438 109.827 51.46 112.712C49.8564 114.622 48.6943 116 46 116C43.1523 116 41.4004 114.388 39.3496 112.524C37.0303 110.4 34.4004 108 30 108C26.5537 108.065 23.3613 109.828 21.4697 112.71C19.8604 114.62 18.6963 116 16 116C13.3037 116 12.1396 114.62 10.5303 112.71C8.97949 110.455 6.65625 108.846 4 108.186V100.326C5.39941 100.988 6.59766 102.011 7.46973 103.29C9.36133 106.172 12.5537 107.935 16 108C19.4463 107.935 22.6387 106.172 24.5303 103.29C26.1396 101.38 27.3037 100 30 100C32.8477 100 34.5996 101.612 36.6504 103.476C38.9697 105.6 41.5996 108 46 108C49.4453 107.937 52.6357 106.172 54.5225 103.288C56.1221 101.378 57.2881 100 59.9805 100C62.832 100 64.5977 101.612 66.6416 103.478C68.9639 105.6 71.5996 108 76 108C79.4463 107.935 82.6387 106.172 84.5303 103.29C86.1396 101.38 87.3037 100 90 100C92.6963 100 93.8623 101.38 95.4697 103.29C97.3154 106.221 100.536 107.999 104 107.999C107.464 107.999 110.685 106.221 112.53 103.29C113.401 102.01 114.6 100.985 116 100.324V108.184Z" fill="#FF6F00" fill-opacity="0.5"/>
<path d="M67.5664 63.9521L85.5664 67.9521C85.709 67.9834 85.8545 68 86 68C87.0195 67.998 87.874 67.2305 87.9844 66.2178C88.0957 65.2041 87.4268 64.2695 86.4316 64.0479L68.4316 60.0479C67.7285 59.8779 66.9893 60.1006 66.4971 60.6309C66.0049 61.1611 65.8369 61.915 66.0586 62.6035C66.2793 63.293 66.8555 63.8076 67.5645 63.9521H67.5664Z" fill="#FF6F00" fill-opacity="0.5"/>
<path d="M53.9541 61.5664C53.7139 60.4873 52.6445 59.8076 51.5664 60.0479L33.5664 64.0479C32.5713 64.2695 31.9023 65.2051 32.0137 66.2188C32.125 67.2314 32.9805 67.999 34 68C34.1465 68 34.293 67.9834 34.4355 67.9521L52.4355 63.9521C53.5137 63.7119 54.1934 62.6436 53.9541 61.5664Z" fill="#FF6F00" fill-opacity="0.5"/>
<path d="M40 40C41.1045 40 42 39.1045 42 38V34C42 32.8955 41.1045 32 40 32C38.8955 32 38 32.8955 38 34V38C38 39.1045 38.8955 40 40 40Z" fill="#FF6F00" fill-opacity="0.5"/>
<path d="M80 40C81.1045 40 82 39.1045 82 38V34C82 32.8955 81.1045 32 80 32C78.8955 32 78 32.8955 78 34V38C78 39.1045 78.8955 40 80 40Z" fill="#FF6F00" fill-opacity="0.5"/>
<path d="M50 20C51.1045 20 52 19.1045 52 18C52 16.8955 51.1045 16 50 16H48C46.8955 16 46 16.8955 46 18C46 19.1045 46.8955 20 48 20H50Z" fill="#FF6F00" fill-opacity="0.5"/>
<path d="M58 20H62C63.1045 20 64 19.1045 64 18C64 16.8955 63.1045 16 62 16H58C56.8955 16 56 16.8955 56 18C56 19.1045 56.8955 20 58 20Z" fill="#FF6F00" fill-opacity="0.5"/>
<path d="M70 20H72C73.1045 20 74 19.1045 74 18C74 16.8955 73.1045 16 72 16H70C68.8955 16 68 16.8955 68 18C68 19.1045 68.8955 20 70 20Z" fill="#FF6F00" fill-opacity="0.5"/>
<path d="M46.2217 90.2217C49.2041 90.2217 51.6943 87.79 53.8379 82.7881C54.2549 81.7773 53.7822 80.6191 52.7764 80.1885C51.7715 79.7568 50.6074 80.2129 50.1621 81.2119C49.627 82.5752 48.8994 83.8545 48 85.0098V76H50C51.1045 76 52 75.1045 52 74C52 72.8955 51.1045 72 50 72H42C40.8955 72 40 72.8955 40 74C40 75.1045 40.8955 76 42 76H44V84.6982C43.1201 83.6387 42.3926 82.4609 41.8379 81.2002C41.4014 80.1846 40.2256 79.7158 39.21 80.1523C38.1953 80.5879 37.7256 81.7646 38.1621 82.7803C38.4883 83.5479 41.4844 90.2217 46.2217 90.2217Z" fill="#FF6F00" fill-opacity="0.5"/>
</svg>
