<svg width="133" height="132" viewBox="0 0 133 132" fill="none" xmlns="http://www.w3.org/2000/svg">
<path d="M132.404 128.638L104.882 101.992C105.622 100.237 106.031 98.3134 106.031 96.2957V32.6304C106.031 24.4445 99.3433 17.8089 91.0927 17.8089H68.2562V14.1222C71.0148 13.6295 73.115 11.2316 73.115 8.35495V3.91953H76.6674C80.1198 3.91953 82.9187 6.69643 82.9187 10.1217V11.0749C82.9187 12.1481 83.7521 13.0838 84.833 13.116C85.9514 13.1495 86.8693 12.2595 86.8693 11.1571V10.1215C86.8693 4.53158 82.3016 0 76.6674 0H55.2329C49.5987 0 45.031 4.53184 45.031 10.1217V11.0749C45.031 12.1481 45.8644 13.0838 46.9454 13.116C48.0638 13.1495 48.9816 12.2595 48.9816 11.1571V10.1215C48.9816 6.69618 51.7805 3.91927 55.2329 3.91927H58.7856V8.35495C58.7856 11.458 61.2282 14.0036 64.3054 14.2029V17.8095H59.5218C58.4309 17.8095 57.5466 18.6868 57.5466 19.7691C57.5466 20.8514 58.4309 21.7287 59.5218 21.7287H91.0927C97.1615 21.7287 102.081 26.6099 102.081 32.6306V96.2957C102.081 102.317 97.161 107.198 91.0927 107.198H80.369V104.151C80.369 99.9747 76.9564 96.5891 72.747 96.5891H59.1541C54.9445 96.5891 51.5321 99.975 51.5321 104.151V107.198H40.8082C34.7393 107.198 29.82 102.316 29.82 96.2957V32.6304C29.82 26.6091 34.7398 21.7285 40.8082 21.7285H50.3042C51.3951 21.7285 52.2794 20.8511 52.2794 19.7688C52.2794 18.6865 51.3951 17.8092 50.3042 17.8092H40.8082C32.5576 17.8092 25.8695 24.4448 25.8695 32.6306V96.2957C25.8695 98.4596 26.3429 100.514 27.1869 102.37L0.595602 128.115C-0.184997 128.871 -0.200329 130.112 0.561561 130.886C0.948743 131.28 1.46169 131.478 1.97542 131.478C2.47278 131.478 2.97066 131.292 3.35498 130.921L29.3302 105.771C30.3023 106.928 31.4496 107.934 32.7293 108.754L18.0206 128.347C17.3691 129.215 17.55 130.443 18.4249 131.089C18.7791 131.351 19.193 131.477 19.6031 131.477C20.206 131.477 20.801 131.205 21.1887 130.688L25.0143 125.592H107.589L111.808 131.211C112.196 131.727 112.79 132 113.393 132C113.843 132 114.297 131.848 114.672 131.533C115.475 130.857 115.565 129.654 114.936 128.816L99.6397 108.44C100.839 107.607 101.908 106.604 102.814 105.467L129.645 131.443C130.029 131.815 130.527 132 131.024 132C131.538 132 132.051 131.803 132.438 131.409C133.2 130.634 133.185 129.394 132.404 128.638ZM64.6934 10.2976C63.6139 10.2973 62.7359 9.42616 62.7359 8.3552V3.91953H69.1642V8.3552C69.1642 9.42616 68.2861 10.2976 67.2064 10.2976H64.6934ZM55.4821 104.151C55.4821 102.142 57.1293 100.508 59.1538 100.508H72.7467C74.7715 100.508 76.4185 102.143 76.4185 104.151V107.198H55.4823L55.4821 104.151ZM104.647 121.673H27.9569L36.3795 110.452C37.7793 110.884 39.2665 111.117 40.8074 111.117H91.0924C92.8422 111.117 94.5211 110.814 96.0829 110.264L104.647 121.673Z" fill="#FF6F00" fill-opacity="0.5"/>
<path d="M95.9701 35.0556H75.6241C74.7063 30.589 70.7163 27.2176 65.9472 27.2176C61.1781 27.2176 57.188 30.5887 56.2702 35.0556H35.9255C34.8347 35.0556 33.9504 35.9329 33.9504 37.0152V74.6423C33.9504 75.7246 34.8347 76.6019 35.9255 76.6019H74.2669C75.3578 76.6019 76.2421 75.7246 76.2421 74.6423C76.2421 73.56 75.3578 72.6826 74.2669 72.6826H37.9004V38.9751H56.2697C57.187 43.4423 61.1776 46.8144 65.9469 46.8144C70.7163 46.8144 74.7068 43.4425 75.6241 38.9751H93.9947V72.6826H83.4844C82.3936 72.6826 81.5093 73.56 81.5093 74.6423C81.5093 75.7246 82.3936 76.6019 83.4844 76.6019H95.9699C97.0607 76.6019 97.945 75.7246 97.945 74.6423V37.0152C97.9453 35.9329 97.061 35.0556 95.9701 35.0556ZM65.9469 42.8947C62.6795 42.8947 60.0215 40.2575 60.0215 37.0158C60.0215 33.774 62.6795 31.1368 65.9469 31.1368C69.2143 31.1368 71.8724 33.774 71.8724 37.0158C71.8724 40.2575 69.2143 42.8947 65.9469 42.8947Z" fill="#FF6F00" fill-opacity="0.5"/>
<path d="M51.3901 79.9989H35.9237C34.8328 79.9989 33.9485 80.8762 33.9485 81.9585V89.796C33.9485 90.8783 34.8328 91.7556 35.9237 91.7556H51.3901C52.481 91.7556 53.3653 90.8783 53.3653 89.796V81.9585C53.3653 80.8764 52.481 79.9989 51.3901 79.9989ZM49.4147 87.8364H37.8988V83.9184H49.4147V87.8364Z" fill="#FF6F00" fill-opacity="0.5"/>
<path d="M95.9698 79.9989H80.5031C79.4122 79.9989 78.528 80.8762 78.528 81.9585V89.796C78.528 90.8783 79.4122 91.7556 80.5031 91.7556H95.9698C97.0607 91.7556 97.945 90.8783 97.945 89.796V81.9585C97.9453 80.8764 97.0607 79.9989 95.9698 79.9989ZM93.9947 87.8364H82.4785V83.9184H93.9947V87.8364Z" fill="#FF6F00" fill-opacity="0.5"/>
</svg>
