<svg width="98" height="106" viewBox="0 0 98 106" fill="none" xmlns="http://www.w3.org/2000/svg">
<path d="M94.7339 12.7931H90.5599C88.7449 12.7931 87.2931 14.2551 87.2931 16.0828V20.1035H83.1522L82.0301 5.11739C81.8486 2.19308 79.4893 0 76.5856 0H21.5964C18.6927 0 16.3334 2.19308 16.1518 5.11718L14.9707 20.1033H10.889V16.0828C10.889 14.2551 9.4372 12.7931 7.44097 12.7931H3.26676C1.45185 12.7931 0 14.2551 0 16.0828V27.7794C0 29.6071 1.45185 31.0691 3.26676 31.0691H7.62229C9.4372 31.0691 10.889 29.6071 10.889 27.5968V23.7589H14.6829L12.7149 48.7297L7.25923 56.1072V78.5864C4.17401 78.5864 1.8147 80.9623 1.8147 84.0692V87.7244C1.8147 90.1853 3.29554 92.1863 5.44432 92.9123V98.6898C5.44432 102.71 8.71107 106 12.7035 106H19.9628C23.9555 106 27.222 102.71 27.222 98.6898V93.2069H68.9629V98.6898C68.9629 102.71 72.2296 106 76.2221 106H83.4813C87.474 106 90.7406 102.71 90.7406 98.6898V93.2069C93.8258 93.2069 96.1851 90.8311 96.1851 87.7242V84.069C96.1851 80.9621 93.8258 78.5862 90.7406 78.5862V56.1068L90.61 55.9302C90.5157 55.6899 90.3619 55.4689 90.1322 55.2841L85.2958 48.7438L83.4252 23.7587H87.2925V27.7794C87.2925 29.6071 88.7443 31.0691 90.5592 31.0691H94.7332C96.5482 31.0691 98 29.6071 98 27.5968V16.0828C98.0006 14.2551 96.5488 12.7931 94.7339 12.7931ZM7.25943 27.4138H3.62961V16.4482H7.25923L7.25943 27.4138ZM21.5964 3.65513H76.404C77.3115 3.65513 78.219 4.38616 78.219 5.29999L81.4857 47.5171H16.5149L19.7817 5.29999C19.7817 4.38616 20.6891 3.65513 21.5964 3.65513ZM70.7782 62.1378V78.586H27.2224V62.1378C27.2224 61.4068 26.678 60.6758 25.9521 60.493L11.9501 55.7927L15.4261 51.1722H82.5745L86.0505 55.7927L72.0485 60.493C71.3226 60.6758 70.7782 61.4068 70.7782 62.1378ZM10.889 59.2137L23.5928 63.4171V78.586H10.889V59.2137ZM23.5928 98.6895C23.5928 100.7 21.9594 102.345 19.9632 102.345H12.704C10.7077 102.345 9.07434 100.7 9.07434 98.6895V93.2067H23.593L23.5928 98.6895ZM87.1116 98.6895C87.1116 100.7 85.4782 102.345 83.4819 102.345H76.2227C74.2265 102.345 72.5931 100.7 72.5931 98.6895V93.2067H87.1118L87.1116 98.6895ZM92.5561 84.0688V87.7239C92.5561 88.8206 91.8302 89.5516 90.7412 89.5516H7.25943C6.17045 89.5516 5.44452 88.8206 5.44452 87.7239V84.0688C5.44452 82.9722 6.17045 82.2411 7.25943 82.2411H90.7414C91.8302 82.2411 92.5561 82.9722 92.5561 84.0688ZM74.4078 78.586V63.4171L87.1116 59.2137V78.586H74.4078ZM94.371 27.4138H90.7414V16.4482H94.371V27.4138Z" fill="#FF6F00" fill-opacity="0.5"/>
<path d="M41.7411 67.6206H56.2597C57.3487 67.6206 58.0746 66.8896 58.0746 65.793C58.0746 64.6963 57.3487 63.9653 56.2597 63.9653H41.7411C40.6521 63.9653 39.9261 64.6963 39.9261 65.793C39.9261 66.8896 40.6521 67.6206 41.7411 67.6206Z" fill="#FF6F00" fill-opacity="0.5"/>
<path d="M61.7054 71.2758H36.2979C35.209 71.2758 34.483 72.0068 34.483 73.1034C34.483 74.2001 35.209 74.9311 36.2979 74.9311H61.7054C62.7944 74.9311 63.5204 74.2001 63.5204 73.1034C63.5204 72.0068 62.7944 71.2758 61.7054 71.2758Z" fill="#FF6F00" fill-opacity="0.5"/>
<path d="M27.5855 42.0343H70.4153C72.5931 42.0343 74.408 40.2066 74.408 37.831V13.1587C74.408 10.9656 72.5931 9.13793 70.234 9.13793H27.5855C25.4077 9.13793 23.5928 10.9656 23.5928 13.1587V38.0138C23.593 40.2068 25.4077 42.0343 27.5855 42.0343ZM27.2226 13.1587C27.2226 12.9759 27.4041 12.7931 27.5857 12.7931H70.4155C70.5971 12.7931 70.7786 12.9759 70.5971 13.1587V37.831C70.5971 38.0138 70.4155 38.1966 70.234 38.1966H53.5376L62.9746 28.6932C63.7005 27.9622 63.7005 26.8656 62.9746 26.1345C62.2486 25.4035 61.1597 25.4035 60.4337 26.1345L48.4559 38.1966H37.204L46.641 28.6932C47.3669 27.9622 47.3669 26.8656 46.641 26.1345C45.9151 25.4035 44.8261 25.4035 44.1002 26.1345L32.1223 38.1966H27.5853C27.4037 38.1966 27.2222 38.0138 27.2222 37.831L27.2226 13.1587Z" fill="#FF6F00" fill-opacity="0.5"/>
</svg>
