<?xml version="1.0" standalone="no"?>
<!DOCTYPE svg PUBLIC "-//W3C//DTD SVG 1.1//EN" "http://www.w3.org/Graphics/SVG/1.1/DTD/svg11.dtd" >
<svg xmlns="http://www.w3.org/2000/svg">
<metadata>Generated by IcoMoon</metadata>
<defs>
<font id="b2bcash" horiz-adv-x="1024">
<font-face units-per-em="1024" ascent="960" descent="-64" />
<missing-glyph horiz-adv-x="1024" />
<glyph unicode="&#x20;" horiz-adv-x="512" d="" />
<glyph unicode="&#xe900;" glyph-name="customs" horiz-adv-x="534" d="M424.053 751.15l10.323 8.338c-7.491 4.395-16.162 8.298-25.262 11.25l-0.944 0.265-17.867 4.368c-30.772 6.373-66.135 10.021-102.351 10.021-3.521 0-7.034-0.034-10.539-0.103l0.524 0.008c-4.171 0.131-9.075 0.206-13.997 0.206-40.278 0-79.389-4.998-116.746-14.407l3.289 0.702c-13.153-3.881-24.63-9.436-34.953-16.546l0.409 0.266 4.368-3.971v-23.426h2.779l4.765 2.382c41.916 19.607 91.014 31.048 142.784 31.048 2.567 0 5.128-0.028 7.682-0.084l-0.38 0.007c2.21 0.049 4.814 0.077 7.424 0.077 48.116 0 94.011-9.51 135.908-26.752l-2.378 0.866 5.162-2.382v12.309zM123.086 707.871c25.411-50.029 104.425-55.19 135.395-55.19h25.808c32.558 0 115.542 5.559 138.174 60.749-40.776 19.086-88.541 30.223-138.906 30.223-1.976 0-3.949-0.017-5.917-0.051l0.296 0.004c-2.464 0.069-5.363 0.108-8.271 0.108-53.567 0-104.037-13.26-148.307-36.676l1.728 0.833zM370.848 410.876l-86.955-228.703c-1.975-4.611-6.473-7.782-11.713-7.782s-9.738 3.172-11.681 7.7l-0.032 0.083-88.146 231.879c-99.060-32.472-169.805-122.995-172.316-230.396l-0.005-0.292c5.607-137.88 118.742-247.533 257.487-247.533 3.282 0 6.55 0.061 9.802 0.183l-0.47-0.014c2.783-0.108 6.050-0.169 9.332-0.169 138.746 0 251.88 109.653 257.471 247.026l0.016 0.507c-2.277 104.246-68.598 192.435-161.081 226.952l-1.711 0.56zM311.687 433.508c-4.166 4.168-9.921 6.747-16.279 6.75h-46.059c-0.066 0.001-0.144 0.001-0.223 0.001-6.414 0-12.226-2.578-16.456-6.753l0.003 0.002c-3.439-3.896-5.538-9.045-5.538-14.684 0-3.936 1.023-7.633 2.817-10.84l-0.058 0.112 24.617-36.926-11.515-97.278 22.632-60.352c1.131-2.547 3.637-4.291 6.551-4.291s5.421 1.744 6.533 4.245l0.018 0.045 22.632 60.352-11.515 97.278 24.617 36.926c1.79 3.099 2.846 6.816 2.846 10.781 0 5.637-2.136 10.775-5.643 14.65l0.017-0.019zM458.596 853.193c-6.75 31.367-4.368 42.485-31.764 45.264-0.16-0.001-0.349-0.001-0.538-0.001-40.899 0-78.666 13.414-109.14 36.083l0.488-0.347c-26.603 22.632-39.705 25.808-43.676 25.808h-3.971c-3.176 0-12.706-3.176-39.705-25.808-28.282-22.281-64.424-35.736-103.708-35.736-0.252 0-0.504 0.001-0.756 0.002h0.039c-27.397-2.779-26.603-13.897-33.352-44.867s-32.161-39.705-24.617-47.249 24.617-22.235 39.705-34.147c15.789 10.771 34.225 19.119 54.030 23.98l1.16 0.241h4.765c17.762 14.705 39.061 25.824 62.393 31.91l1.135 0.251s0 3.971 0 5.956c2.171 21.842 20.452 38.76 42.683 38.76s40.512-16.918 42.669-38.582l0.014-0.179c0.093-0.893 0.145-1.929 0.145-2.978s-0.053-2.085-0.156-3.107l0.011 0.129c21.557-5.852 40.378-15.268 56.793-27.695l-0.411 0.298c8.904-1.473 16.534-3.268 23.97-5.508l-1.338 0.346c18.065-4.592 33.93-11.263 48.48-19.915l-0.833 0.459c14.294 11.515 32.558 26.206 36.926 30.176s-14.294 15.485-21.441 46.455zM422.067 688.813v0c-22.235-55.19-104.425-60.749-137.777-60.749h-25.808c-30.97 0-115.145 7.147-141.351 56.382v0c-6.258-16.523-9.895-35.626-9.926-55.574v-0.014c4.452-88.317 77.144-158.24 166.167-158.24s161.715 69.923 166.151 157.844l0.016 0.396c-0.261 22.577-5.056 43.966-13.512 63.393l0.409-1.056z" />
<glyph unicode="&#xe901;" glyph-name="customs-license" horiz-adv-x="911" d="M688.667 717.187c32.934-20.436 71.009-39.312 110.888-54.536l4.658-1.562c27.212-8.373 77.030-21.769 96.288-26.793-0.685-44.869-6.14-88.105-15.88-129.691l0.809 4.098c-27.027-72.832-62.524-135.83-106.279-192.086l1.2 1.603c-27.332-27.703-57.325-52.644-89.609-74.454l-2.074-1.321c-34.403 23.007-64.407 47.958-91.593 75.682l-0.090 0.092c-42.663 54.661-78.289 117.648-103.871 185.559l-1.627 4.923c-9.075 37.648-14.402 80.935-14.652 125.424l-0.001 0.168c18.839 5.024 68.657 18.42 96.288 26.793 30.332 10.891 56.019 22.747 80.483 36.519l-2.615-1.353c20.095 10.466 31.398 17.164 37.678 20.932zM688.667 728.909v0c-33.822-20.874-72.99-40.303-113.962-56.101l-4.932-1.672c-34.329-10.885-103.405-28.886-103.405-28.886-0.001-0.408-0.002-0.892-0.002-1.376 0-48.354 5.646-95.389 16.314-140.483l-0.823 4.125c27.526-74.277 63.733-138.525 108.388-195.871l-1.215 1.621c29.602-30 62.211-56.891 97.383-80.229l2.254-1.406c37.426 24.744 70.035 51.635 99.571 81.568l0.066 0.067c43.26 55.768 79.447 119.993 105.499 189.184l1.673 5.066c9.581 40.916 15.073 87.897 15.073 136.16 0 0.554-0.001 1.107-0.002 1.66v-0.086s-69.076 18.002-103.405 28.886c-45.773 17.553-84.794 36.976-121.652 59.584l3.176-1.812zM862.823 607.084s-54.424 14.234-81.217 22.607c-35.758 13.534-66.383 28.886-95.151 46.926l2.212-1.294c-26.556-16.746-57.181-32.099-89.311-44.41l-3.628-1.222c-27.212-8.373-83.729-22.607-83.729-22.607 0.878-38.598 6.018-75.568 14.968-111.023l-0.734 3.432c21.556-58.101 49.839-108.358 84.694-153.26l-0.965 1.293c23.222-23.605 48.851-44.711 76.528-62.963l1.759-1.089c29.259 19.368 54.748 40.469 77.792 63.975l0.076 0.077c34.066 43.565 62.368 93.846 82.475 148.105l1.253 3.862c8.086 32.26 12.807 69.333 12.978 107.481v0.11zM423.666 750.679l10.885 8.373c-7.692 4.504-16.582 8.355-25.947 11.091l-0.846 0.212-17.583 4.605c-30.427 6.202-65.4 9.752-101.201 9.752-4.013 0-8.016-0.045-12.008-0.133l0.594 0.010c-4.068 0.127-8.851 0.199-13.652 0.199-39.744 0-78.329-4.958-115.172-14.289l3.231 0.694c-13.064-3.727-24.479-9.164-34.736-16.171l0.408 0.263 4.186-3.768v-23.863h2.93l0.837 4.186c41.647 19.122 90.356 30.271 141.669 30.271 3.327 0 6.643-0.047 9.948-0.14l-0.486 0.011c2.596 0.067 5.652 0.106 8.718 0.106 47.982 0 93.764-9.419 135.597-26.509l-2.395 0.866h5.024v9.21zM123.081 708.814c25.537-49.818 104.242-55.261 135.64-55.261h25.537c32.235 0 115.545 5.861 138.152 60.703-40.8 19.068-88.586 30.194-138.971 30.194-2.067 0-4.13-0.019-6.188-0.056l0.309 0.004c-2.201 0.054-4.793 0.085-7.392 0.085-53.719 0-104.358-13.192-148.852-36.512l1.765 0.843zM370.917 411.159l-87.078-228.579c-1.863-4.749-6.407-8.050-11.722-8.050s-9.859 3.301-11.692 7.965l-0.030 0.085-88.334 233.184c-98.93-33.519-169.367-124.365-172.056-232.032l-0.006-0.314c5.458-137.881 118.555-247.589 257.276-247.589 3.306 0 6.597 0.062 9.872 0.186l-0.473-0.014c2.803-0.109 6.094-0.172 9.4-0.172 138.721 0 251.818 109.709 257.26 247.096l0.016 0.494c-2.264 104.21-68.402 192.41-160.723 227.177l-1.71 0.565zM311.47 433.348c-3.903 4.137-9.422 6.713-15.543 6.713-0.276 0-0.55-0.005-0.824-0.016l0.039 0.001h-43.957c-0.234 0.009-0.508 0.014-0.784 0.014-6.121 0-11.64-2.576-15.533-6.702l-0.010-0.010c-3.607-3.755-5.828-8.864-5.828-14.492 0-3.919 1.077-7.586 2.951-10.722l-0.053 0.096 24.7-37.259-13.815-97.125 23.025-60.285c1.143-2.493 3.617-4.194 6.489-4.194s5.346 1.701 6.471 4.15l0.018 0.044 22.607 60.285-11.722 97.125 24.7 37.259c1.821 3.040 2.898 6.708 2.898 10.626 0 5.628-2.221 10.738-5.835 14.499l0.007-0.007zM460.507 853.246c-7.117 31.398-4.605 41.864-31.817 45.213-0.988-0.019-2.153-0.030-3.321-0.030-40.818 0-78.513 13.367-108.947 35.963l0.491-0.348c-23.863 23.025-38.515 25.956-43.12 25.956h-3.768c-3.349 0-12.559-2.93-38.515-25.956-28.146-22.199-64.124-35.606-103.234-35.606-0.943 0-1.885 0.008-2.824 0.023l0.142-0.002c-27.212-2.93-26.374-13.815-33.073-45.213s-32.235-39.352-24.7-46.888 24.7-22.188 37.678-33.91c15.833 10.577 34.289 18.801 54.078 23.619l1.183 0.243h5.024c17.891 15.432 39.54 27.031 63.364 33.246l1.107 0.245s0 3.768 0 5.861c0 23.121 18.743 41.864 41.864 41.864s41.864-18.743 41.864-41.864v0c0.111-0.88 0.174-1.898 0.174-2.93s-0.063-2.051-0.186-3.050l0.012 0.12c22.441-6.119 42.014-16.052 58.997-29.174l-0.387 0.288c8.755-1.448 16.236-3.194 23.533-5.368l-1.345 0.344c18.098-4.641 33.987-11.386 48.539-20.13l-0.814 0.454c14.652 11.303 33.073 25.956 37.259 30.142s-14.234 15.908-19.258 46.888zM421.992 689.138v0c-22.607-54.842-105.917-60.703-138.152-60.703h-25.119c-30.98 0-115.545 7.536-141.501 56.517v0c-6.533-16.482-10.493-35.562-10.882-55.517l-0.002-0.162c11.296-82.485 81.302-145.353 165.992-145.353s154.696 62.868 165.894 144.482l0.098 0.872c-0.419 22.595-5.15 43.973-13.4 63.502l0.422-1.124z" />
<glyph unicode="&#xe902;" glyph-name="check-bold" horiz-adv-x="1347" d="M1124.295 960l-577.838-577.93-323.383 323.291-223.074-222.982 546.181-546.641 0.276 0.276 0.184-0.276 800.728 801.188z" />
<glyph unicode="&#xe903;" glyph-name="warehouse-rent1" horiz-adv-x="1177" d="M415.651 48.175h129.862v-112.175h-129.862v112.175zM575.302 48.175h129.862v-112.175h-129.862v112.175zM256.465 48.175h129.862v-112.175h-129.862v112.175zM415.651 201.775h129.862v-112.175h-129.862v112.175zM256.465 201.775h129.862v-112.175h-129.862v112.175zM575.302 201.775h129.862v-112.175h-129.862v112.175zM415.651 355.375h129.862v-112.175h-129.862v112.175zM256.465 355.375h129.862v-112.175h-129.862v112.175zM734.487 48.175h129.862v-112.175h-129.862v112.175zM0 669.091v-733.091h166.633v578.095h843.404v-578.095h166.167v733.091h-1176.204zM0 960v-279.273h1176.669v279.273zM1106.851 730.065h-1039.825v166.167h1039.825zM155.462 862.72h30.72l10.24-54.924 13.033 54.924h28.393l14.895-54.458 10.705 54.458h28.393l-21.411-97.745h-29.789l-17.222 61.44-16.756-61.44h-29.789zM361.658 781.265h-35.84l-4.655-16.291h-29.324l36.771 97.745h32.582l36.771-97.745h-31.651zM355.142 802.211l-10.705 34.909-10.705-34.909zM407.738 764.975v97.745h50.269c0.75 0.031 1.631 0.049 2.516 0.049 6.743 0 13.244-1.039 19.35-2.966l-0.455 0.124c4.951-1.433 9.013-4.588 11.587-8.757l0.050-0.086c2.932-4.008 4.692-9.035 4.692-14.473 0-0.476-0.013-0.948-0.040-1.418l0.003 0.065c-0.087-5.089-1.28-9.878-3.347-14.167l0.088 0.203c-2.449-3.889-5.743-7.034-9.64-9.239l-0.134-0.070c-3.093-1.708-6.686-3.004-10.49-3.691l-0.215-0.032c3.015-0.833 5.651-2.109 7.99-3.776l-0.077 0.052c1.879-1.383 3.434-3.086 4.611-5.042l0.043-0.078 4.655-6.051 14.429-28.393h-33.978l-16.291 29.789c-1.084 2.974-2.842 5.481-5.097 7.428l-0.023 0.019c-1.87 1.461-4.255 2.343-6.846 2.343-0.212 0-0.422-0.006-0.63-0.017l0.029 0.001h-2.793v-39.564zM437.993 823.156h20.48c2.931 0.265 5.442 1.853 6.96 4.154l0.022 0.035c0.287 0.833 0.453 1.794 0.453 2.793s-0.166 1.959-0.471 2.855l0.018-0.062c0.011 0.176 0.018 0.381 0.018 0.588 0 2.673-1.073 5.095-2.812 6.86l0.001-0.001c-1.738 0.576-3.739 0.909-5.818 0.909s-4.080-0.332-5.953-0.947l0.135 0.038h-13.033zM512 862.72h29.789v-34.444h33.047v34.444h30.255v-97.745h-30.255v39.564h-33.047v-39.564h-29.789zM622.778 813.847c-0.071 1-0.111 2.167-0.111 3.344 0 13.078 4.994 24.989 13.178 33.931l-0.034-0.038c10.2 8.101 23.263 12.997 37.469 12.997s27.269-4.896 37.594-13.092l-0.125 0.096c8.127-9.025 13.097-21.032 13.097-34.2 0-0.904-0.023-1.803-0.070-2.696l0.005 0.125c0.033-0.724 0.052-1.574 0.052-2.428 0-9.304-2.256-18.081-6.251-25.814l0.148 0.315c-3.743-7.114-9.31-12.83-16.088-16.651l-0.203-0.105c-7.231-3.838-15.809-6.091-24.913-6.091-0.733 0-1.462 0.015-2.188 0.044l0.104-0.003c-0.957-0.055-2.077-0.087-3.203-0.087-8.789 0-17.13 1.918-24.627 5.358l0.368-0.151c-7.522 3.748-13.569 9.497-17.581 16.554l-0.106 0.202c-4.125 7.673-6.549 16.791-6.549 26.474 0 0.675 0.012 1.347 0.035 2.016l-0.003-0.097zM653.033 813.847c-0.068-0.81-0.106-1.753-0.106-2.705 0-6.759 1.947-13.063 5.31-18.382l-0.084 0.142c3.595-4.009 8.791-6.519 14.573-6.519 0.113 0 0.226 0.001 0.338 0.003h-0.017c0.231-0.010 0.503-0.015 0.775-0.015 5.788 0 10.989 2.516 14.568 6.513l0.016 0.019c3.306 5.451 5.263 12.040 5.263 19.085 0 1.147-0.052 2.281-0.153 3.401l0.011-0.144c0.076 0.79 0.119 1.708 0.119 2.636 0 6.54-2.141 12.58-5.76 17.457l0.056-0.079c-3.743 3.959-9.031 6.424-14.895 6.424s-11.152-2.464-14.885-6.414l-0.009-0.010c-4.094-5.647-6.549-12.715-6.549-20.356 0-0.535 0.012-1.066 0.036-1.595l-0.003 0.075zM803.375 862.72h29.789v-58.182c0.34-2.447 0.534-5.273 0.534-8.145s-0.194-5.699-0.57-8.468l0.036 0.322c-1.864-5.349-4.901-9.886-8.819-13.476l-0.024-0.022c-3.153-3.427-7.045-6.123-11.428-7.841l-0.209-0.072c-5.794-2.085-12.48-3.291-19.448-3.291-0.69 0-1.378 0.012-2.062 0.035l0.099-0.003c-2.301-0.208-4.976-0.327-7.68-0.327s-5.379 0.119-8.022 0.351l0.342-0.024c-5.143 0.371-9.893 1.705-14.187 3.823l0.224-0.1c-3.914 2.386-7.281 5.161-10.21 8.345l-0.030 0.033c-3.34 3.366-5.785 7.624-6.944 12.386l-0.037 0.182c-1.638 4.841-2.649 10.423-2.791 16.221l-0.001 0.070v58.182h29.789v-59.578c0-0.023 0-0.050 0-0.078 0-4.787 1.763-9.163 4.675-12.513l-0.020 0.023c3.295-2.616 7.514-4.196 12.102-4.196s8.807 1.581 12.142 4.227l-0.040-0.031c2.915 2.8 4.726 6.73 4.726 11.084 0 0.522-0.026 1.039-0.077 1.547l0.005-0.064zM848.058 797.556h28.393c0.466-3.857 1.791-7.331 3.778-10.328l-0.055 0.088c3.011-3.716 7.574-6.071 12.687-6.071 0.285 0 0.569 0.007 0.851 0.022l-0.039-0.002c0.271-0.017 0.587-0.027 0.905-0.027 3.324 0 6.402 1.056 8.916 2.851l-0.047-0.032c2.067 1.695 3.452 4.154 3.72 6.94l0.003 0.042c-0.090 2.778-1.327 5.251-3.249 6.974l-0.009 0.008c-4.425 2.612-9.584 4.559-15.078 5.544l-0.282 0.042c-10.868 1.603-20.515 5.905-28.522 12.2l0.129-0.098c-5.142 4.299-8.39 10.716-8.39 17.892 0 0.255 0.004 0.51 0.012 0.764l-0.001-0.037c-0.001 0.062-0.001 0.136-0.001 0.21 0 5.13 1.566 9.894 4.245 13.84l-0.055-0.086c3.246 4.694 7.664 8.365 12.838 10.63l0.195 0.076c6.613 2.379 14.243 3.754 22.194 3.754 0.707 0 1.411-0.011 2.112-0.032l-0.103 0.003c0.88 0.056 1.908 0.088 2.944 0.088 9.401 0 18.188-2.629 25.666-7.193l-0.217 0.123c6.586-5.217 10.96-12.977 11.63-21.773l0.006-0.104h-28.393c-0.526 3.819-2.202 7.175-4.663 9.783l0.008-0.009c-2.702 1.759-6.009 2.806-9.559 2.806-0.239 0-0.478-0.005-0.715-0.014l0.034 0.001c-1.172 0.48-2.532 0.758-3.956 0.758s-2.785-0.278-4.028-0.784l0.072 0.026c-1.428-1.118-2.337-2.841-2.337-4.777 0-0.121 0.004-0.24 0.010-0.359l-0.001 0.016c-0.314-0.61-0.498-1.331-0.498-2.095s0.184-1.485 0.51-2.121l-0.012 0.026c2.857-2.080 6.366-3.432 10.173-3.72l0.067-0.004c10.776-2.033 20.293-4.933 29.34-8.731l-0.947 0.353c5.639-3.129 10.013-7.954 12.497-13.778l0.070-0.185c2.628-3.909 4.195-8.723 4.195-13.902 0-0.185-0.002-0.37-0.006-0.555v0.027c-0.116-6.399-2.008-12.332-5.201-17.358l0.081 0.136c-3.737-5.3-8.78-9.446-14.67-12.014l-0.225-0.087c-6.503-2.369-14.010-3.739-21.837-3.739-0.505 0-1.009 0.006-1.511 0.017l0.075-0.001c-1.527-0.166-3.297-0.261-5.090-0.261-11.037 0-21.236 3.59-29.491 9.667l0.138-0.097c-5.753 6.559-9.274 15.199-9.309 24.662v0.007zM951.389 862.72h80.524v-20.945h-50.269v-15.36h46.545v-20.015h-46.545v-19.084h51.665v-22.342h-81.92z" />
<glyph unicode="&#xe904;" glyph-name="warehouse-security" horiz-adv-x="1058" d="M494.836 92.572c-43.236 0-78.286-35.050-78.286-78.286s35.050-78.286 78.286-78.286c43.236 0 78.286 35.050 78.286 78.286v0c0 43.236-35.050 78.286-78.286 78.286v0zM494.836-22.136c-20.115 0-36.422 16.307-36.422 36.422s16.307 36.422 36.422 36.422c20.115 0 36.422-16.307 36.422-36.422v0c0-20.115-16.307-36.422-36.422-36.422v0zM289.701 92.572c-0.124 0.001-0.271 0.001-0.419 0.001-43.236 0-78.286-35.050-78.286-78.286s35.050-78.286 78.286-78.286c43.236 0 78.286 35.049 78.286 78.285v0c0 0 0 0.001 0 0.001 0 43.089-34.812 78.047-77.845 78.285h-0.023zM289.701-22.136c-20.115 0-36.422 16.307-36.422 36.422s16.307 36.422 36.422 36.422c20.115 0 36.422-16.307 36.422-36.422v0c0-20.115-16.307-36.422-36.422-36.422v0zM0 698.348v-659.362h149.874v519.954h758.581v-519.954h149.455v659.362h-1057.91zM548.439 233.789l6.217 6.217 34.043-34.043-6.217-6.217-34.043 34.043zM474.322 409.066c-24.508 0-44.376-19.868-44.376-44.376s19.868-44.376 44.376-44.376c24.508 0 44.376 19.868 44.376 44.376v0c0 24.508-19.868 44.376-44.376 44.376v0zM645.547 67.872v395.199h-25.537v-344.543h-14.652v310.214c0 0.001 0 0.002 0 0.003 0 14.881-11.946 26.973-26.771 27.208h-222.74v-249.511l-164.527 28.468c-0.002 0-0.005 0-0.008 0-5.633 0-10.227-4.45-10.457-10.027l-0.001-0.021v-195.925c0-5.78 4.686-10.466 10.466-10.466v0h9.21c3.316 47.224 42.44 84.278 90.217 84.278s86.901-37.053 90.201-83.991l0.016-0.286h24.7c0 49.941 40.485 90.427 90.427 90.427s90.427-40.485 90.427-90.427v0h10.047c0.003 0 0.006 0 0.009 0 5.549 0 10.047 4.498 10.047 10.047 0 0.147-0.003 0.294-0.009 0.439l0.001-0.021v21.769h14.652v-7.536h25.537l181.691 11.722v11.722zM582.332 206.443h-83.729v27.63q10.047-6.28 22.607-12.559c0.944-0.189 2.029-0.297 3.14-0.297s2.196 0.108 3.246 0.314l-0.106-0.017c-0.152-0.437-0.239-0.941-0.239-1.465s0.088-1.028 0.249-1.498l-0.010 0.032 3.349-3.349c0.976-0.938 2.305-1.515 3.768-1.515s2.792 0.577 3.77 1.517l34.327 34.327c1.030 0.851 1.682 2.129 1.682 3.558s-0.652 2.708-1.674 3.552l-0.008 0.006-3.768 3.768c-0.851 1.030-2.129 1.682-3.558 1.682s-2.708-0.652-3.552-1.674l-0.006-0.008-21.769-21.769c-0.687 4.826-3.711 8.82-7.87 10.848l-0.084 0.037c-13.419 6.363-24.96 13.48-35.619 21.686l0.453-0.335v9.21c-0.236 17.16-14.202 30.98-31.395 30.98-0.001 0-0.002 0-0.003 0h-14.652c-0.124 0.002-0.271 0.003-0.419 0.003-17.11 0-30.98-13.87-30.98-30.98 0-0.001 0-0.002 0-0.003v0-73.681h-41.864v226.067h199.693c1.893-0.218 3.349-1.811 3.349-3.744 0-0.008 0-0.016 0-0.025v0.001zM689.923 250.401h125.593c11.792 0 21.351-9.559 21.351-21.351v-125.593c0-11.792-9.559-21.351-21.351-21.351h-125.593c-11.792 0-21.351 9.559-21.351 21.351v125.593c0 11.792 9.559 21.351 21.351 21.351zM689.923 436.697h125.593c11.792 0 21.351-9.559 21.351-21.351v-125.593c0-11.792-9.559-21.351-21.351-21.351h-125.593c-11.792 0-21.351 9.559-21.351 21.351v125.593c0 11.792 9.559 21.351 21.351 21.351zM0 960v-251.186h1057.91v251.186zM995.532 753.191h-935.248v149.455h935.248zM139.827 872.504h27.63l9.629-49.4 11.303 49.4h25.537l13.397-48.981 9.629 48.981h25.537l-19.258-87.915h-26.793l-15.071 55.261-15.49-55.261h-26.374zM325.285 799.241h-32.235l-4.186-14.652h-26.374l33.073 87.915h29.305l33.073-87.915h-28.468zM319.424 818.080l-9.629 31.398-9.629-31.398zM366.731 784.589v87.915h45.213c0.675 0.028 1.467 0.044 2.263 0.044 6.065 0 11.912-0.935 17.404-2.668l-0.409 0.111c4.453-1.289 8.106-4.126 10.422-7.877l0.045-0.078c2.629-3.555 4.207-8.025 4.207-12.864 0-0.335-0.008-0.667-0.022-0.998l0.002 0.047c-0.028-4.718-1.105-9.177-3.011-13.165l0.080 0.187c-2.203-3.498-5.166-6.327-8.671-8.31l-0.121-0.063c-2.782-1.536-6.013-2.702-9.435-3.32l-0.194-0.029c2.712-0.749 5.083-1.897 7.186-3.396l-0.069 0.047 4.605-4.605 3.768-5.442 12.978-25.537h-30.561l-14.652 26.793c-0.975 2.675-2.556 4.93-4.585 6.681l-0.020 0.017c-1.682 1.315-3.827 2.108-6.157 2.108-0.19 0-0.379-0.005-0.567-0.016l0.026 0.001h-2.512v-35.585zM393.943 836.919h18.42c2.636 0.239 4.895 1.667 6.26 3.736l0.019 0.031c0.258 0.75 0.407 1.613 0.407 2.512s-0.149 1.762-0.424 2.568l0.017-0.056c0.010 0.158 0.016 0.343 0.016 0.529 0 2.404-0.965 4.583-2.529 6.17l0.001-0.001c-1.564 0.518-3.363 0.817-5.233 0.817s-3.67-0.299-5.354-0.852l0.121 0.034h-11.722zM460.507 872.504h27.212v-30.98h29.305v30.98h27.212v-87.915h-27.212v35.585h-29.305v-35.585h-27.212zM560.144 828.546c-0.041 0.725-0.065 1.574-0.065 2.428 0 12.013 4.642 22.942 12.231 31.091l-0.025-0.028c7.891 7.324 18.497 11.818 30.153 11.818 1.027 0 2.046-0.035 3.056-0.104l-0.137 0.007c0.972 0.074 2.104 0.116 3.247 0.116 11.822 0 22.594-4.496 30.7-11.871l-0.037 0.033c7.301-8.059 11.769-18.801 11.769-30.587 0-0.727-0.017-1.45-0.051-2.169l0.004 0.102c0.026-0.642 0.041-1.396 0.041-2.153 0-8.477-1.866-16.517-5.21-23.734l0.145 0.349c-3.704-6.275-8.796-11.367-14.877-14.965l-0.194-0.106c-6.503-3.452-14.219-5.479-22.407-5.479-0.659 0-1.315 0.013-1.968 0.039l0.094-0.003c-0.46-0.013-1.001-0.020-1.543-0.020-8.357 0-16.316 1.7-23.551 4.774l0.395-0.149c-6.695 3.476-12.106 8.619-15.809 14.89l-0.099 0.181c-3.71 6.902-5.89 15.102-5.89 23.811 0 0.607 0.011 1.211 0.032 1.813l-0.002-0.087zM587.356 828.546c-0.074-0.809-0.116-1.749-0.116-2.699 0-6.133 1.758-11.854 4.798-16.689l-0.077 0.13c3.234-3.612 7.912-5.875 13.118-5.875 0.245 0 0.489 0.005 0.732 0.015l-0.035-0.001c0.086-0.002 0.187-0.002 0.289-0.002 5.201 0 9.874 2.258 13.093 5.847l0.015 0.016c2.974 4.903 4.733 10.829 4.733 17.165 0 1.031-0.047 2.052-0.138 3.059l0.009-0.13c0.052 0.645 0.082 1.396 0.082 2.154 0 6.088-1.911 11.729-5.166 16.357l0.060-0.091c-3.005 3.372-7.36 5.486-12.208 5.486-0.418 0-0.833-0.016-1.243-0.047l0.055 0.003c-0.253 0.014-0.549 0.022-0.847 0.022-5.033 0-9.534-2.277-12.529-5.857l-0.021-0.026c-3.668-5.027-5.869-11.328-5.869-18.143 0-0.245 0.003-0.488 0.008-0.732l-0.001 0.036zM722.577 872.504h26.793v-52.33c0.411-2.203 0.646-4.737 0.646-7.326s-0.235-5.123-0.685-7.583l0.039 0.256c-1.692-4.737-4.263-8.79-7.542-12.147l0.006 0.006c-3.025-3.006-6.645-5.417-10.668-7.040l-0.216-0.077c-5.212-1.876-11.225-2.96-17.492-2.96-0.621 0-1.239 0.011-1.855 0.032l0.089-0.002h-13.815c-4.626 0.334-8.898 1.534-12.76 3.439l0.201-0.090c-3.52 2.146-6.549 4.642-9.183 7.506l-0.027 0.030c-3.004 3.027-5.203 6.857-6.246 11.14l-0.034 0.163c-1.474 4.354-2.383 9.375-2.511 14.59l-0.001 0.063v52.33h26.793v-53.586c0-0.021 0-0.045 0-0.070 0-4.306 1.585-8.241 4.204-11.254l-0.018 0.021c2.963-2.352 6.758-3.774 10.885-3.774s7.921 1.422 10.921 3.802l-0.036-0.028c2.622 2.518 4.251 6.054 4.251 9.969 0 0.47-0.023 0.934-0.069 1.392l0.005-0.058zM762.767 813.894h25.537c0.343-3.531 1.708-6.691 3.792-9.241l-0.024 0.031c2.466-3.335 6.385-5.474 10.803-5.474 0.323 0 0.644 0.011 0.962 0.034l-0.043-0.002c0.243-0.015 0.528-0.024 0.814-0.024 2.99 0 5.758 0.95 8.019 2.564l-0.042-0.029c1.859 1.524 3.105 3.736 3.346 6.242l0.003 0.037c0.004 0.092 0.006 0.201 0.006 0.31 0 2.423-1.143 4.578-2.92 5.957l-0.017 0.013c-3.98 2.349-8.62 4.101-13.561 4.986l-0.254 0.038c-9.744 1.648-18.38 5.485-25.686 10.992l0.149-0.108c-4.625 3.867-7.546 9.638-7.546 16.092 0 0.23 0.004 0.459 0.011 0.687l-0.001-0.033c-0.001 0.056-0.001 0.122-0.001 0.189 0 4.614 1.408 8.899 3.818 12.448l-0.050-0.078c2.919 4.222 6.893 7.523 11.547 9.56l0.175 0.068c5.948 2.139 12.81 3.376 19.962 3.376 0.636 0 1.269-0.010 1.9-0.029l-0.092 0.002c0.792 0.050 1.716 0.079 2.648 0.079 8.456 0 16.359-2.365 23.084-6.469l-0.195 0.111c6.004-4.626 9.97-11.643 10.462-19.6l0.004-0.076h-25.537c-0.377 3.457-1.905 6.5-4.187 8.792l0.001-0.001c-2.351 1.588-5.248 2.535-8.366 2.535-0.297 0-0.592-0.009-0.884-0.026l0.040 0.002c-1.054 0.431-2.277 0.682-3.558 0.682s-2.505-0.25-3.623-0.705l0.064 0.023c-1.284-1.005-2.102-2.555-2.102-4.297 0-0.109 0.003-0.216 0.009-0.323l-0.001 0.015c-0.282-0.548-0.448-1.197-0.448-1.884s0.166-1.335 0.459-1.907l-0.011 0.024c2.65-1.59 5.748-2.761 9.051-3.327l0.159-0.022c9.692-1.829 18.252-4.437 26.389-7.853l-0.852 0.317c5.072-2.814 9.006-7.154 11.24-12.392l0.063-0.167c2.364-3.516 3.773-7.845 3.773-12.504 0-0.167-0.002-0.333-0.005-0.499v0.025c-0.104-5.755-1.806-11.092-4.678-15.612l0.073 0.123c-3.27-4.738-7.844-8.368-13.204-10.402l-0.193-0.064c-5.688-2.401-12.301-3.796-19.24-3.796-0.595 0-1.188 0.010-1.778 0.031l0.086-0.002c-1.302-0.132-2.815-0.207-4.344-0.207-10 0-19.248 3.217-26.767 8.671l0.132-0.091c-5.174 5.899-8.341 13.671-8.373 22.181v0.007zM855.706 872.504h72.425v-18.839h-45.213v-13.815h41.864v-18.002h-41.864v-17.164h46.888v-20.095h-74.1z" />
<glyph unicode="&#xe905;" glyph-name="hat-calls" horiz-adv-x="1219" d="M1075.446-64h-930.412c-0.325-0.003-0.71-0.004-1.095-0.004-79.496 0-143.94 64.444-143.94 143.94 0 0.002 0 0.003 0 0.005v0 736.12c0 79.496 64.444 143.94 143.94 143.94v0h930.412c79.496 0 143.94-64.444 143.94-143.94v0-736.12c0-0.001 0-0.003 0-0.004 0-79.111-63.822-143.316-142.786-143.936h-0.059zM143.94 905.27c-48.55-1.748-87.462-40.66-89.205-89.047l-0.005-0.163v-736.12c0-50.781 41.166-91.947 91.947-91.947v0h930.412c50.781 0 91.947 41.166 91.947 91.947v0 736.12c-1.515 49.596-42.082 89.225-91.906 89.225-0.591 0-1.182-0.006-1.77-0.017l0.088 0.001zM520.483 146.711l-87.568 51.446c-2.9 1.775-6.411 2.826-10.167 2.826-0.66 0-1.312-0.032-1.955-0.096l0.081 0.006c-0.282 0.011-0.612 0.017-0.944 0.017-7.039 0-13.444-2.712-18.228-7.147l0.017 0.016-25.723-26.27h-8.757c-6.209 1.402-11.694 3.669-16.659 6.704l0.24-0.136c-10.467 5.84-19.227 11.455-27.634 17.528l0.817-0.561c-13.25 10.283-25.039 20.858-36.038 32.204l-0.084 0.087c-11.432 11.083-22.007 22.872-31.722 35.363l-0.568 0.759c-5.963 7.786-11.592 16.563-16.474 25.796l-0.492 1.022c-3.169 6.131-5.803 13.251-7.539 20.717l-0.123 0.628c-0.107 0.576-0.169 1.239-0.169 1.916s0.061 1.34 0.179 1.983l-0.010-0.067 21.892 22.439c3.787 3.771 6.497 8.62 7.631 14.048l0.032 0.181c1.054 2.336 1.669 5.064 1.669 7.936s-0.614 5.6-1.719 8.061l0.050-0.125-51.446 93.588c-2.096 3.901-4.849 7.179-8.146 9.803l-0.064 0.049c-1.549 0.555-3.337 0.876-5.199 0.876s-3.65-0.321-5.31-0.91l0.111 0.034c-5.673-0.064-10.745-2.584-14.211-6.545l-0.019-0.022-60.203-60.203c-3.382-2.698-6.009-6.205-7.604-10.232l-0.058-0.167c-2.075-3.799-3.608-8.219-4.348-12.902l-0.030-0.233s0-3.831 0-9.304c-0.281-3.359-0.441-7.271-0.441-11.22s0.16-7.86 0.475-11.728l-0.033 0.509c2.149-13.071 5.003-24.499 8.676-35.552l-0.466 1.62c6.047-17.173 12.511-31.624 19.979-45.452l-0.824 1.668c11.153-21.236 22.227-39.135 34.386-56.209l-1 1.479c17.31-21.818 35.226-41.295 54.452-59.397l0.278-0.259c22.307-23.402 46.853-44.299 73.411-62.473l1.569-1.014c18.203-12.353 39.057-23.884 60.949-33.487l2.538-0.993c13.574-6.41 29.354-11.535 45.861-14.591l1.207-0.186c8.327-1.621 17.962-2.611 27.805-2.735l0.107-0.001h8.757c4.835 1.19 9.028 2.69 13.014 4.558l-0.426-0.179c4.283 1.868 7.923 4.456 10.931 7.646l0.015 0.016 60.203 59.656c4.117 4.313 6.65 10.168 6.65 16.615 0 0.702-0.030 1.396-0.089 2.082l0.006-0.089c-0.842 7.845-5.176 14.53-11.394 18.548l-0.099 0.060zM297.184 506.288h-23.534c0 0 0 0 0-0.001 0-160.915 130.292-291.399 291.134-291.711h0.030v26.818c-0.813-0.009-1.774-0.014-2.737-0.014-146.297 0-264.894 118.597-264.894 264.894 0 0.005 0 0.010 0 0.015v-0.001zM383.111 517.781h-20.25c0-116.675 94.583-211.258 211.258-211.258v0 19.156c-105.624 0.621-191.008 86.389-191.008 192.1 0 0.001 0 0.002 0 0.004v0zM459.733 517.781h-11.493c0-69.521 56.358-125.879 125.879-125.879v0 11.493c-63.174 0-114.386 51.212-114.386 114.386v0zM1002.108 669.931c-11.853-0.306-21.345-9.987-21.345-21.885 0-12.091 9.801-21.892 21.892-21.892 12.088 0 21.888 9.797 21.892 21.885v0c0 0.002 0 0.004 0 0.007 0 12.091-9.801 21.892-21.892 21.892-0.192 0-0.384-0.002-0.576-0.007l0.028 0.001zM936.979 669.931c-12.091 0-21.892-9.801-21.892-21.892s9.801-21.892 21.892-21.892c12.091 0 21.892 9.801 21.892 21.892v0c0 12.091-9.801 21.892-21.892 21.892v0zM871.303 669.931c-12.091 0-21.892-9.801-21.892-21.892s9.801-21.892 21.892-21.892c12.091 0 21.892 9.801 21.892 21.892v0c0 12.091-9.801 21.892-21.892 21.892v0zM662.781 343.739l-6.020 187.724h-54.73c-0.326-0.006-0.71-0.010-1.095-0.010-33.552 0-60.75 27.199-60.75 60.75 0 0.003 0 0.007 0 0.010v-0.001 203.596c1.206 32.601 27.926 58.572 60.711 58.572 0.399 0 0.796-0.004 1.193-0.011l-0.059 0.001h454.26c32.331-0.58 58.462-26.329 59.653-58.451l0.003-0.11v-203.596c0-33.552-27.199-60.75-60.75-60.75v0h-226.583zM602.031 825.364c-17.294-0.308-31.196-14.4-31.196-31.739 0-0.002 0-0.003 0-0.005v0-201.407c0-0.001 0-0.003 0-0.005 0-17.339 13.902-31.431 31.167-31.738h84.861l3.831-142.298 125.879 142.298h239.718c17.531 0 31.743 14.212 31.743 31.743v0 203.596c0 17.531-14.212 31.743-31.743 31.743v0z" />
<glyph unicode="&#xe906;" glyph-name="add-partner" horiz-adv-x="1219" d="M941.358 658.985h135.731v-82.095h-135.731v-154.339h-84.832v154.339h-136.278v82.095h136.278v146.129h84.832zM440.577 478.923c0.162-0.001 0.354-0.001 0.546-0.001 97.027 0 175.684 78.656 175.684 175.684s-78.656 175.684-175.684 175.684c-97.027 0-175.684-78.656-175.684-175.684 0-0.192 0-0.384 0.001-0.576v0.030c0.31-96.6 78.536-174.826 175.107-175.136h0.030zM440.577 759.688c0.163 0.001 0.355 0.001 0.547 0.001 58.337 0 105.629-47.292 105.629-105.629s-47.292-105.629-105.629-105.629c-58.337 0-105.628 47.291-105.629 105.628v0c0 0 0 0.001 0 0.001 0 58.145 46.98 105.317 105.052 105.628h0.030zM440.577 408.321c-159.582-0.31-288.901-129.437-289.522-288.916v-35.086h579.044v35.575c-0.311 159.663-129.815 288.975-289.522 288.975 0 0 0 0-0.001 0v0zM221.657 154.373c16.483 106.002 107.108 186.175 216.458 186.175s199.974-80.172 216.3-184.944l0.158-1.231zM1075.446-64h-930.412c-0.325-0.003-0.71-0.004-1.095-0.004-79.496 0-143.94 64.444-143.94 143.94 0 0.002 0 0.003 0 0.005v0 736.12c0 79.496 64.444 143.94 143.94 143.94v0h930.412c79.496 0 143.94-64.444 143.94-143.94v0-736.12c0-0.001 0-0.003 0-0.004 0-79.111-63.822-143.316-142.786-143.936h-0.059zM143.94 905.27c-48.55-1.748-87.462-40.66-89.205-89.047l-0.005-0.163v-736.12c0-50.781 41.166-91.947 91.947-91.947v0h930.412c50.781 0 91.947 41.166 91.947 91.947v0 736.12c-1.515 49.596-42.082 89.225-91.906 89.225-0.591 0-1.182-0.006-1.77-0.017l0.088 0.001z" />
<glyph unicode="&#xe907;" glyph-name="ready" horiz-adv-x="1219" d="M351.367 456.483l-61.298-61.845 198.123-198.123 441.125 441.125-61.845 61.845-379.28-379.827-136.825 136.825zM1075.446-64h-930.412c-0.325-0.003-0.71-0.004-1.095-0.004-79.496 0-143.94 64.444-143.94 143.94 0 0.002 0 0.003 0 0.005v0 736.12c0 79.496 64.444 143.94 143.94 143.94v0h930.412c79.496 0 143.94-64.444 143.94-143.94v0-736.12c0-0.001 0-0.003 0-0.004 0-79.111-63.822-143.316-142.786-143.936h-0.059zM143.94 905.27c-48.55-1.748-87.462-40.66-89.205-89.047l-0.005-0.163v-736.12c0-50.781 41.166-91.947 91.947-91.947v0h930.412c50.781 0 91.947 41.166 91.947 91.947v0 736.12c-1.515 49.596-42.082 89.225-91.906 89.225-0.591 0-1.182-0.006-1.77-0.017l0.088 0.001z" />
<glyph unicode="&#xe908;" glyph-name="bargain" horiz-adv-x="1219" d="M214.936 461.128l-94.035-94.645 303.475-303.475 674.118 674.729-94.035 94.645-580.083-580.083-209.441 208.83zM1075.292-64h-931.187c-79.587 0-144.105 64.518-144.105 144.105v0 732.737c-0.021 0.909-0.032 1.98-0.032 3.053 0 79.587 64.518 144.105 144.105 144.105 0.011 0 0.023 0 0.034 0h931.185c0.545 0.007 1.188 0.012 1.832 0.012 79.587 0 144.105-64.518 144.105-144.105 0-0.004 0-0.008 0-0.012v0.001-735.79c0-0.004 0-0.008 0-0.012 0-79.587-64.518-144.105-144.105-144.105-0.644 0-1.287 0.004-1.929 0.013l0.098-0.001zM144.105 908.098c-50.783-0.344-91.859-41.419-92.203-92.17v-735.823c0.344-50.783 41.419-91.859 92.17-92.203h931.22c50.783 0.344 91.859 41.419 92.203 92.17v732.77c0.021 0.728 0.032 1.585 0.032 2.444 0 51.056-41.225 92.483-92.204 92.811h-0.031z" />
<glyph unicode="&#xe909;" glyph-name="ready-circle" d="M301.949 545.452l-71.195-71.7 229.744-230.249 512 512-71.7 71.7-440.3-440.805-158.548 159.053zM921.499 448c-0.861-225.508-183.869-407.984-409.496-407.984-226.16 0-409.499 183.339-409.499 409.499 0 226.159 183.337 409.497 409.496 409.499v0c0.885 0.007 1.931 0.011 2.978 0.011 39.032 0 76.771-5.536 112.475-15.866l-2.853 0.707 82.304 80.284c-57.83 21.36-124.619 34.376-194.248 35.839l-0.655 0.011c-282.77 0-512-229.23-512-512s229.23-512 512-512c282.77 0 512 229.23 512 512v0z" />
<glyph unicode="&#xe90a;" glyph-name="add-basket" horiz-adv-x="1216" d="M791.094 396.487l25.698 189.149h123.862l-20.605-128.955c13.9 2.47 29.922 3.9 46.271 3.936h0.032c0.216 0.001 0.472 0.001 0.727 0.001 21.744 0 42.896-2.532 63.178-7.316l-1.859 0.37 21.3 131.965h56.953c0 0 0 0 0 0 30.559 0 55.333 24.773 55.333 55.333 0 0.081 0 0.163-0.001 0.244v-0.013 64.13s-25.004 55.333-55.564 56.722h-23.152l104.414 103.257c8.924 9.821 14.388 22.927 14.388 37.309 0 30.687-24.877 55.564-55.564 55.564-14.382 0-27.487-5.464-37.354-14.429l0.046 0.041-269.717-270.643c-9.983-10.098-23.816-16.372-39.114-16.438h-0.012c-0.134-0.001-0.293-0.002-0.451-0.002-15.609 0-29.797 6.081-40.325 16.004l0.029-0.027c-7.239 7.163-12.126 16.692-13.406 27.33l-0.022 0.221c-1.219 22.237-19.137 39.913-41.363 40.745l-0.078 0.002h-205.124c-21.315-0.973-38.593-17.057-41.416-37.742l-0.025-0.227c-1.386-11.813-6.418-22.249-13.924-30.364l0.033 0.036c-10.565-9.897-24.811-15.975-40.478-15.975-0.095 0-0.189 0-0.284 0.001h0.015c-15.311 0.066-29.143 6.34-39.121 16.432l-0.005 0.005-269.717 270.643c-9.821 8.924-22.927 14.388-37.309 14.388-30.687 0-55.564-24.877-55.564-55.564 0-14.382 5.464-27.487 14.429-37.354l-0.041 0.046 104.414-103.025h-23.152c-31.023-1.389-54.87-56.953-54.87-56.953v-64.362c0-0.069 0-0.15 0-0.232 0-30.559 24.773-55.333 55.333-55.333 0 0 0 0 0.001 0h56.953l75.012-465.581c3.872-26.324 26.303-46.303 53.4-46.303 0.028 0 0.057 0 0.085 0h434.322c-15.349 33.072-24.302 71.785-24.302 112.59 0 83.943 37.892 159.036 97.505 209.108l0.419 0.343zM328.060 180.945l-64.825 404.692h124.325l55.101-404.692zM648.711 180.945h-93.070l-29.866 404.692h152.338zM978.623 410.842c-131.188 0-237.536-106.349-237.536-237.537s106.349-237.537 237.537-237.537c131.025 0 237.272 106.085 237.536 237.048v0.025c0.001 0.206 0.001 0.45 0.001 0.695 0 131.060-106.245 237.305-237.305 237.305-0.082 0-0.164 0-0.245 0h0.013zM1108.967 138.346h-95.617v-93.996c0.001-0.112 0.002-0.245 0.002-0.378 0-18.213-13.063-33.375-30.331-36.629l-0.232-0.036c-1.74-0.293-3.744-0.461-5.788-0.461-20.202 0-36.578 16.376-36.58 36.577v0 94.922h-92.607c-0.138-0.002-0.301-0.003-0.465-0.003-19.119 0-34.876 14.394-37.025 32.937l-0.016 0.173c-0.106 1.041-0.166 2.25-0.166 3.473 0 20.075 16.274 36.348 36.348 36.348 0.058 0 0.117 0 0.175 0h94.45v93.996c-0.001 0.077-0.001 0.168-0.001 0.259 0 19.164 14.373 34.971 32.927 37.229l0.18 0.018c0.971 0.092 2.1 0.144 3.241 0.144 20.172 0 36.53-16.327 36.58-36.487v-95.159h94.459c0.194 0.004 0.423 0.006 0.652 0.006 18.132 0 33.24-12.946 36.584-30.099l0.038-0.235c0.317-1.81 0.499-3.893 0.499-6.019 0-20.202-16.377-36.58-36.58-36.58-0.013 0-0.025 0-0.038 0h0.002z" />
<glyph unicode="&#xe90b;" glyph-name="plus" d="M512.121-64c-0.072 0-0.157 0-0.242 0-282.837 0-512.121 229.284-512.121 512.121s229.284 512.121 512.121 512.121c282.837 0 512.121-229.284 512.121-512.121 0-0.085 0-0.17 0-0.255v0.014c-0.412-282.537-229.342-511.467-511.84-511.879h-0.039zM512.121 889.396c-0.072 0-0.157 0-0.242 0-243.843 0-441.517-197.674-441.517-441.517s197.674-441.517 441.517-441.517c243.843 0 441.517 197.674 441.517 441.517v0c-0.275 243.647-197.647 441.104-441.235 441.517h-0.040zM566.766 510.504h217.615v-103.972h-217.615v-268.634h-107.357v268.634h-220.758v103.972h220.758v246.872h107.84z" />
<glyph unicode="&#xe90c;" glyph-name="prev" horiz-adv-x="578" d="M511.768-64l-511.768 512.232 511.768 511.768 65.825-65.362-446.407-446.407 446.407-446.87-65.825-65.362z" />
<glyph unicode="&#xe90d;" glyph-name="next" horiz-adv-x="578" d="M65.362-64l-65.362 65.362 446.407 446.87-446.407 446.407 65.362 65.362 512.232-511.768-512.232-512.232z" />
<glyph unicode="&#xe90e;" glyph-name="add-factory" horiz-adv-x="1601" d="M1348.925 439.565c-0.069 0-0.15 0-0.231 0-139.119 0-251.898-112.779-251.898-251.898s112.779-251.898 251.898-251.898c139.119 0 251.898 112.779 251.898 251.898 0 0.081 0 0.163 0 0.244v-0.013c-0.131 138.939-112.728 251.535-251.654 251.667h-0.013zM1487.585 150.691h-100.99v-99.604c0.003-0.183 0.005-0.399 0.005-0.616 0-19.249-13.843-35.264-32.117-38.634l-0.242-0.037c-2.293-0.484-4.928-0.761-7.627-0.761-21.315 0-38.594 17.279-38.594 38.594 0 0.105 0 0.21 0.001 0.315v-0.016 101.221h-98.679c-0.141-0.002-0.308-0.003-0.475-0.003-20.279 0-36.991 15.275-39.256 34.947l-0.017 0.183c-0.099 1.039-0.155 2.246-0.155 3.467 0 21.416 17.339 38.781 38.744 38.825h100.070v99.373c-0.004 0.203-0.006 0.442-0.006 0.682 0 20.234 15.297 36.896 34.957 39.051l0.176 0.016c1.389 0.177 2.995 0.278 4.625 0.278 21.315 0 38.594-17.279 38.594-38.594 0-0.179-0.001-0.358-0.004-0.536v0.027-100.759h99.373c0.183 0.003 0.399 0.005 0.616 0.005 19.249 0 35.264-13.843 38.634-32.117l0.037-0.242c0.452-2.224 0.711-4.78 0.711-7.396 0-21.442-17.382-38.825-38.825-38.825-0.087 0-0.175 0-0.262 0.001h0.013zM1039.946 187.898c0 0.036 0 0.078 0 0.12 0 119.965 72.489 223 176.056 267.691l1.891 0.726v163.387l-377.847-248.894v210.993l-336.018-248.663v248.663h-84.12v210.069h-83.889v-210.069h-84.12v378.078h-168.009v-336.018h-83.889v-672.036h1160.811c-73.548 53.449-120.828 139.176-120.865 235.947v0.006zM462.198 78.126h-126.18v125.949h126.18zM672.267 78.126h-126.18v125.949h125.949zM882.105 78.126h-126.18v125.949h125.949z" />
<glyph unicode="&#xe90f;" glyph-name="alarm-on" horiz-adv-x="1077" d="M537.756-64c-251.556 0-455.482 203.926-455.482 455.482s203.926 455.482 455.482 455.482c251.556 0 455.482-203.926 455.482-455.482v0c-0.276-251.445-204.038-455.206-455.456-455.482h-0.026zM537.756 733.867c-189.094 0-342.385-153.291-342.385-342.385s153.291-342.385 342.385-342.385c189.094 0 342.385 153.291 342.385 342.385v0c-0.207 189.011-153.374 342.178-342.365 342.385h-0.020zM754.060 249.565h-320.482v336.924h113.097v-223.827h207.385v-113.097zM-0.010 709.568l281.186 250.44 75.221-84.456-281.186-250.44-75.221 84.456zM720.656 875.561l75.221 84.456 281.186-250.44-75.221-84.456-281.186 250.44z" />
<glyph unicode="&#xe910;" glyph-name="check" horiz-adv-x="1302" d="M125.464 465.618l-125.464-125.998 403.62-403.62 898.536 898.002-125.998 125.998-772.538-772.538-278.156 278.156z" />
<glyph unicode="&#xe911;" glyph-name="clock" d="M512-64c-282.77 0-512 229.23-512 512s229.23 512 512 512c282.77 0 512-229.23 512-512v0c-0.226-282.679-229.321-511.774-511.978-512h-0.022zM512 832.894c-212.571 0-384.894-172.323-384.894-384.894s172.323-384.894 384.894-384.894c212.571 0 384.894 172.323 384.894 384.894v0c-0.226 212.48-172.413 384.668-384.872 384.894h-0.022zM755.091 288.72h-360.267v378.538h127.106v-251.432h233.161v-127.106z" />
<glyph unicode="&#xe912;" glyph-name="contact-list" horiz-adv-x="1004" d="M700.278 117.379h-606.537c-51.78 0.039-93.74 42.024-93.74 93.809v0 478.962c0.039 51.755 41.985 93.701 93.736 93.74h606.541c51.755-0.039 93.701-41.985 93.74-93.736v-478.966c0-51.785-41.96-93.77-93.736-93.809h-0.004zM93.74 749.917c-32.992-0.039-59.727-26.774-59.766-59.763v-478.966c0.039-32.992 26.774-59.727 59.763-59.766h606.541c32.992 0.039 59.727 26.774 59.766 59.763v478.966c-0.039 32.992-26.774 59.727-59.763 59.766h-0.004zM584.628 229.007h-375.585c-48.476 0.039-87.768 39.307-87.847 87.77v555.446c0.079 48.471 39.371 87.738 87.843 87.777h375.588c0 0 0 0 0 0 48.506 0 87.837-39.282 87.916-87.77v-555.377c-0.040-48.525-39.386-87.847-87.916-87.847v0zM209.043 942.042c-38.545-0.039-69.78-31.275-69.82-69.816v-555.373c0.039-38.545 31.275-69.78 69.816-69.82h375.588c38.52 0.039 69.741 31.236 69.82 69.743v555.446c-0.039 38.545-31.275 69.78-69.816 69.82h-0.004zM220.83 366.844h354.992v-33.697h-354.992v33.697zM220.83 476.947h354.992v-33.697h-354.992v33.697zM220.83 586.981h354.992v-33.697h-354.992v33.697zM220.83 697.084h354.992v-33.697h-354.992v33.697zM358.944 889.903h216.947v-65.244h-216.947v65.244zM220.83 908.623h101.575v-83.964h-101.575v83.964zM869.344 435.563l67.676-76.118-459.919-408.91-67.676 76.118 459.919 408.91zM936.789 495.48l67.676-76.118-58.967-52.427-67.676 76.118 58.967 52.427zM463.362-64l-74.188 4.368 4.368 74.257 69.82-78.625z" />
<glyph unicode="&#xe913;" glyph-name="aircraft" d="M344 580.8h97.6l-56 72 68.8 43.2c17.6 11.2 24 35.2 12.8 52.8s-35.2 24-52.8 12.8l-105.6-64c-9.6-6.4-16-14.4-17.6-25.6s0-20.8 8-30.4l44.8-60.8zM1011.2 350.4l-25.6 33.6h-164.8c-14.4 0-25.6 11.2-25.6 25.6s11.2 25.6 25.6 25.6h126.4l-17.6 22.4c-28.8 36.8-68.8 62.4-113.6 72h-816v-278.4h961.6c33.6 0 62.4 27.2 62.4 60.8 0 14.4-4.8 27.2-12.8 38.4zM334.4 384h-44.8c-14.4 0-25.6 11.2-25.6 25.6s11.2 25.6 25.6 25.6h44.8c14.4 0 25.6-11.2 25.6-25.6s-12.8-25.6-25.6-25.6zM505.6 384h-44.8c-14.4 0-25.6 11.2-25.6 25.6s11.2 25.6 25.6 25.6h44.8c14.4 0 25.6-11.2 25.6-25.6s-11.2-25.6-25.6-25.6zM678.4 384h-44.8c-14.4 0-25.6 11.2-25.6 25.6s11.2 25.6 25.6 25.6h44.8c14.4 0 25.6-11.2 25.6-25.6s-11.2-25.6-25.6-25.6zM966.4 206.4h-913.6c-20.8 0-38.4-17.6-38.4-38.4s17.6-38.4 38.4-38.4h915.2c20.8 0 38.4 17.6 38.4 38.4s-17.6 38.4-40 38.4z" />
<glyph unicode="&#xe914;" glyph-name="alert" d="M512 685.78c-50.644 0-91.407-40.762-91.407-91.407v-565.732c0-50.644 40.762-91.407 91.407-91.407s91.407 40.762 91.407 91.407v565.732c0 50.644-40.762 91.407-91.407 91.407v0zM550.292 28.642c0-20.999-17.293-38.292-38.292-38.292s-38.292 17.293-38.292 38.292v565.732c0 20.999 17.293 38.292 38.292 38.292s38.292-17.293 38.292-38.292v-565.732zM512 951.353c-50.644 0-91.407-40.762-91.407-91.407v-35.821c0-50.644 40.762-91.407 91.407-91.407s91.407 40.762 91.407 91.407v35.821c0 50.644-40.762 91.407-91.407 91.407v0zM550.292 825.361c0-20.999-17.293-38.292-38.292-38.292s-38.292 17.293-38.292 38.292v35.821c0 20.999 17.293 38.292 38.292 38.292s38.292-17.293 38.292-38.292v-35.821z" />
<glyph unicode="&#xe915;" glyph-name="arithmetic-symbols" d="M0 465.6h494.4v494.4h-494.4v-494.4zM140.8 748.8h70.4v70.4c0 19.2 16 35.2 35.2 35.2s35.2-16 35.2-35.2v-70.4h70.4c19.2 0 35.2-16 35.2-35.2s-16-35.2-35.2-35.2h-70.4v-70.4c0-19.2-16-35.2-35.2-35.2s-35.2 16-35.2 35.2v70.4h-70.4c-19.2 0-35.2 16-35.2 35.2s16 35.2 35.2 35.2zM529.6 960v-494.4h494.4v494.4c0 0-494.4 0-494.4 0zM883.2 678.4h-211.2c-19.2 0-35.2 16-35.2 35.2s16 35.2 35.2 35.2h211.2c19.2 0 35.2-16 35.2-35.2s-16-35.2-35.2-35.2zM529.6-64h494.4v494.4h-494.4v-494.4zM670.4 272h211.2c19.2 0 35.2-16 35.2-35.2s-16-35.2-35.2-35.2h-211.2c-19.2 0-35.2 16-35.2 35.2s16 35.2 35.2 35.2zM670.4 166.4h211.2c19.2 0 35.2-16 35.2-35.2s-16-35.2-35.2-35.2h-211.2c-19.2 0-35.2 16-35.2 35.2s16 35.2 35.2 35.2zM0-64h494.4v494.4h-494.4v-494.4zM134.4 246.4c-14.4 14.4-14.4 36.8 0 49.6 14.4 14.4 36.8 14.4 49.6 0l64-64 64 64c14.4 14.4 36.8 14.4 49.6 0 14.4-14.4 14.4-36.8 0-49.6l-64-64 64-64c14.4-14.4 14.4-36.8 0-49.6-6.4-6.4-16-9.6-25.6-9.6s-17.6 3.2-25.6 9.6l-64 64-64-64c-6.4-6.4-16-9.6-25.6-9.6s-17.6 3.2-25.6 9.6c-14.4 14.4-14.4 36.8 0 49.6l64 64-60.8 64z" />
<glyph unicode="&#xe916;" glyph-name="boat-anchor" d="M884.381 400.219l-135.134-135.070h108.611c0-46.553-14.062-90.117-42.54-130.691-28.080-40.041-66.563-72.607-115.114-97.591s-102.598-39.505-161.164-43.563v706.206h58.555c15.514 0 27.526 12.492 27.526 28.082 0 15.482-12.012 27.548-27.526 27.548h-59.559c44.547 12.492 76.077 52.533 76.077 99.087 0 28.509-10.506 53.067-31.028 73.567s-45.047 30.962-73.579 30.962c-28.53 0-53.184-10.356-73.579-30.965-20.149-20.393-30.025-45.059-30.025-73.567 0-23.598 6.887-44.205 21.024-62.571 13.891-18.153 32.032-30.112 53.559-36.517h-54.049c-15.514 0-27.526-12.066-27.526-27.548 0-15.59 12.012-28.082 27.526-28.082h57.563v-706.206c-59.057 3.522-113.064 17.617-162.66 42.602-48.999 24.56-88.26 56.912-117.121 97.591-28.689 40.362-43.041 84.565-43.543 131.654h114.121l-139.662 135.072-135.134-135.070h105.6c0.502-59.579 18.354-114.249 54.551-164.753 36.368-50.61 85.633-89.903 147.146-119.052 62.121-29.469 129.636-44.096 202.199-44.096s140.045 14.735 202.199 44.096c61.962 29.257 110.951 68.656 147.146 119.052 36.366 50.719 54.551 105.173 54.551 164.753h110.609l-139.62 135.070zM474.975 820.163c-18.76 18.258-18.653 49.116 0 68.549 19.379 20.181 49.426 19.86 69.073 0 19.389-19.647 19.518-50.077 0-68.549-19.528-18.578-49.799-18.792-69.073 0z" />
<glyph unicode="&#xe917;" glyph-name="boxes-rounded" d="M984 436.8c0 0 0 0 0 0 0 1.6 0 1.6 0 1.6s0 0 0 1.6c0 0 0 1.6 0 1.6s0 0 0 1.6c0 0 0 0 0 1.6 0 0 0 0 0 1.6 0 0 0 0 0 1.6 0 0 0 0 0 1.6 0 0 0 0 0 1.6 0 0 0 0 0 0s0 0-1.6 1.6c0 0 0 0 0 0s0 0-1.6 0c0 0 0 0-1.6 0 0 0 0 0 0 0s0 0 0 0 0 0 0 0l-212.8 100.8c-4.8 1.6-9.6 1.6-14.4 0l-4.8-1.6c0 1.6 0 3.2 0 4.8v288c0 0 0 0 0 0s0 0 0 0 0 0 0 0 0 1.6 0 1.6c0 0 0 0 0 1.6 0 0 0 1.6 0 1.6s0 0 0 1.6c0 0 0 0 0 1.6 0 0 0 0 0 1.6 0 0 0 0 0 1.6 0 0 0 0 0 1.6 0 0 0 0 0 1.6 0 0 0 0 0 0s0 0-1.6 1.6c0 0 0 0 0 0s0 0-1.6 0c0 0 0 0-1.6 0 0 0 0 0 0 0s0 0 0 0 0 0 0 0l-224 97.6c-4.8 1.6-9.6 1.6-14.4 0l-211.2-100.8c0 0 0 0 0 0s0 0 0 0 0 0 0 0 0 0-1.6 0c0 0 0 0-1.6 0 0 0 0 0-1.6 0 0 0 0 0-1.6-1.6 0 0 0 0 0-1.6 0 0 0 0 0-1.6 0 0 0 0 0-1.6 0 0 0 0 0-1.6 0 0 0 0 0-1.6 0 0 0 0 0-1.6 0 0 0 0 0-1.6 0 0 0-1.6 0-1.6s0 0 0-1.6c0 0 0-1.6 0-1.6s0 0 0 0 0 0 0 0 0 0 0 0v-288c0-1.6 0-3.2 0-3.2l-4.8 1.6c-4.8 1.6-9.6 1.6-14.4 0l-214.4-99.2c0 0 0 0 0 0s0 0 0 0 0 0 0 0 0 0-1.6 0c0 0 0 0-1.6 0 0 0 0 0-1.6 0 0-3.2 0-3.2 0-3.2s0 0 0-1.6c0 0 0 0 0-1.6 0 0 0 0 0-1.6 0 0 0 0 0-1.6 0 0 0 0 0-1.6 0 0 0 0 0-1.6 0 0 0 0 0-1.6 0 0 0-1.6 0-1.6s0 0 0-1.6c0 0 0-1.6 0-1.6s0 0 0 0 0 0 0 0 0 0 0 0v-288c0-6.4 3.2-12.8 9.6-14.4l212.8-116.8c-3.2 3.2-1.6 3.2 1.6 3.2 0 0 0 0 0 0s0 0 0 0c3.2 0 6.4 0 8 1.6l212.8 116.8c4.8 3.2 9.6 8 9.6 14.4v275.2l1.6-1.6c3.2-1.6 4.8-1.6 8-1.6 0 0 0 0 0 0s0 0 0 0c3.2 0 6.4 0 8 1.6l4.8 1.6v-276.8c0-6.4 3.2-12.8 9.6-14.4l212.8-116.8c1.6 0 4.8 0 6.4 0 0 0 0 0 0 0s0 0 0 0c3.2 0 6.4 0 8 1.6l212.8 116.8c4.8 3.2 9.6 8 9.6 14.4v288c0 0 0 0 0 0s0 0 0 0zM753.6 518.4l56-25.6-177.6-84.8-51.2 28.8 172.8 81.6zM510.4 923.2l56-25.6-177.6-84.8-51.2 28.8 172.8 81.6zM272 518.4l56-25.6-179.2-86.4-51.2 28.8 174.4 83.2zM254.4 62.4l-177.6 96v249.6l54.4-28.8v-59.2l41.6-20.8v57.6l81.6-44.8v-249.6zM272 339.2l-86.4 46.4 180.8 86.4 80-38.4-174.4-94.4zM494.4 467.2l-177.6 97.6v248l54.4-28.8v-59.2l41.6-20.8v57.6l81.6-44.8v-249.6zM512 745.6l-86.4 46.4 180.8 86.4 80-38.4-174.4-94.4zM737.6 62.4l-177.6 97.6v248l54.4-28.8v-59.2l41.6-20.8v57.6l81.6-44.8v-249.6zM753.6 339.2l-86.4 46.4 180.8 86.4 80-38.4-174.4-94.4zM932.8 539.2l62.4-22.4c-24 128-97.6 238.4-198.4 310.4v-72c65.6-56 113.6-131.2 136-216zM513.6-8c-43.2 0-84.8 6.4-124.8 17.6l-56-40c56-22.4 116.8-35.2 180.8-35.2 68.8 0 136 14.4 195.2 40l-59.2 38.4c-43.2-12.8-88-20.8-136-20.8zM246.4 769.6v68.8c-115.2-75.2-196.8-196.8-217.6-337.6l64 28.8c22.4 96 78.4 180.8 153.6 240z" />
<glyph unicode="&#xe918;" glyph-name="box-on-boxes" d="M276.8 960v-467.2h489.6v467.2h-489.6zM657.6 760h-268.8v67.2h267.2v-67.2zM11.2 425.6v-489.6h467.2v489.6h-467.2zM366.4 225.6h-243.2v67.2h244.8v-67.2zM545.6 425.6v-489.6h467.2v489.6h-467.2zM900.8 225.6h-243.2v67.2h244.8v-67.2z" />
<glyph unicode="&#xe919;" glyph-name="captain" d="M339.2 398.4c8-28.8 14.4-56 20.8-83.2 28.8-110.4 72-214.4 131.2-313.6 3.2-4.8 6.4-11.2 9.6-16 8-11.2 14.4-11.2 22.4 0 3.2 4.8 6.4 11.2 9.6 16 70.4 118.4 118.4 246.4 147.2 380.8 1.6 4.8 3.2 9.6 4.8 16 20.8-8 40-16 59.2-24 35.2-16 70.4-32 105.6-46.4 68.8-30.4 113.6-81.6 140.8-150.4 19.2-48 30.4-96 33.6-147.2 0-16-1.6-19.2-16-25.6-52.8-22.4-108.8-35.2-164.8-44.8-124.8-19.2-249.6-25.6-376-22.4-75.2 1.6-150.4 8-224 14.4-73.6 8-147.2 20.8-217.6 48-3.2 1.6-6.4 3.2-9.6 3.2-14.4 6.4-17.6 9.6-16 25.6 1.6 51.2 14.4 99.2 32 145.6 27.2 70.4 75.2 121.6 144 152 51.2 22.4 102.4 44.8 155.2 67.2 3.2 3.2 4.8 4.8 8 4.8zM256 643.2c171.2 0 342.4 0 516.8 0-1.6-81.6-33.6-147.2-96-198.4-81.6-67.2-195.2-76.8-288-27.2-100.8 56-137.6 160-132.8 225.6zM254.4 817.6c0 27.2 0 51.2 0 76.8 0 9.6 6.4 11.2 14.4 11.2 27.2 3.2 52.8 4.8 80 6.4 68.8 6.4 136 12.8 204.8 19.2 51.2 4.8 102.4 9.6 153.6 12.8 52.8 4.8 104 9.6 156.8 14.4 8 0 16 1.6 24 1.6 4.8 0 12.8-1.6 14.4-4.8s0-11.2-3.2-14.4c-27.2-36.8-56-72-83.2-108.8-8-11.2-17.6-16-32-16-172.8 0-344 0-516.8 0-4.8 1.6-8 1.6-12.8 1.6zM254.4 771.2c14.4 0 28.8 0 41.6 0 168 0 336 0 504 0 6.4 0 12.8-3.2 17.6-6.4 24-17.6 46.4-36.8 70.4-54.4 4.8-4.8 11.2-9.6 6.4-16-3.2-4.8-9.6-8-16-8-201.6 0-404.8 0-606.4 0-14.4 0-17.6 3.2-17.6 17.6 0 20.8 0 43.2 0 67.2zM510.4 25.6c-14.4 28.8-30.4 59.2-44.8 88-1.6 3.2-1.6 8-1.6 12.8 3.2 19.2 8 38.4 12.8 57.6 1.6 6.4 4.8 9.6 11.2 9.6 16 0 32 0 48 0 6.4 0 9.6-3.2 11.2-9.6 4.8-19.2 9.6-38.4 12.8-57.6 0-3.2 1.6-8 0-11.2-16-30.4-30.4-59.2-46.4-89.6 0 0-1.6 0-3.2 0zM513.6 291.2c12.8 0 25.6 0 38.4 0 8 0 11.2-4.8 9.6-12.8-3.2-19.2-8-38.4-11.2-57.6-1.6-8-4.8-11.2-12.8-11.2-16 0-32 0-49.6 0-6.4 0-11.2 3.2-11.2 9.6-3.2 19.2-8 40-11.2 59.2-1.6 8 1.6 11.2 9.6 11.2 12.8 1.6 25.6 1.6 38.4 1.6z" />
<glyph unicode="&#xe91a;" glyph-name="cargo" d="M982.4 384h-940.8c-6.4 0-9.6-1.6-9.6-8v-428.8c0-6.4 4.8-11.2 9.6-11.2h939.2c8 0 9.6 6.4 9.6 12.8v427.2c1.6 6.4-1.6 8-8 8zM256 59.2c0-9.6-12.8-16-24-16-9.6 0-24 8-24 16v203.2c0 9.6 12.8 16 24 16 9.6 0 24-8 24-16v-203.2zM432 59.2c0-9.6-4.8-16-16-16s-16 8-16 16v203.2c0 9.6 4.8 16 16 16s16-8 16-16v-203.2zM624 59.2c0-9.6-4.8-16-16-16s-16 8-16 16v203.2c0 9.6 4.8 16 16 16s16-8 16-16v-203.2zM816 59.2c0-9.6-12.8-16-24-16s-24 8-24 16v203.2c0 9.6 12.8 16 24 16s24-8 24-16v-203.2zM124.8 404.8c6.4-6.4 16-6.4 22.4 0l230.4 228.8c6.4 6.4 6.4 16 0 22.4l-1.6 1.6c-6.4 6.4-16 6.4-22.4 0l-230.4-228.8c-4.8-6.4-4.8-16 1.6-24v0zM646.4 657.6v0c-6.4-6.4-6.4-17.6-1.6-24l230.4-228.8c6.4-6.4 16-6.4 22.4 0l1.6 1.6c8 8 8 16 0 22.4l-230.4 228.8c-4.8 6.4-16 6.4-22.4 0zM518.4 683.2c-14.4 0-30.4 9.6-36.8 22.4-11.2 22.4-36.8 33.6-59.2 22.4-22.4-9.6-33.6-35.2-22.4-57.6 20.8-44.8 65.6-73.6 116.8-73.6 68.8 0 126.4 54.4 128 120 0 41.6-20.8 83.2-52.8 99.2h33.6c6.4 0 9.6 8 11.2 12.8 0 0 35.2 52.8 35.2 70.4 0 12.8 0 51.2 0 51.2 0 4.8-3.2 9.6-8 9.6h-244.8c-6.4 0-3.2-4.8-3.2-11.2 0 0 0-38.4 0-51.2 0-16 32-68.8 32-68.8 0-4.8 1.6-12.8 8-12.8h43.2c-1.6 0-3.2-1.6-3.2-6.4v-4.8c0-12.8 6.4-25.6 16-32 4.8-6.4 11.2-11.2 19.2-14.4 14.4-4.8 25.6-19.2 25.6-36.8 1.6-20.8-17.6-38.4-38.4-38.4z" />
<glyph unicode="&#xe91b;" glyph-name="cargo-big-ship" d="M652.173 365.862c-26.014 0-47.178-21.168-47.178-47.184s21.162-47.184 47.178-47.184c26.016 0 47.178 21.168 47.178 47.184s-21.162 47.184-47.178 47.184zM652.175 302.841c-8.728 0-15.832 7.106-15.832 15.838s7.102 15.838 15.832 15.838c8.728 0 15.832-7.106 15.832-15.838-0.002-8.734-7.102-15.838-15.832-15.838zM758.347 365.862c-26.014 0-47.178-21.168-47.178-47.184s21.162-47.184 47.178-47.184c26.014 0 47.176 21.168 47.176 47.184s-21.162 47.184-47.176 47.184zM758.347 302.841c-8.728 0-15.832 7.106-15.832 15.838s7.1 15.838 15.832 15.838c8.728 0 15.83-7.106 15.83-15.838s-7.1-15.838-15.83-15.838zM864.517 365.862c-26.014 0-47.178-21.168-47.178-47.184s21.166-47.184 47.178-47.184c26.014 0 47.178 21.168 47.178 47.184s-21.164 47.184-47.178 47.184zM864.517 302.841c-8.728 0-15.832 7.106-15.832 15.838s7.102 15.838 15.832 15.838c8.73 0 15.832-7.106 15.832-15.838s-7.1-15.838-15.832-15.838zM146.915 235.473c-2.904 2.926-6.958 4.598-11.076 4.598-4.138 0-8.17-1.672-11.076-4.598-2.926-2.904-4.598-6.958-4.598-11.076s1.672-8.172 4.598-11.076c2.904-2.926 6.938-4.598 11.076-4.598 4.116 0 8.172 1.672 11.076 4.598 2.926 2.904 4.598 6.958 4.598 11.076s-1.672 8.172-4.598 11.076zM247.223 235.473c-2.904 2.926-6.958 4.598-11.076 4.598s-8.172-1.672-11.076-4.598c-2.926-2.904-4.598-6.958-4.598-11.076s1.672-8.172 4.598-11.076c2.904-2.926 6.958-4.598 11.076-4.598s8.17 1.672 11.076 4.598c2.926 2.904 4.598 6.958 4.598 11.076s-1.672 8.172-4.598 11.076zM347.531 235.473c-2.904 2.926-6.958 4.598-11.076 4.598s-8.17-1.672-11.076-4.598c-2.926-2.904-4.598-6.958-4.598-11.076s1.672-8.172 4.598-11.076c2.904-2.926 6.958-4.598 11.076-4.598s8.17 1.672 11.076 4.598c2.926 2.904 4.598 6.958 4.598 11.076s-1.672 8.172-4.598 11.076zM447.838 235.473c-2.904 2.926-6.958 4.598-11.076 4.598-4.138 0-8.17-1.672-11.076-4.598-2.926-2.904-4.598-6.958-4.598-11.076s1.672-8.172 4.598-11.076c2.904-2.926 6.938-4.598 11.076-4.598 4.116 0 8.172 1.672 11.076 4.598 2.926 2.904 4.598 6.958 4.598 11.076s-1.672 8.172-4.598 11.076zM548.146 235.473c-2.904 2.926-6.958 4.598-11.076 4.598-4.116 0-8.17-1.672-11.076-4.598-2.926-2.904-4.598-6.958-4.598-11.076 0-4.138 1.672-8.172 4.598-11.076 2.904-2.926 6.958-4.598 11.076-4.598 4.138 0 8.172 1.672 11.076 4.598 2.926 2.904 4.598 6.938 4.598 11.076 0 4.118-1.672 8.172-4.598 11.076zM648.453 235.473c-2.904 2.926-6.938 4.598-11.076 4.598s-8.17-1.672-11.076-4.598c-2.926-2.904-4.598-6.938-4.598-11.076s1.672-8.17 4.598-11.076c2.904-2.926 6.958-4.598 11.076-4.598 4.138 0 8.172 1.672 11.076 4.598 2.926 2.904 4.598 6.938 4.598 11.076s-1.672 8.172-4.598 11.076zM748.761 235.473c-2.904 2.926-6.958 4.598-11.076 4.598-4.116 0-8.17-1.672-11.076-4.598-2.926-2.904-4.598-6.958-4.598-11.076 0-4.138 1.672-8.172 4.598-11.076 2.904-2.926 6.958-4.598 11.076-4.598 4.138 0 8.172 1.672 11.076 4.598 2.926 2.904 4.598 6.938 4.598 11.076 0 4.118-1.672 8.172-4.598 11.076zM849.069 235.473c-2.904 2.926-6.938 4.598-11.076 4.598-4.116 0-8.17-1.672-11.076-4.598-2.926-2.904-4.598-6.958-4.598-11.076s1.672-8.172 4.598-11.076c2.904-2.926 6.958-4.598 11.076-4.598s8.17 1.672 11.076 4.598c2.926 2.904 4.598 6.958 4.598 11.076s-1.672 8.172-4.598 11.076zM843.561 38.39c-5.674 6.536-15.572 7.238-22.11 1.564-18.162-15.766-41.414-24.446-65.476-24.446-29.464 0-57.298 12.934-76.372 35.484-2.978 3.522-7.356 5.552-11.968 5.552s-8.988-2.032-11.968-5.552c-19.074-22.55-46.908-35.484-76.372-35.484-24.908 0-48.776 9.228-67.21 25.988-6.406 5.824-16.316 5.354-22.14-1.054-5.824-6.406-5.352-16.316 1.054-22.14 24.214-22.016 55.572-34.14 88.296-34.14 32.928 0 64.296 12.284 88.344 34.176 24.048-21.892 55.418-34.176 88.338-34.176 31.608 0 62.158 11.406 86.022 32.12 6.536 5.672 7.236 15.57 1.562 22.108zM324.405 52.836c-6.608 5.588-16.498 4.762-22.088-1.846-19.074-22.55-46.908-35.484-76.372-35.484s-57.298 12.934-76.372 35.484c-5.59 6.608-15.476 7.438-22.088 1.846-6.61-5.59-7.436-15.478-1.846-22.088 25.042-29.608 61.602-46.586 100.306-46.586s75.264 16.98 100.306 46.586c5.59 6.61 4.762 16.498-1.846 22.088zM1020.656 406.802c-4.078 6.376-11.122 10.030-19.332 10.030h-14.824v65.066c0 14.404-11.718 26.122-26.122 26.122h-39.080v74.86c0 14.404-11.718 26.122-26.122 26.122h-339.141v60.756c0 15.098-12.284 27.382-27.382 27.382h-4l-19.458 33.71c10.924 7.81 18.078 20.568 18.078 34.99 0 18.188-11.36 33.74-27.342 40.020v41.116l10.326 1.53c9.984 1.478 17.512 10.202 17.512 20.296v10.566c0 10.946-8.906 19.852-19.852 19.852h-223.723c-4.584 7.55-12.86 12.622-22.32 12.622h-107.404c-14.404 0-26.122-11.72-26.122-26.122v-69.69c0-14.404 11.718-26.122 26.122-26.122h12.7v-344.675h-18.992c-14.404 0-26.122-11.718-26.122-26.122v-9.97h-35.684c-14.402 0-26.122-11.718-26.122-26.122v-59.69h-32.964c-7.898 0-14.89-3.466-19.186-9.51-4.296-6.046-5.27-13.79-2.672-21.25l62.774-180.207c-4.908-0.74-9.896-1.148-14.936-1.148-8.656 0-15.674-7.018-15.674-15.674s7.018-15.674 15.674-15.674c32.92 0 64.292 12.286 88.338 34.176 24.048-21.89 55.42-34.176 88.338-34.176 32.92 0 64.292 12.286 88.338 34.176 24.048-21.89 55.42-34.176 88.34-34.176s64.292 12.286 88.34 34.176c24.048-21.89 55.418-34.176 88.338-34.176s64.292 12.286 88.34 34.176c24.048-21.89 55.42-34.176 88.338-34.176 32.92 0 64.292 12.286 88.338 34.176 24.048-21.89 55.42-34.176 88.338-34.176 8.656 0 15.674 7.018 15.674 15.674s-7.018 15.674-15.674 15.674c-12.024 0-23.766 2.188-34.764 6.272l54.144 117.050c3.634 7.858 0.212 17.172-7.644 20.806-7.86 3.636-17.172 0.212-20.806-7.644l-23.656-51.14h-621.982c-8.656 0-15.674-7.018-15.674-15.674s7.018-15.674 15.674-15.674h607.486l-14.926-32.266c-5.126 4.080-9.908 8.658-14.22 13.756-2.978 3.522-7.356 5.552-11.968 5.552s-8.99-2.032-11.968-5.552c-19.072-22.552-46.908-35.486-76.372-35.486s-57.298 12.934-76.372 35.486c-2.978 3.522-7.356 5.552-11.968 5.552s-8.99-2.032-11.968-5.552c-19.072-22.552-46.908-35.486-76.372-35.486s-57.298 12.934-76.372 35.486c-2.978 3.522-7.356 5.552-11.968 5.552s-8.99-2.032-11.968-5.552c-19.072-22.552-46.908-35.486-76.372-35.486s-57.298 12.934-76.372 35.486c-2.978 3.522-7.356 5.552-11.968 5.552s-8.99-2.032-11.966-5.552c-19.074-22.552-46.908-35.486-76.372-35.486s-57.302 12.934-76.372 35.486c-2.978 3.522-7.356 5.552-11.968 5.552s-8.99-2.032-11.968-5.552c-8.86-10.476-19.626-18.846-31.554-24.836l-15.098 43.346h123.724c8.656 0 15.674 7.018 15.674 15.674s-7.018 15.674-15.674 15.674h-134.645l-33.242 95.43h503.13c11.902 0 24.166 7.84 29.156 18.638l34.27 74.080c0.286 0.288 0.844 0.646 1.224 0.784h384.726l-35.706-77.19c-3.634-7.858-0.212-17.172 7.646-20.806 7.856-3.634 17.17-0.212 20.806 7.646l41.584 89.9c3.448 7.454 3.084 15.386-0.996 21.764zM118.056 323.33h-30.458v54.466h30.458v-54.466zM731.999 577.655h157.949v-69.634h-157.949v69.634zM524.688 665.793v-81.814h-88.858v81.814h88.858zM472.058 697.139l8.2 14.206 8.2-14.206h-16.4zM480.26 777.515c6.434 0 11.67-5.236 11.67-11.676 0-6.438-5.234-11.678-11.67-11.678s-11.672 5.24-11.672 11.678c0.002 6.438 5.238 11.676 11.672 11.676zM283.997 867.872h139.123l-139.123-20.618v20.618zM155.695 821.255v59.24h96.956v-59.24h-96.956zM194.515 632.943v16.718h19.314v-16.718h-19.314zM213.829 601.597v-14.628h-19.314v14.628h19.314zM194.515 681.007v16.718h19.314v-16.718h-19.314zM194.515 729.071v16.718h19.314v-16.718h-19.314zM194.515 777.135v12.772h19.312v-12.772h-19.312zM258.943 323.332h-109.54v90.558h109.54v-90.558zM322.849 323.332h-32.56v54.464h32.56v-54.464zM324.163 481.902v-72.762h-33.874v9.97c0 14.404-11.718 26.122-26.122 26.122h-18.992v19.482c0 8.656-7.018 15.674-15.674 15.674s-15.674-7.018-15.674-15.674v-19.482h-19.314v110.386h19.312v-28.212c0-8.656 7.018-15.674 15.674-15.674s15.674 7.018 15.674 15.674v262.501h12.702c14.246 0 25.846 11.468 26.098 25.656l180.615 26.768v-36.468c-15.982-6.284-27.344-21.834-27.344-40.020 0-14.424 7.158-27.182 18.080-34.99l-19.458-33.71h-4c-15.098 0-27.382-12.284-27.382-27.382v-89.742c0-15.098 12.284-27.382 27.382-27.382h22.702v-44.612h-104.282c-14.406-0.002-26.124-11.72-26.124-26.124zM570.25 407.038h-45.716c-8.656 0-15.674-7.018-15.674-15.674s7.018-15.674 15.674-15.674h38.144l-23.86-51.58c-0.286-0.288-0.844-0.646-1.224-0.784h-183.397v52.364h105.558c8.656 0 15.674 7.018 15.674 15.674s-7.018 15.674-15.674 15.674h-104.244v69.634h214.739v-69.634zM485.914 508.022v44.612h42.74c14.302-0.002 26.062 11.026 27.262 25.022h144.737v-69.634h-214.739zM816.335 416.834h-214.091c-0.216 0-0.43-0.020-0.648-0.028v59.87h214.739v-59.842zM955.152 416.834h-107.472v59.842h107.472v-59.842z" />
<glyph unicode="&#xe91c;" glyph-name="cargo-ship" d="M950.857 146.286c-10.099 0-18.286-8.187-18.286-18.286 0-50.411-41.017-91.429-91.429-91.429s-91.429 41.017-91.429 91.429c0 10.099-8.187 18.286-18.286 18.286s-18.286-8.187-18.286-18.286c0-50.411-41.017-91.429-91.429-91.429s-91.429 41.017-91.429 91.429c0 10.099-8.187 18.286-18.286 18.286s-18.286-8.187-18.286-18.286c0-50.411-41.017-91.429-91.429-91.429s-91.429 41.017-91.429 91.429c0 10.099-8.187 18.286-18.286 18.286s-18.286-8.187-18.286-18.286c0-50.411-41.017-91.429-91.429-91.429s-91.429 41.017-91.429 91.429c0 10.099-8.187 18.286-18.286 18.286s-18.286-8.187-18.286-18.286c0-70.583 57.417-128 128-128 46.592 0 87.322 25.098 109.714 62.412 22.392-37.308 63.122-62.412 109.714-62.412s87.322 25.098 109.714 62.412c22.392-37.308 63.122-62.412 109.714-62.412s87.322 25.098 109.714 62.412c22.392-37.308 63.122-62.412 109.714-62.412 70.583 0 128 57.417 128 128 0 10.099-8.187 18.286-18.286 18.286zM79.527 182.857h864.946c6.849 0 13.124 3.83 16.259 9.921 41.394 80.488 63.269 171.901 63.269 264.364 0 10.099-8.187 18.286-18.286 18.286h-109.714v91.429c0 10.099-8.187 18.286-18.286 18.286h-91.429v91.429c0 10.099-8.187 18.286-18.286 18.286h-219.429c-10.099 0-18.286-8.187-18.286-18.286v-91.429h-18.286c-10.099 0-18.286-8.187-18.286-18.286v-91.429h-201.143v219.429c0 10.099-8.187 18.286-18.286 18.286h-73.143v182.857h-36.571v-182.857h-73.143c-10.099 0-18.286-8.187-18.286-18.286v-219.429h-54.857c-10.099 0-18.286-8.187-18.286-18.286 0-92.463 21.875-183.876 63.269-264.364 3.135-6.092 9.409-9.921 16.259-9.921zM859.429 548.571v-73.143h-146.286v73.143h146.286zM566.857 658.286h182.857v-73.143h-182.857v73.143zM530.286 548.571h146.286v-73.143h-146.286v73.143zM109.714 676.571h146.286v-201.143h-146.286v201.143zM91.429 438.857h895.697c-2.544-76.617-21.034-151.902-53.948-219.429h-842.355c-32.909 67.527-51.404 142.811-53.948 219.429h54.554zM146.286 640h20.898v-10.449h-20.898v10.449zM146.286 585.143h20.898v-10.449h-20.898v10.449z" />
<glyph unicode="&#xe91d;" glyph-name="case" d="M898.795 717.974h-165.45v68.192c0 69.31-55.895 125.205-125.205 125.205h-193.397c-69.31 0-125.205-55.895-125.205-125.205v-68.192h-165.45c-69.31 0-125.205-55.895-125.205-125.205v-484.052c0-69.31 55.895-125.205 125.205-125.205h773.59c69.31 0 125.205 55.895 125.205 125.205v484.052c1.118 68.192-54.777 125.205-124.087 125.205zM414.742 854.358h193.397c38.009 0 68.192-31.301 68.192-68.192v-68.192h-330.9v68.192c1.118 38.009 32.419 68.192 69.31 68.192zM898.795 40.524h-773.59c-38.009 0-68.192 31.301-68.192 68.192v484.052c0 38.009 31.301 68.192 68.192 68.192h773.59c38.009 0 68.192-31.301 68.192-68.192v-484.052c1.118-38.009-30.183-68.192-68.192-68.192zM318.603 554.76c-15.651 0-27.948-12.297-27.948-27.948v-357.729c0-15.651 12.297-27.948 27.948-27.948s27.948 12.297 27.948 27.948v357.729c0 14.533-13.415 27.948-27.948 27.948zM704.279 554.76c-15.651 0-27.948-12.297-27.948-27.948v-357.729c0-15.651 12.297-27.948 27.948-27.948s27.948 12.297 27.948 27.948v357.729c0 14.533-12.297 27.948-27.948 27.948z" />
<glyph unicode="&#xe91e;" glyph-name="certificates" d="M110.799-64c-17.96 0-32.751 14.791-32.751 32.751v848.095c0 17.96 14.791 32.751 32.751 32.751h96.14c17.96 0 32.751-14.791 32.751-32.751s-14.791-32.751-32.751-32.751h-63.389v-782.593h736.9v782.593h-209.449c-17.96 0-32.751 14.791-32.751 32.751v77.652h-252.5v-134.702h202.317c17.96 0 32.751-14.791 32.751-32.751s-14.791-32.751-32.751-32.751h-235.068c-17.96 0-32.751 14.791-32.751 32.751v200.204c0.264 17.96 14.791 32.751 33.015 32.751h317.738c17.96 0 32.751-14.791 32.751-32.751v-77.652h209.449c17.96 0 32.751-14.791 32.751-32.751v-848.095c0-17.96-14.791-32.751-32.751-32.751h-802.402zM455.742 244.494c-8.716 0-17.168 3.434-23.243 9.773l-91.65 92.443c-6.075 6.339-9.508 14.527-9.508 23.243s3.434 16.904 9.773 22.979c6.339 6.075 14.527 9.508 23.243 9.508s16.904-3.434 23.243-9.773l68.672-68.936 180.923 179.603c6.339 6.075 14.527 9.508 23.243 9.508s17.168-3.434 23.243-9.773c12.678-12.942 12.678-33.808-0.264-46.485l-204.43-202.581c-6.075-6.075-14.263-9.508-23.243-9.508z" />
<glyph unicode="&#xe91f;" glyph-name="coin" d="M0 808.914c0-78.78 135.82-120 269.999-120s269.999 41.22 269.999 120c0 157.558-539.999 157.558-539.999 0zM269.999 628.915c-97.098 0-269.999 28.446-269.999 120v-60c0-78.6 135.6-120 269.999-120s269.999 41.4 269.999 120v60c0-91.468-172.086-120-269.999-120zM269.999 388.915c-134.4 0-269.999 41.4-269.999 120v-60c0-78.6 135.6-120 269.999-120s269.999 41.4 269.999 120v60c0-78.6-135.6-120-269.999-120zM269.999 268.915c-134.4 0-269.999 41.4-269.999 120v-60c0-78.6 135.6-120 269.999-120s269.999 41.4 269.999 120v60c0-78.6-135.6-120-269.999-120zM269.999 148.916c-134.4 0-269.999 41.4-269.999 120v-60c0-78.6 135.6-120 269.999-120s269.999 41.4 269.999 120v60c0-78.6-135.6-120-269.999-120zM269.999 28.916c-134.4 0-269.999 41.4-269.999 120v-60c0-78.6 135.6-120 269.999-120s269.999 41.4 269.999 120v60c0-78.6-135.6-120-269.999-120zM269.999 508.915c-134.4 0-269.999 41.4-269.999 120v-60c0-91.554 172.902-120 269.999-120 116.396 0 233.4 31.202 262.799 90 4.798 9 7.2 19.2 7.2 30v60c0-78.6-135.6-120-269.999-120zM749.999 28.916c-55.224 0-110.112 7.368-156.254 21.060-5.97-18.666-16.29-35.306-30.014-50.108 50.8-20.428 118.646-30.952 186.27-30.952 134.4 0 273.999 41.4 273.999 120v60c-0.002-78.6-139.602-120-274.001-120zM749.999 268.915c-52.75 0-105.212 6.73-150 19.214 0-33.714 0-26.468 0-60.184 44.802-12.458 97.338-19.032 150-19.032 134.4 0 273.999 41.4 273.999 120v60c0-91.552-176.902-119.998-273.999-119.998zM749.999 148.916c-52.91 0-105.102 7.134-150 19.75 0-22.236 0-8.77 0-60.304 44.722-12.626 97.12-19.446 150-19.446 97.914 0 273.999 28.534 273.999 120v60c0-78.6-139.6-120-273.999-120zM599.999 548.491v-199.684c44.81-12.74 97.016-19.892 150-19.892 134.18 0 273.999 41.22 273.999 120 0 109.69-265.107 142.69-423.999 99.576z" />
<glyph unicode="&#xe920;" glyph-name="earth-in-tv" d="M1000 865.6c-16 16-36.8 25.6-59.2 25.6h-856c-24 0-43.2-8-59.2-25.6-17.6-16-25.6-36.8-25.6-59.2v-580.8c0-24 8-43.2 25.6-59.2 16-16 36.8-25.6 59.2-25.6h289.6c0-14.4-3.2-27.2-8-41.6s-11.2-25.6-16-36.8c-4.8-11.2-8-17.6-8-24 0-9.6 3.2-16 9.6-24 6.4-6.4 16-9.6 24-9.6h273.6c9.6 0 16 3.2 24 9.6 6.4 6.4 9.6 16 9.6 24 0 4.8-3.2 12.8-8 24s-11.2 24-16 36.8c-4.8 14.4-8 27.2-8 41.6h289.6c24 0 43.2 8 59.2 25.6 16 16 25.6 36.8 25.6 59.2v580.8c0 22.4-8 43.2-25.6 59.2v0zM956.8 360c0-4.8-1.6-8-4.8-12.8-3.2-3.2-6.4-4.8-12.8-4.8h-854.4c-4.8 0-8 1.6-12.8 4.8-3.2 3.2-4.8 6.4-4.8 12.8v444.8c0 4.8 1.6 8 4.8 12.8 3.2 3.2 6.4 4.8 12.8 4.8h854.4c4.8 0 8-1.6 12.8-4.8 3.2-3.2 4.8-6.4 4.8-12.8v-444.8zM512 374.4c112 0 204.8 91.2 204.8 204.8s-91.2 203.2-204.8 203.2-204.8-91.2-204.8-204.8 91.2-203.2 204.8-203.2zM334.4 566.4h67.2c1.6-25.6 4.8-48 9.6-68.8-16-4.8-30.4-12.8-43.2-20.8-19.2 24-30.4 56-33.6 89.6zM366.4 681.6c12.8-8 27.2-16 43.2-20.8-4.8-22.4-8-46.4-9.6-68.8h-67.2c4.8 33.6 16 64 33.6 89.6zM689.6 592h-67.2c-1.6 25.6-4.8 48-9.6 68.8 16 4.8 30.4 12.8 43.2 20.8 19.2-25.6 30.4-56 33.6-89.6zM657.6 475.2c-12.8 8-27.2 16-43.2 20.8 4.8 22.4 8 46.4 9.6 68.8h67.2c-4.8-32-16-64-33.6-89.6zM499.2 512c-22.4-1.6-43.2-4.8-62.4-8-4.8 19.2-6.4 40-8 62.4h70.4v-54.4zM499.2 484.8v-81.6c-27.2 9.6-46.4 46.4-56 73.6 16 4.8 36.8 8 56 8zM524.8 403.2v81.6c19.2-1.6 36.8-3.2 56-6.4-9.6-28.8-27.2-65.6-56-75.2zM524.8 512v54.4h70.4c-1.6-22.4-4.8-43.2-8-62.4-19.2 3.2-40 6.4-62.4 8zM595.2 592h-70.4v52.8c22.4 1.6 43.2 4.8 62.4 8 6.4-17.6 8-40 8-60.8zM524.8 673.6v81.6c27.2-9.6 46.4-46.4 56-73.6-16-6.4-36.8-8-56-8zM499.2 753.6v-81.6c-19.2 1.6-36.8 3.2-56 6.4 9.6 28.8 27.2 65.6 56 75.2zM499.2 644.8v-54.4h-70.4c1.6 22.4 4.8 43.2 8 62.4 19.2-3.2 40-6.4 62.4-8zM385.6 454.4c9.6 4.8 20.8 11.2 33.6 16 6.4-19.2 16-38.4 27.2-56-24 8-44.8 22.4-60.8 40zM577.6 412.8c12.8 16 20.8 36.8 27.2 56 12.8-4.8 24-9.6 33.6-16-16-16-36.8-30.4-60.8-40zM638.4 702.4c-9.6-4.8-20.8-11.2-33.6-16-6.4 19.2-16 38.4-27.2 56 24-8 44.8-22.4 60.8-40zM446.4 744c-12.8-16-20.8-36.8-27.2-56-12.8 4.8-24 9.6-33.6 16 16 16 36.8 30.4 60.8 40z" />
<glyph unicode="&#xe921;" glyph-name="earth-mark" d="M923.2 488c-30.4-35.2-60.8-72-81.6-123.2-9.6-24-32-38.4-57.6-38.4s-48 16-59.2 40c-24 59.2-60.8 100.8-97.6 139.2-9.6 9.6-17.6 19.2-27.2 30.4 0 0 0 0-1.6 0-35.2-11.2-62.4-56-46.4-94.4 11.2-25.6 88-20.8 81.6-76.8-4.8-44.8 54.4-57.6 75.2-54.4s54.4-35.2 36.8-51.2c-16-16-46.4-17.6-41.6-59.2 1.6-12.8 38.4-11.2 38.4-28.8 0-19.2-19.2-40-4.8-60.8 3.2-4.8 6.4-8 9.6-11.2-72-65.6-166.4-105.6-270.4-105.6-220.8 0-400 177.6-400 396.8 0 67.2 16 129.6 46.4 184 0-72 38.4-131.2 56-148.8 59.2-57.6 144-40 155.2-88s-57.6-49.6-54.4-86.4c4.8-36.8 94.4-48 75.2-81.6-27.2-46.4 17.6-49.6 4.8-105.6-6.4-30.4 38.4-36.8 54.4-12.8 12.8 17.6 9.6 40 35.2 67.2 30.4 33.6 104 38.4 94.4 92.8-14.4 91.2-102.4 104-140.8 126.4-43.2 24-33.6 81.6-43.2 108.8-12.8 38.4-57.6-11.2-81.6 11.2-40 36.8 6.4 89.6 40 88 70.4-1.6 91.2-70.4 116.8-67.2 25.6 1.6 41.6 36.8 46.4 56 9.6 40-16 22.4-25.6 43.2-12.8 28.8 48 54.4 72 75.2 3.2 3.2 6.4 6.4 8 9.6 6.4 14.4-1.6 24-17.6 33.6-32 19.2-89.6 33.6-91.2 64-1.6 17.6 33.6 27.2 73.6 28.8 6.4 0 12.8-1.6 19.2-1.6 3.2 19.2 8 36.8 16 54.4-19.2 3.2-38.4 3.2-57.6 3.2-251.2-1.6-456-204.8-456-454.4 0-251.2 204.8-454.4 456-454.4s456 203.2 456 454.4c0 33.6-3.2 65.6-11.2 97.6zM761.6 958.4c-129.6-11.2-217.6-136-195.2-262.4 22.4-128 142.4-168 201.6-312 4.8-12.8 24-12.8 28.8 0 65.6 160 204.8 192 204.8 358.4 0 126.4-108.8 228.8-240 216zM782.4 625.6c-64 0-116.8 51.2-116.8 115.2s51.2 115.2 116.8 115.2c64 0 116.8-51.2 116.8-115.2 0-62.4-52.8-115.2-116.8-115.2z" />
<glyph unicode="&#xe922;" glyph-name="factory" d="M110.4-8c0 188.8 0 376 0 566.4 4.8 0 9.6 0 12.8 0 30.4 0 57.6 0 88 0 14.4 0 22.4 6.4 22.4 17.6 0 12.8-8 19.2-24 19.2-32 0-65.6 0-97.6 0-20.8 0-25.6 4.8-25.6 25.6 0 17.6 0 35.2 0 54.4 0 16 6.4 22.4 22.4 22.4 65.6 0 132.8 0 198.4 0 14.4 0 22.4-6.4 22.4-22.4 0-19.2 0-38.4 0-56 0-11.2-3.2-19.2-14.4-22.4-3.2-1.6-4.8-4.8-4.8-6.4-1.6-1.6 0-4.8 0-4.8 0-152 0-304 0-456 0-11.2 1.6-20.8 12.8-22.4 12.8-4.8 24 4.8 24 20.8 0 36.8 0 73.6 0 110.4 0 44.8 0 89.6 0 134.4 0 4.8 3.2 11.2 4.8 12.8 64 46.4 126.4 91.2 190.4 137.6 0 0 1.6 0 3.2 1.6 0-3.2 1.6-4.8 1.6-8 0-35.2 0-70.4 0-104 0-6.4-1.6-12.8-8-14.4-3.2-1.6-4.8-3.2-4.8-4.8-11.2-8-12.8-17.6-6.4-27.2s17.6-11.2 28.8-4.8c24 17.6 48 35.2 73.6 52.8 38.4 27.2 75.2 54.4 112 80 1.6 1.6 4.8 3.2 8 4.8 0-14.4 0-30.4 0-43.2 0-8 0-17.6 0-25.6 0-19.2-3.2-30.4-20.8-38.4-12.8-6.4-12.8-17.6-6.4-27.2s17.6-11.2 28.8-3.2c51.2 36.8 102.4 73.6 153.6 108.8 12.8 9.6 28.8 20.8 44.8 30.4 0-169.6 0-339.2 0-507.2 4.8 0 6.4-1.6 11.2-1.6 12.8-1.6 22.4-12.8 24-24 1.6-12.8-6.4-24-19.2-28.8-3.2-3.2-8-3.2-14.4-3.2-294.4 0-587.2 0-881.6 0-17.6 0-30.4 8-32 22.4-3.2 12.8 4.8 25.6 16 30.4 4.8 1.6 9.6 3.2 12.8 3.2 12.8 0 25.6 0 38.4 0 3.2-1.6 3.2-1.6 4.8 0zM486.4 278.4c-25.6 0-49.6 0-73.6 0 0-24 0-48 0-73.6 24 0 48 0 73.6 0 0 24 0 48 0 73.6zM689.6 278.4c-25.6 0-48 0-73.6 0 0-24 0-48 0-73.6 24 0 48 0 73.6 0 0 24 0 48 0 73.6zM883.2 204.8c0 25.6 0 48 0 73.6-24 0-48 0-73.6 0 0-24 0-48 0-73.6 27.2 0 49.6 0 73.6 0zM398.4 891.2c17.6 35.2 44.8 59.2 81.6 65.6 40 8 78.4 1.6 105.6-32 12.8-14.4 19.2-32 12.8-52.8-1.6-3.2 3.2-8 4.8-12.8 4.8 3.2 11.2 3.2 12.8 6.4 8 16 4.8 30.4-1.6 48 30.4 12.8 73.6-4.8 91.2-28.8 30.4-35.2 30.4-84.8 4.8-120-24-32-73.6-51.2-124.8-24-3.2-4.8-4.8-8-8-12.8-30.4-41.6-89.6-49.6-131.2-20.8-22.4 16-30.4 43.2-25.6 70.4 1.6 4.8-3.2 9.6-4.8 12.8-4.8-3.2-11.2-4.8-12.8-8-6.4-19.2-4.8-38.4 4.8-56 1.6-4.8 4.8-8 6.4-12.8-28.8-22.4-75.2-12.8-118.4 28.8-27.2-22.4-49.6-24-70.4-8-19.2 16-22.4 40-12.8 60.8 12.8 22.4 35.2 30.4 65.6 19.2 19.2 59.2 65.6 86.4 120 76.8z" />
<glyph unicode="&#xe923;" glyph-name="factory-rounded" d="M268.8 774.4c16-14.4 35.2-11.2 57.6 6.4 35.2-33.6 75.2-43.2 97.6-24-1.6 3.2-3.2 6.4-4.8 9.6-8 16-9.6 30.4-3.2 46.4 0 3.2 4.8 4.8 9.6 8 1.6-3.2 4.8-8 3.2-11.2-4.8-22.4 3.2-44.8 20.8-57.6 35.2-25.6 81.6-17.6 107.2 16 3.2 3.2 4.8 6.4 6.4 9.6 41.6-22.4 81.6-6.4 102.4 19.2 22.4 28.8 20.8 70.4-3.2 99.2-16 19.2-51.2 33.6-75.2 24 4.8-12.8 6.4-25.6 0-38.4-1.6-3.2-6.4-3.2-9.6-4.8-1.6 3.2-4.8 8-4.8 9.6 4.8 16 0 30.4-9.6 43.2-22.4 28.8-52.8 33.6-86.4 27.2-32-6.4-52.8-25.6-67.2-54.4-44.8 8-83.2-14.4-96-62.4-25.6 8-44.8 3.2-54.4-16-9.6-17.6-6.4-36.8 9.6-49.6zM737.6 833.6l-8-57.6c123.2-73.6 204.8-208 204.8-361.6 0-83.2-24-161.6-67.2-227.2v392c-12.8-9.6-25.6-17.6-36.8-25.6-41.6-30.4-84.8-60.8-126.4-91.2-9.6-6.4-17.6-4.8-24 3.2-4.8 8-3.2 16 6.4 22.4 12.8 8 16 17.6 16 32 0 6.4 0 14.4 0 20.8 0 11.2 0 22.4 0 35.2-3.2-1.6-4.8-3.2-6.4-4.8-30.4-22.4-62.4-43.2-92.8-65.6-20.8-14.4-40-28.8-60.8-43.2-9.6-6.4-17.6-4.8-24 3.2-4.8 8-3.2 16 6.4 22.4 1.6 1.6 3.2 3.2 4.8 3.2 4.8 3.2 6.4 6.4 6.4 12.8 0 28.8 0 57.6 0 86.4 0 1.6 0 4.8-1.6 6.4-1.6 0-1.6 0-3.2-1.6-52.8-38.4-105.6-75.2-156.8-113.6-3.2-1.6-4.8-6.4-4.8-9.6 0-36.8 0-73.6 0-110.4 0-30.4 0-60.8 0-91.2 0-12.8-9.6-20.8-20.8-17.6-9.6 3.2-11.2 11.2-11.2 19.2 0 124.8 0 251.2 0 376 0 1.6 0 3.2 0 4.8 1.6 1.6 1.6 4.8 3.2 4.8 9.6 3.2 11.2 9.6 11.2 19.2 0 16 0 32 0 46.4 0 12.8-6.4 17.6-17.6 17.6-54.4 0-108.8 0-163.2 0-12.8 0-19.2-6.4-19.2-19.2 0-14.4 0-28.8 0-43.2 0-16 4.8-20.8 20.8-20.8 27.2 0 52.8 0 80 0 12.8 0 19.2-4.8 19.2-16 0-9.6-6.4-14.4-19.2-14.4-24 0-48 0-72 0-3.2 0-6.4 0-11.2 0v-467.2c0 0 0 0 0 0-52.8 70.4-83.2 156.8-83.2 251.2 0 68.8 16 132.8 46.4 190.4l-28.8 60.8c-46.4-73.6-72-160-72-252.8 3.2-259.2 217.6-473.6 480-473.6s476.8 214.4 476.8 476.8c0 180.8-102.4 339.2-251.2 420.8zM483.2 337.6h-60.8v59.2h60.8v-59.2zM649.6 337.6h-59.2v60.8h59.2v-60.8zM809.6 337.6h-60.8v60.8h60.8v-60.8z" />
<glyph unicode="&#xe924;" glyph-name="loader-machine" d="M891.2 216c-41.6 0-75.2-33.6-75.2-75.2s33.6-75.2 75.2-75.2 75.2 33.6 75.2 75.2c-1.6 43.2-33.6 75.2-75.2 75.2zM891.2 110.4c-16 0-30.4 12.8-30.4 30.4 0 16 12.8 30.4 30.4 30.4 16 0 30.4-12.8 30.4-30.4s-14.4-30.4-30.4-30.4zM48 814.4h324.8v-280h-324.8v280zM371.2 320v193.6h-323.2v-280h283.2c3.2 32 19.2 62.4 40 86.4zM329.6 208c0 1.6 0 4.8 0 8h-329.6v-48h334.4c-4.8 12.8-4.8 25.6-4.8 40zM451.2 366.4v462.4h-49.6v-483.2c17.6 9.6 32 16 49.6 20.8zM1017.6 372.8l-132.8 6.4-20.8 348.8h-244.8l-81.6-324.8-76.8-1.6v-33.6c9.6 1.6 20.8 1.6 30.4 1.6 91.2 0 164.8-72 164.8-163.2 0-20.8-4.8-43.2-11.2-62.4h156.8c1.6 46.4 41.6 83.2 88 83.2 48 0 86.4-36.8 88-83.2h46.4l-6.4 228.8zM755.2 376l-38.4-51.2-46.4 1.6c0 0-11.2 16-40 40-27.2 20.8-49.6 20.8-49.6 20.8l67.2 307.2h187.2l3.2-316.8-83.2-1.6zM492.8 350.4c-78.4 0-142.4-62.4-142.4-142.4s64-142.4 142.4-142.4 142.4 62.4 142.4 142.4c1.6 78.4-62.4 142.4-142.4 142.4zM492.8 150.4c-32 0-57.6 25.6-57.6 57.6 0 30.4 25.6 57.6 57.6 57.6s57.6-25.6 57.6-57.6c0-32-24-57.6-57.6-57.6z" />
<glyph unicode="&#xe925;" glyph-name="man-in-box" d="M136-41.6c-1.6 0-3.2 1.6-4.8 1.6-22.4 9.6-36.8 25.6-36.8 51.2 0 100.8 0 200 0 300.8s0 201.6 0 302.4c0 3.2 0 4.8 0 8-1.6 0-1.6 0-3.2 0-4.8-14.4-9.6-28.8-12.8-43.2-12.8-51.2-14.4-100.8-12.8-152 0-20.8 1.6-41.6 1.6-62.4 0-16-9.6-27.2-20.8-32-12.8-4.8-27.2-1.6-35.2 9.6-4.8 6.4-8 12.8-9.6 19.2-4.8 75.2-4.8 148.8 9.6 222.4 6.4 32 16 62.4 33.6 89.6 17.6 25.6 38.4 46.4 70.4 51.2 4.8 0 9.6 1.6 14.4 1.6 49.6 0 99.2 0 148.8 0 22.4 0 41.6-9.6 54.4-25.6 11.2-14.4 19.2-27.2 30.4-41.6 30.4-44.8 75.2-65.6 126.4-70.4 25.6-3.2 51.2-1.6 76.8-1.6 17.6 0 32-12.8 33.6-30.4s-11.2-33.6-27.2-35.2c-70.4-6.4-139.2 0-200 38.4-19.2 14.4-38.4 30.4-56 46.4 0-1.6 0-4.8 0-9.6 0-190.4 0-384 0-574.4 0-32-9.6-54.4-41.6-65.6-6.4 0-14.4 0-19.2 0-33.6 14.4-41.6 25.6-41.6 62.4 0 116.8 0 232 0 347.2 0 4.8 0 9.6 0 14.4-6.4 0-12.8 0-17.6 0 0-4.8 0-8 0-11.2 0-116.8 0-232 0-348.8 0-36.8-9.6-51.2-41.6-62.4-8 0-12.8 0-19.2 0zM937.6 683.2c0-68.8 0-136 0-204.8-68.8 0-136 0-204.8 0 0 68.8 0 136 0 204.8 67.2 0 136 0 204.8 0zM555.2 251.2c0 68.8 0 136 0 204.8 68.8 0 136 0 204.8 0 0-68.8 0-136 0-204.8-68.8 0-136 0-204.8 0zM993.6 251.2c-68.8 0-136 0-204.8 0 0 68.8 0 136 0 204.8 68.8 0 136 0 204.8 0 0-68.8 0-136 0-204.8zM344 456c60.8 0 120 0 182.4 0 0-68.8 0-136 0-204.8-60.8 0-120 0-182.4 0 0 67.2 0 136 0 204.8zM496 611.2c0 25.6 0 49.6 0 72 68.8 0 136 0 204.8 0 0-68.8 0-136 0-204.8-68.8 0-136 0-204.8 0 0 6.4 0 11.2 0 17.6 24 0 51.2 0 75.2 0 28.8 1.6 51.2 22.4 54.4 51.2 3.2 27.2-14.4 52.8-41.6 60.8-8 1.6-16 1.6-22.4 1.6-20.8 3.2-41.6 1.6-65.6 1.6zM206.4 752c-51.2 0-92.8 43.2-91.2 94.4s43.2 91.2 94.4 91.2c51.2 0 91.2-43.2 91.2-94.4-1.6-51.2-44.8-92.8-94.4-91.2zM1024 209.6c-24 0-48 0-70.4 0-196.8 0-395.2 0-592 0-22.4 0-22.4 1.6-17.6 24 225.6 0 452.8 0 680 0 0-8 0-14.4 0-24z" />
<glyph unicode="&#xe926;" glyph-name="man-official" d="M968-25.6l-81.6 296c-1.6 6.4-6.4 12.8-11.2 16-129.6 91.2-86.4 60.8-196.8 139.2 41.6 43.2 65.6 100.8 65.6 161.6 0 121.6 0 128-3.2 150.4 0 128-97.6 222.4-224 222.4h-9.6c-128 0-224-94.4-224-222.4-3.2-22.4-3.2-28.8-3.2-150.4 0-60.8 24-118.4 65.6-161.6-139.2-97.6-57.6-40-196.8-137.6-6.4-4.8-9.6-9.6-11.2-16l-81.6-297.6c-4.8-19.2 9.6-38.4 28.8-38.4h396.8v316.8l30.4 19.2 30.4-19.2v-316.8h396.8c19.2 0 33.6 19.2 28.8 38.4zM492.8 862.4h40c16 0 30.4-12.8 30.4-30.4 0-16-12.8-30.4-30.4-30.4h-40c-16 0-30.4 12.8-30.4 30.4s12.8 30.4 30.4 30.4zM481.6 324.8l-65.6-43.2-88 59.2 67.2 48c27.2-16 57.6-25.6 86.4-28.8v-35.2zM512 417.6c-96 0-172.8 76.8-172.8 171.2 0 20.8 0 40 0 54.4l16-24c6.4-8 14.4-12.8 24-12.8h262.4c9.6 0 19.2 4.8 24 12.8l16 24c0-14.4 0-32 0-54.4 3.2-92.8-73.6-171.2-169.6-171.2zM542.4 324.8v33.6c30.4 3.2 60.8 14.4 86.4 28.8l67.2-48-88-57.6-65.6 43.2zM768 64h-105.6c-16 0-30.4 12.8-30.4 30.4 0 16 12.8 30.4 30.4 30.4h105.6c16 0 30.4-12.8 30.4-30.4-1.6-17.6-14.4-30.4-30.4-30.4z" />
<glyph unicode="&#xe927;" glyph-name="market" d="M727.655 407.982h-139.149c-38.187 0-69.051-30.864-69.051-69.051v-106.716c0-38.187 30.864-69.051 69.051-69.051h139.149c38.187 0 69.051 30.864 69.051 69.051v106.716c0 38.187-31.125 69.051-69.051 69.051zM746.487 232.215c0-10.462-8.631-18.832-18.832-18.832h-139.149c-10.462 0-18.832 8.631-18.832 18.832v106.716c0 10.462 8.631 18.832 18.832 18.832h139.149c10.462 0 18.832-8.631 18.832-18.832v-106.716zM1024 602.058c0 4.446-1.046 8.631-3.4 12.293l-152.227 267.836c-4.446 7.847-12.816 12.816-21.709 12.816h-669.327c-8.893 0-17.263-4.708-21.709-12.816l-152.227-267.836c-2.092-3.662-3.4-7.847-3.4-12.293 0-60.158 36.095-111.424 87.884-134.441v-441.772c0-13.863 11.247-25.11 25.11-25.11h797.752c13.863 0 25.11 11.247 25.11 25.11v438.633c0 1.046 0 1.831-0.262 2.616 52.050 23.017 88.407 74.806 88.407 134.964zM191.984 844.522h640.033l119.009-209.508h-878.051l119.009 209.508zM728.701 585.056c-7.847-45.25-47.604-79.514-94.946-79.514s-87.099 34.264-94.946 79.514h189.891zM485.452 585.056c-7.847-45.25-47.604-79.514-94.946-79.514s-87.099 34.264-95.207 79.514h190.153zM51.789 585.056h190.153c-7.847-45.25-47.604-79.514-95.207-79.514-47.342-0.262-86.837 34.264-94.946 79.514zM421.893 51.216h-144.38v270.974c0 19.617 15.955 35.833 35.833 35.833h72.975c19.617 0 35.833-15.955 35.833-35.833l-0.262-270.974zM885.636 51.216h-413.523v270.974c0 47.342-38.449 86.053-86.053 86.053h-72.975c-47.342 0-86.053-38.449-86.053-86.053v-271.236h-88.93v404.369c2.877-0.262 5.754-0.262 8.893-0.262 50.742 0 95.469 25.633 121.886 64.866 26.417-39.234 71.144-64.866 121.886-64.866s95.207 25.633 121.886 64.866c26.417-39.234 71.144-64.866 121.625-64.866 50.742 0 95.207 25.633 121.625 64.866 26.417-39.234 71.144-64.866 121.886-64.866 2.877 0 5.754 0.262 8.631 0.262v-404.107zM877.266 505.281c-47.604 0-87.099 34.264-94.946 79.514h190.153c-8.37-44.988-47.865-79.514-95.207-79.514z" />
<glyph unicode="&#xe928;" glyph-name="mat-arrow" d="M316.16 625.493l195.84-195.413 195.84 195.413 60.16-60.16-256-256-256 256z" />
<glyph unicode="&#xe929;" glyph-name="mat-carstransport" d="M853.333 618.667h-128v170.667h-597.333c-46.933 0-85.333-38.4-85.333-85.333v-469.333h85.333c0-70.827 57.173-128 128-128s128 57.173 128 128h256c0-70.827 57.173-128 128-128s128 57.173 128 128h85.333v213.333l-128 170.667zM256 170.667c-35.413 0-64 28.587-64 64s28.587 64 64 64 64-28.587 64-64-28.587-64-64-64zM832 554.667l83.627-106.667h-190.293v106.667h106.667zM768 170.667c-35.413 0-64 28.587-64 64s28.587 64 64 64 64-28.587 64-64-28.587-64-64-64z" />
<glyph unicode="&#xe92a;" glyph-name="mat-chat" d="M896 704h-85.333v-384h-554.667v-85.333c0-23.467 19.2-42.667 42.667-42.667h469.333l170.667-170.667v640c0 23.467-19.2 42.667-42.667 42.667zM725.333 448v384c0 23.467-19.2 42.667-42.667 42.667h-554.667c-23.467 0-42.667-19.2-42.667-42.667v-597.333l170.667 170.667h426.667c23.467 0 42.667 19.2 42.667 42.667z" />
<glyph unicode="&#xe92b;" glyph-name="mat-data" d="M512 448c94.293 0 170.667 76.373 170.667 170.667s-76.373 170.667-170.667 170.667-170.667-76.373-170.667-170.667 76.373-170.667 170.667-170.667zM512 362.667c-113.92 0-341.333-57.173-341.333-170.667v-85.333h682.667v85.333c0 113.493-227.413 170.667-341.333 170.667z" />
<glyph unicode="&#xe92c;" glyph-name="mat-docs" d="M597.333 874.667h-341.333c-46.933 0-84.907-38.4-84.907-85.333l-0.427-682.667c0-46.933 37.973-85.333 84.907-85.333h512.427c46.933 0 85.333 38.4 85.333 85.333v512l-256 256zM682.667 192h-341.333v85.333h341.333v-85.333zM682.667 362.667h-341.333v85.333h341.333v-85.333zM554.667 576v234.667l234.667-234.667h-234.667z" />
<glyph unicode="&#xe92d;" glyph-name="mat-edit" d="M128 224v-160h160l471.893 471.893-160 160-471.893-471.893zM883.627 659.627c16.64 16.64 16.64 43.52 0 60.16l-99.84 99.84c-16.64 16.64-43.52 16.64-60.16 0l-78.080-78.080 160-160 78.080 78.080z" />
<glyph unicode="&#xe92e;" glyph-name="mat-factory" d="M512 661.333v170.667h-426.667v-768h853.333v597.333h-426.667zM256 149.333h-85.333v85.333h85.333v-85.333zM256 320h-85.333v85.333h85.333v-85.333zM256 490.667h-85.333v85.333h85.333v-85.333zM256 661.333h-85.333v85.333h85.333v-85.333zM426.667 149.333h-85.333v85.333h85.333v-85.333zM426.667 320h-85.333v85.333h85.333v-85.333zM426.667 490.667h-85.333v85.333h85.333v-85.333zM426.667 661.333h-85.333v85.333h85.333v-85.333zM853.333 149.333h-341.333v85.333h85.333v85.333h-85.333v85.333h85.333v85.333h-85.333v85.333h341.333v-426.667zM768 490.667h-85.333v-85.333h85.333v85.333zM768 320h-85.333v-85.333h85.333v85.333z" />
<glyph unicode="&#xe92f;" glyph-name="mat-find" d="M661.333 362.667h-33.707l-11.947 11.52c41.813 48.64 66.987 111.787 66.987 180.48 0 153.173-124.16 277.333-277.333 277.333s-277.333-124.16-277.333-277.333 124.16-277.333 277.333-277.333c68.693 0 131.84 25.173 180.48 66.987l11.52-11.947v-33.707l213.333-212.907 63.573 63.573-212.907 213.333zM405.333 362.667c-106.24 0-192 85.76-192 192s85.76 192 192 192 192-85.76 192-192-85.76-192-192-192z" />
<glyph unicode="&#xe930;" glyph-name="mat-kinds" d="M170.667 512c-35.413 0-64-28.587-64-64s28.587-64 64-64 64 28.587 64 64-28.587 64-64 64zM170.667 768c-35.413 0-64-28.587-64-64s28.587-64 64-64 64 28.587 64 64-28.587 64-64 64zM170.667 256c-35.413 0-64-29.013-64-64s29.013-64 64-64 64 29.013 64 64-28.587 64-64 64zM298.667 149.333h597.333v85.333h-597.333v-85.333zM298.667 405.333h597.333v85.333h-597.333v-85.333zM298.667 746.667v-85.333h597.333v85.333h-597.333z" />
<glyph unicode="&#xe931;" glyph-name="mat-partners" d="M682.667 490.667c70.827 0 127.573 57.173 127.573 128s-56.747 128-127.573 128c-70.827 0-128-57.173-128-128s57.173-128 128-128zM341.333 490.667c70.827 0 127.573 57.173 127.573 128s-56.747 128-127.573 128c-70.827 0-128-57.173-128-128s57.173-128 128-128zM341.333 405.333c-99.413 0-298.667-49.92-298.667-149.333v-106.667h597.333v106.667c0 99.413-199.253 149.333-298.667 149.333zM682.667 405.333c-12.373 0-26.453-0.853-41.387-2.133 49.493-35.84 84.053-84.053 84.053-147.2v-106.667h256v106.667c0 99.413-199.253 149.333-298.667 149.333z" />
<glyph unicode="&#xe932;" glyph-name="mat-plane" d="M896 277.333v85.333l-341.333 213.333v234.667c0 35.413-28.587 64-64 64s-64-28.587-64-64v-234.667l-341.333-213.333v-85.333l341.333 106.667v-234.667l-85.333-64v-64l149.333 42.667 149.333-42.667v64l-85.333 64v234.667l341.333-106.667z" />
<glyph unicode="&#xe933;" glyph-name="mat-provider" d="M640 490.667v256l-128 128-128-128v-85.333h-256v-597.333h768v426.667h-256zM298.667 149.333h-85.333v85.333h85.333v-85.333zM298.667 320h-85.333v85.333h85.333v-85.333zM298.667 490.667h-85.333v85.333h85.333v-85.333zM554.667 149.333h-85.333v85.333h85.333v-85.333zM554.667 320h-85.333v85.333h85.333v-85.333zM554.667 490.667h-85.333v85.333h85.333v-85.333zM554.667 661.333h-85.333v85.333h85.333v-85.333zM810.667 149.333h-85.333v85.333h85.333v-85.333zM810.667 320h-85.333v85.333h85.333v-85.333z" />
<glyph unicode="&#xe934;" glyph-name="mat-rails" d="M512 874.667c-170.667 0-341.333-21.333-341.333-170.667v-405.333c0-82.347 66.987-149.333 149.333-149.333l-64-64v-21.333h95.147l85.333 85.333h160.853l85.333-85.333h85.333v21.333l-64 64c82.347 0 149.333 66.987 149.333 149.333v405.333c0 149.333-152.747 170.667-341.333 170.667zM320 234.667c-35.413 0-64 28.587-64 64s28.587 64 64 64 64-28.587 64-64-28.587-64-64-64zM469.333 533.333h-213.333v170.667h213.333v-170.667zM554.667 533.333v170.667h213.333v-170.667h-213.333zM704 234.667c-35.413 0-64 28.587-64 64s28.587 64 64 64 64-28.587 64-64-28.587-64-64-64z" />
<glyph unicode="&#xe935;" glyph-name="mat-rivers-seas" d="M853.333 64c-59.307 0-118.613 20.053-170.667 56.32-104.107-72.96-237.227-72.96-341.333 0-52.053-36.267-111.36-56.32-170.667-56.32h-85.333v-85.333h85.333c58.88 0 116.907 14.933 170.667 42.24 107.52-55.040 233.813-55.040 341.333 0 53.76-27.733 111.787-42.24 170.667-42.24h85.333v85.333h-85.333zM168.533 149.333h2.133c68.267 0 128.853 37.547 170.667 85.333 41.813-47.787 102.4-85.333 170.667-85.333s128.853 37.547 170.667 85.333c41.813-47.787 102.4-85.333 170.667-85.333h2.133l80.64 285.013c3.413 11.093 2.56 23.040-2.56 33.28s-14.507 17.92-25.6 21.333l-54.613 17.92v197.12c0 46.933-38.4 85.333-85.333 85.333h-128v128h-256v-128h-128c-46.933 0-85.333-38.4-85.333-85.333v-197.12l-55.040-17.92c-11.093-3.413-20.48-11.093-25.6-21.333s-6.4-22.187-2.56-33.28l81.067-285.013zM256 704h512v-169.387l-256 84.053-256-84.053v169.387z" />
<glyph unicode="&#xe936;" glyph-name="mat-support" d="M896 618.667v42.667l-128-85.333-128 85.333v-42.667l128-85.333 128 85.333zM938.667 832h-853.333c-46.933 0-85.333-38.4-85.333-85.333v-597.333c0-46.933 38.4-85.333 85.333-85.333h853.333c46.933 0 84.907 38.4 84.907 85.333l0.427 597.333c0 46.933-38.4 85.333-85.333 85.333zM341.333 704c70.827 0 128-57.173 128-128s-57.173-128-128-128-128 57.173-128 128 57.173 128 128 128zM597.333 192h-512v42.667c0 85.333 170.667 132.267 256 132.267s256-46.933 256-132.267v-42.667zM938.667 448h-341.333v256h341.333v-256z" />
<glyph unicode="&#xe937;" glyph-name="mat-tam" d="M844.8 503.467l-665.6 243.2-29.867-81.067 601.6-217.6h-537.6c-46.933 0-85.333-38.4-85.333-85.333v-170.667c0-46.933 38.4-85.333 85.333-85.333h597.333c46.933 0 85.333 38.4 85.333 85.333v234.667c0 34.133-21.333 68.267-51.2 76.8zM298.667 234.667h-85.333v85.333h85.333v-85.333zM810.667 234.667h-426.667v85.333h426.667v-85.333z" />
<glyph unicode="&#xe938;" glyph-name="mat-trad" d="M298.667 192c-46.933 0-84.907-38.4-84.907-85.333s37.973-85.333 84.907-85.333 85.333 38.4 85.333 85.333-38.4 85.333-85.333 85.333zM42.667 874.667v-85.333h85.333l153.6-323.84-57.6-104.533c-6.827-11.947-10.667-26.027-10.667-40.96 0-46.933 38.4-85.333 85.333-85.333h512v85.333h-494.080c-5.973 0-10.667 4.693-10.667 10.667l1.28 5.12 38.4 69.547h317.867c32 0 60.16 17.493 74.667 43.947l152.747 276.907c3.413 5.973 5.12 13.227 5.12 20.48 0 23.467-19.2 42.667-42.667 42.667h-631.040l-40.107 85.333h-139.52zM725.333 192c-46.933 0-84.907-38.4-84.907-85.333s37.973-85.333 84.907-85.333 85.333 38.4 85.333 85.333-38.4 85.333-85.333 85.333z" />
<glyph unicode="&#xe939;" glyph-name="moscow-metro-logo" d="M512.005 834.34c-282.767 0-512.005-231.417-512.005-516.887 0-154.789 66.8-255.74 66.8-255.74l890.197-0.043c0 0 66.993 110.328 66.993 255.793 0 285.46-229.239 516.876-511.984 516.876zM919.445 124.64l-813.258 0.354c0 0-43.335 82.067-43.335 194.090 0 250.204 201.858 453.049 450.871 453.049 249.002 0 450.871-202.834 450.871-453.049 0.011-113.289-45.148-194.444-45.148-194.444zM656.699 697.082l-6.427 0.011-136.571-267.617-141.485 269.902-193.715-487.586h-50.062v-39.161h274.258v39.161h-54.418l54.418 152.386 111.004-191.547 106.658 191.547 54.407-152.386h-54.407v-39.161h272.070v39.161h-47.133z" />
<glyph unicode="&#xe93a;" glyph-name="open-box" d="M325.037 241.879h-145.342c-13.213 0-23.783-10.57-23.783-23.783v-124.201c0-13.213 10.57-23.783 23.783-23.783h145.342c13.213 0 23.783 10.57 23.783 23.783v124.201c0 14.534-10.57 23.783-23.783 23.783zM301.254 195.634v-77.956h-99.097v77.956h99.097zM373.925 211.489h99.097v-46.245h-99.097zM373.925 149.388h244.439v-46.245h-244.439zM779.561 128.248h88.526v-46.245h-88.526zM779.561 190.348h88.526v-46.245h-88.526zM1022.679 424.217l-72.671 196.872c-3.964 9.249-11.892 15.855-22.462 15.855h-121.559v247.081c0 13.213-10.57 23.783-23.783 23.783h-540.408c-13.213 0-23.783-10.57-23.783-23.783v-247.081h-121.559c-9.249 0-18.498-5.285-22.462-14.534l-72.671-186.302c-2.643-6.606-1.321-15.855 2.643-21.141 3.964-6.606 11.892-10.57 19.819-10.57h48.888v-392.423c0-13.213 10.57-23.783 23.783-23.783h831.092c13.213 0 23.783 10.57 23.783 23.783v381.853h48.888c7.928 0 14.534 3.964 19.819 10.57 3.964 5.285 5.285 13.213 2.643 19.819zM265.579 803.427v58.137h327.68v-56.815h-327.68zM265.579 636.945v118.916h327.68v-118.916h-327.68zM685.75 590.699l-54.173-140.057h-573.44l54.173 140.057h573.44zM118.916 403.076h528.516c9.249 0 18.498 5.285 22.462 14.534l27.747 71.35v-454.524h-578.725v368.64zM743.886 510.101l48.888-103.061c3.964-7.928 11.892-13.213 21.141-13.213h91.169v-358.070h-161.197v474.343zM967.185 440.072h-138.735l-71.35 150.627h154.591l55.494-150.627zM758.421 861.564v-223.298h-118.916v223.298h118.916zM665.93 824.568h67.386v-46.245h-67.386zM665.93 762.467h67.386v-46.245h-67.386z" />
<glyph unicode="&#xe93b;" glyph-name="plane" d="M989.733 808.324l0.611 0.588c35.48 35.511 36.625 92.118 2.545 126.206-16.048 16.044-37.625 24.882-60.752 24.882-24.508 0-47.761-9.743-65.461-27.432l-77.891-83.234-278.592 83.402-57.741-57.76c-6.97-6.92-11.285-16.507-11.285-27.102 0-0.038 0-0.076 0-0.114v0.006c0-0.037 0-0.081 0-0.125 0-10.589 4.313-20.17 11.279-27.083l0.002-0.002 2.534-2.53 201.227-110.742-29.443-31.954c-37.034 24.345-80.213 43.162-126.471 53.971l-2.711 0.534c-26.919 6.413-57.829 10.098-89.597 10.113h-0.010c-15.12 0-30.046-0.904-44.777-2.53l-1.397 1.549c-0.656-0.588-1.397-1.252-2.118-1.927-167.247-19.837-304.901-141.635-343.21-309.809-23.86-104.67-5.518-212.367 51.627-303.238 57.146-90.867 146.28-154.034 250.954-177.879 26.918-6.413 57.828-10.097 89.596-10.113h0.011c188.58 0 349.575 128.564 391.509 312.656 6.47 27.080 10.18 58.172 10.18 90.13 0 3.051-0.034 6.093-0.101 9.127l0.008-0.452c2.29 8.411 1.893 17.582-1.664 27.569-5.686 62.145-25.863 122.527-60.054 176.875-5.040 7.977-9.335 14.272-13.807 20.429l0.774-1.119 29.882 27.554 111.647-202.838 2.557-2.557c6.929-6.941 16.508-11.235 27.090-11.235 0.031 0 0.063 0 0.094 0h-0.005c10.254 0 19.883 3.988 27.172 11.247l57.779 57.768-83.959 280.492 81.956 76.67zM207.433 49.471c-38.209 26.592-71.068 60.813-96.603 101.415-45.414 72.22-62.695 156.591-49.814 240.104 22.505-6.060 45.223-15.021 53.951-21.257-0.328-2.317-0.687-4.675-1.053-7.022-3.374-21.898-8.472-54.974 18.49-74.602 23.596-17.162 45.193-1.107 55.043 7.186 3.954-3.187 8.262-6.358 12.693-9.632 6.915-5.095 19.112-14.098 23.497-19.578-1.393-4.835-3.435-10.552-5.431-16.124-7.831-21.868-15.933-44.475-0.859-60.359 5.198-6.396 20.738-35.782 24.707-46.368-0.084-3.522 0.176-7.533 0.511-12.758 0.355-5.381 1.137-17.525 0.336-22.463-0.019 0.008-30.622-38.537-28.851-47.666l-6.618-10.869zM750.961 259.895c-36.675-160.984-177.421-273.409-342.298-273.409-26.218 0-52.589 2.977-78.395 8.854-33.797 7.829-63.591 19.382-91.146 34.505l1.833-0.922c24.631 20.826 45.949 54.283 46.269 54.822 7.472 12.621 7.045 29.378 5.717 49.979-0.218 3.446-0.469 6.411-0.42 8.308-0.040-1.013-0.188-1.973-0.433-2.893l0.021 0.092c4.045 17.91-20.303 59.142-32.011 76.708 1.21 4.641 3.786 11.823 5.629 16.99 3.053 8.529 6.209 17.345 8.102 25.711 6.957 30.263-21.15 50.986-43.727 67.637-6.45 4.751-13.105 9.667-16.059 12.796-10.163 10.716-27.287 18.986-52.257 0.397 0.45 5.343 1.385 11.392 2.023 15.563 0.84 5.434 1.656 10.861 2.175 16.086 2.908 29.283-28.706 52.528-93.798 69.159 35.702 118.153 128.79 206.539 244.55 237.337-5.171-12.617-9.255-27.195-11.125-44.163-1.088-9.8-2.492-18.677-3.732-26.493-4.938-31.202-10.541-66.568 34.271-86.524 24.432-10.907 41.476-12.701 55.184-14.147 6.045-0.63 11.106-1.168 16.372-2.366 1.519-7.583 0.55-23.173 0.153-29.577-0.55-8.942-1.145-18.586 1.71-26.668 3.694-20.41 21.524-94.988 90.882-143.089-9.758-5.816-22.593-11.773-33.355-13.842-5.839-1.118-11.819-1.87-17.609-2.595-23.68-2.965-56.111-7.011-69.686-44.414-6.030-16.532-2.114-28.569 2.233-35.759 10.8-17.86 31.817-20.673 47.162-22.726 2.473-0.328 5.946-0.801 8.033-1.21 9.503-6.957 39.144-26.661 69.877-26.661 13.884 0 27.993 4.030 40.568 15.067 5.060 4.29 29.035 4.007 40.579 3.862 24.432-0.286 47.502-0.572 62.221 14.311 7.228 7.32 10.915 16.876 10.667 27.668-0.527 21.081 39.831 43.754 72.258 61.977 7.823 4.389 15.822 8.907 23.596 13.594-1.45-11.342-3.458-22.677-6.030-33.965zM759.262 357.849c-7.316-9.274-33.973-24.26-50.589-33.591-43.418-24.398-92.241-51.826-97.545-97.183-6.358-0.511-15.521-0.382-22.261-0.313-25.848 0.286-55.070 0.664-74.506-16.422-8.404-7.377-33.977 3.98-48.582 15.361-8.178 6.385-17.952 7.938-28.325 9.35 3.98 1.008 9.732 1.923 18.307 2.984 6.274 0.79 13.395 1.679 20.845 3.103 22.631 4.339 81.601 29.099 86.516 61.817 2.046 13.613-4.526 26.218-17.189 32.935-75.124 39.69-86.65 119.92-87.096 123.21l-0.878 7.091c0.088 1.664 0.198 3.465 0.29 5.015 1.496 24.081 4.274 68.9-31.092 79.723-11.728 3.572-21.715 4.618-30.531 5.549-12.224 1.278-22.772 2.389-39.9 10.037-6.106 2.717-7.377 4.511-7.377 4.511-1.542 3.156 0.737 17.525 2.404 28.012 1.324 8.384 2.824 17.872 4.045 28.859 3.267 29.527 15.162 48.070 26.512 60.603 7.644 0.603 16.599 0.96 25.632 0.985h0.052c26.207 0 52.578-2.977 78.387-8.854 39.978-9.271 75.255-24.101 107.136-43.885l-1.5 0.867-2.519-2.732c-4.273-4.305-8.241-8.928-11.858-13.826l-0.24-0.34-90.245 23.364-39.575-39.583c-6.374-6.325-10.319-15.088-10.319-24.774 0-0.036 0-0.071 0-0.107v0.005c0-0.032 0-0.071 0-0.109 0-9.696 3.944-18.472 10.314-24.81l0.001-0.001 2.832-2.839 103.957-52.757 3.732-3.74 52.757-103.968 2.843-2.836c6.334-6.376 15.108-10.323 24.803-10.323 0.033 0 0.067 0 0.1 0h-0.005c0.034 0 0.074 0 0.114 0 9.681 0 18.441 3.939 24.766 10.303l39.6 39.577-23.841 92.103c4.938 3.675 9.303 7.437 13.385 11.484l-0.008-0.008 5.4 4.976c2.645-3.824 5.305-7.64 7.801-11.613 32.187-51.169 50.196-108.46 53.444-167.205zM934.736 465.572l-24.768-24.768-131.404 238.776-121.206-111.773c-5.545-5.522-11.728-9.991-18.372-13.262l-18.406-9.083 26.428-102.041-3.938-3.942-43.582 85.883-15.097 15.113-85.875 43.567 3.931 3.931 100.56-26.039 8.984 18.708c3.293 6.839 7.854 13.204 13.556 18.921l111.437 120.871-237.162 130.518 24.768 24.779 279.691-83.723 98.347 105.113c8.14 7.999 18.597 12.403 29.508 12.403 9.64 0 18.54-3.587 25.062-10.098 14.326-14.326 13.273-38.736-2.29-54.562l-104.445-97.698 84.276-281.591z" />
<glyph unicode="&#xe93c;" glyph-name="plant" d="M35.283-63.204c-19.366 0-35.283 15.917-35.283 35.283v953.434c0 19.631 15.917 35.283 35.283 35.283h213.289c19.366 0 35.283-15.917 35.283-35.283v-342.483l299.241-192.862v173.762c0.796 25.998 19.631 35.283 35.548 35.283 7.163 0 13.795-1.857 18.57-5.306l370.603-238.491c9.816-6.367 16.182-17.774 16.182-29.712v-353.625c0-19.366-15.917-35.283-35.283-35.283h-953.434zM654.193 7.627h299.241v298.711l-299.241 192.862v-491.573zM283.855 7.627h299.241v298.711l-299.241 192.862v-491.573zM70.831 7.627h142.458v882.603h-142.458v-882.603zM985.799 848.050c-7.163 0-14.060 2.122-19.631 6.102-17.509 11.673-40.058 17.509-69.239 17.509-22.019 0-44.568-3.449-59.424-5.836l-19.366-3.449c-30.242-5.306-61.811-11.142-94.441-11.142-21.753 0-41.384 2.653-59.954 7.693-13.264 3.714-25.467 9.020-37.14 13.795l-1.592 0.531c-11.142 4.775-21.753 9.020-32.099 11.673s-22.284 3.979-36.875 3.979c-10.346 0-20.692-0.531-33.161-1.326-11.407-0.531-24.141-1.326-36.875-1.326-11.407 0-21.488 0.531-31.304 1.857-19.366 2.388-33.161 20.162-30.773 39.262 2.122 17.774 17.244 31.038 34.752 31.038 1.592 0 2.918 0 4.51-0.265 6.897-0.796 14.325-1.326 23.080-1.326 10.346 0 20.692 0.531 31.834 1.061l2.918 0.265c11.407 0.531 23.080 1.326 35.283 1.326 20.958 0 38.201-1.857 54.383-5.836 14.591-3.714 28.385-9.285 40.323-14.325l4.245-1.857c9.816-3.979 19.101-7.959 28.12-10.611 12.468-3.449 25.733-5.306 41.119-5.306 25.733 0 53.057 5.040 81.708 10.081l19.631 3.449c17.774 2.918 44.303 6.897 72.158 6.897 43.507 0 78.79-9.55 108.236-29.447 7.959-5.306 13.264-13.264 14.856-22.549 1.857-9.285 0-18.835-5.306-26.528-7.163-9.55-18.305-15.387-29.977-15.387z" />
<glyph unicode="&#xe93d;" glyph-name="provider-box" d="M983.642 719.059c0 3.614-1.205 7.228-2.409 12.047-3.614 7.228-9.638 12.047-18.071 13.252l-440.922 213.233c-7.228 3.614-15.661 3.614-22.889 0l-444.536-215.642c-8.433-4.819-14.456-13.252-14.456-22.889v-542.118c0-9.638 6.024-19.275 14.456-22.889l444.536-215.642c1.205 0 1.205 0 2.409-1.205h1.205l2.409-1.205h14.456l2.409 1.205h1.205c1.205 0 1.205 0 2.409 1.205l445.741 215.642c8.433 4.819 14.456 13.252 14.456 22.889l-2.409 542.118c0-1.205 0-1.205 0 0zM511.398 905.788l385.506-186.729-142.155-68.668-385.506 186.729 142.155 68.668zM511.398 531.125l-385.506 186.729 184.32 89.148 385.506-186.729-184.32-89.148zM92.16 676.894l392.734-190.344v-483.087l-392.734 190.344v483.087zM536.696 3.464v483.087l184.32 89.148v-126.494c0-14.456 12.047-26.504 26.504-26.504s26.504 12.047 26.504 26.504v151.793l157.816 77.101v-483.087l-395.144-191.548z" />
<glyph unicode="&#xe93e;" glyph-name="railway" d="M832.426 737.747c9.545 0 17.726 8.181 17.726 17.726v103.627c0 9.545-8.181 17.726-17.726 17.726h-83.174v54.541c0 9.545-8.181 17.726-17.726 17.726s-17.726-8.181-17.726-17.726v-54.541h-404.964v54.541c0 9.545-8.181 17.726-17.726 17.726-8.181-1.364-16.362-8.181-16.362-17.726v-54.541h-83.174c-9.545 0-17.726-8.181-17.726-17.726v-103.627c0-9.545 8.181-17.726 17.726-17.726h83.174v-104.991h-83.174c-9.545 0-17.726-6.818-17.726-16.362v-103.627c0-9.545 8.181-17.726 17.726-17.726h83.174v-104.991h-83.174c-9.545 0-17.726-8.181-17.726-17.726v-103.627c0-10.908 8.181-17.726 17.726-17.726h83.174v-104.991h-83.174c-9.545 0-17.726-8.181-17.726-17.726v-103.627c0-9.545 8.181-17.726 17.726-17.726h83.174v-54.541c0-9.545 8.181-17.726 17.726-17.726s17.726 8.181 17.726 17.726v54.541h404.964v-54.541c0-9.545 8.181-17.726 17.726-17.726s17.726 8.181 17.726 17.726v54.541h83.174c9.545 0 17.726 8.181 17.726 17.726v103.627c0 9.545-8.181 17.726-17.726 17.726h-83.174v104.991h83.174c9.545 0 17.726 8.181 17.726 17.726v103.627c0 9.545-8.181 17.726-17.726 17.726h-83.174v104.991h83.174c9.545 0 17.726 8.181 17.726 17.726v103.627c0 9.545-8.181 17.726-17.726 17.726h-83.174v104.991h81.811zM816.064 110.53v-69.539h-65.449v69.539h65.449zM749.252 285.060v69.539h65.449v-69.539h-65.449zM749.252 529.129v69.539h65.449v-69.539h-65.449zM749.252 773.198v69.539h65.449v-69.539h-65.449zM715.164 110.53v-69.539h-406.328v69.539h406.328zM715.164 250.972v-104.991h-406.328v104.991h406.328zM715.164 354.599v-69.539h-406.328v69.539h406.328zM715.164 495.041v-104.991h-406.328v104.991h406.328zM715.164 598.668v-69.539h-406.328v69.539h406.328zM715.164 737.747v-104.991h-406.328v104.991h406.328zM715.164 842.738v-69.539h-406.328v69.539h406.328zM274.748 842.738v-69.539h-66.812v69.539h66.812zM274.748 598.668v-69.539h-66.812v69.539h66.812zM274.748 354.599v-69.539h-66.812v69.539h66.812zM274.748 110.53v-69.539h-66.812v69.539h66.812z" />
</font>
</defs>
</svg>
