<svg width="55" height="64" viewBox="0 0 55 64" fill="none" xmlns="http://www.w3.org/2000/svg">
<path d="M41.2328 15.1714C43.2044 16.4492 45.4845 17.629 47.8719 18.5788L48.1517 18.6768C49.7803 19.2007 52.7634 20.0365 53.9169 20.3505C53.8766 23.1539 53.549 25.8553 52.9666 28.4549L53.0145 28.1989C51.3955 32.7503 49.2705 36.6875 46.6514 40.2027L46.7242 40.1029C45.0879 41.8345 43.2926 43.3923 41.3593 44.756L41.2349 44.838C39.1751 43.4001 37.3778 41.8404 35.7513 40.1089L35.7454 40.1029C33.1913 36.6875 31.057 32.7503 29.526 28.5071L29.4283 28.1989C28.8841 25.8454 28.5662 23.1419 28.5508 20.3624V20.3524C29.6793 20.0385 32.6625 19.2007 34.316 18.6788C36.1324 17.9989 37.6711 17.257 39.1348 16.3972L38.9778 16.4812C40.181 15.8273 40.8573 15.4094 41.2328 15.1734V15.1714ZM41.2328 14.4395C39.2078 15.7433 36.8625 16.9571 34.4099 17.9449L34.115 18.0489C32.059 18.7287 27.9243 19.8545 27.9243 19.8545C27.9243 19.8806 27.9243 19.9105 27.9243 19.9405C27.9243 22.962 28.2614 25.9013 28.9014 28.719L28.8516 28.4608C30.4995 33.102 32.6684 37.1175 35.3412 40.7007L35.2684 40.5988C37.0408 42.4745 38.993 44.1541 41.0988 45.6119L41.2328 45.6999C43.4747 44.1541 45.4271 42.4724 47.1954 40.6028L47.1992 40.5988C49.7898 37.1134 51.9568 33.1001 53.5165 28.7768L53.6161 28.4608C54.189 25.9035 54.5185 22.968 54.5185 19.9525C54.5185 19.9185 54.5185 19.8825 54.5185 19.8486V19.8545C54.5185 19.8545 50.3819 18.7287 48.3278 18.0489C45.5881 16.9511 43.2504 15.7393 41.0431 14.3256L41.2328 14.4395Z" fill="#705F66"/>
<path d="M51.7922 22.1019C51.7922 22.1019 48.5331 21.212 46.9293 20.6901C44.7891 19.8443 42.9557 18.8845 41.2331 17.7587L41.3654 17.8387C39.7751 18.8845 37.9414 19.8443 36.0178 20.6142L35.8012 20.6901C34.1727 21.2141 30.7871 22.1019 30.7871 22.1019C30.8388 24.5134 31.1472 26.8231 31.6838 29.0387L31.6397 28.8247C32.9311 32.4561 34.6228 35.5954 36.7114 38.401L36.6538 38.3208C38.045 39.7966 39.5795 41.1143 41.2369 42.2561L41.3424 42.3242C43.0936 41.1143 44.6206 39.7947 46.0002 38.327L46.004 38.323C48.0446 35.6013 49.7382 32.458 50.9414 29.0686L51.0163 28.8266C51.5011 26.811 51.7827 24.4935 51.7941 22.1099V22.1039L51.7922 22.1019Z" fill="#705F66"/>
<path d="M25.366 13.0809L26.0176 12.557C25.5578 12.2751 25.0249 12.0351 24.4636 11.8631L24.4138 11.8492L23.3619 11.5612C21.5398 11.1733 19.4456 10.9513 17.3016 10.9513C17.0621 10.9513 16.8207 10.9533 16.5831 10.9593H16.6195C16.3761 10.9513 16.0888 10.9473 15.8014 10.9473C13.4217 10.9473 11.111 11.2573 8.90563 11.8411L9.09915 11.7972C8.3174 12.0291 7.63338 12.3691 7.02026 12.807L7.04518 12.791L7.29618 13.0269V14.5187H7.47244L7.52226 14.2567C10.015 13.0609 12.9331 12.3651 16.0044 12.3651C16.2037 12.3651 16.403 12.3671 16.6003 12.3731H16.5716C16.7268 12.3691 16.9107 12.3671 17.0928 12.3671C19.9648 12.3671 22.7067 12.955 25.211 14.0228L25.0671 13.9688H25.3679V13.3929L25.366 13.0809Z" fill="#705F66"/>
<path d="M7.36686 15.6958C8.89582 18.8092 13.6092 19.1492 15.4888 19.1492H17.0178C18.9472 19.1492 23.9365 18.7832 25.2892 15.3558C22.8463 14.1641 19.9857 13.4682 16.968 13.4682C16.8434 13.4682 16.7208 13.4702 16.5982 13.4722H16.6174C16.4852 13.4682 16.33 13.4662 16.1748 13.4662C12.9578 13.4662 9.92665 14.29 7.26147 15.7478L7.36686 15.6958Z" fill="#705F66"/>
<path d="M22.2066 34.2976L16.9931 48.581C16.882 48.8768 16.6099 49.0847 16.2919 49.0847C15.9738 49.0847 15.7017 48.8787 15.5925 48.5869L15.5906 48.581L10.3024 34.0096C4.37808 36.1031 0.160945 41.7801 0 48.5089V48.5288C0.327638 57.1454 7.09884 64 15.4047 64C15.6021 64 15.7994 63.996 15.9968 63.9879H15.9681C16.1367 63.9941 16.3321 63.9981 16.5314 63.9981C24.8372 63.9981 31.6084 57.1432 31.9341 48.5568V48.5269C31.7981 42.0141 27.8377 36.503 22.3101 34.3315L22.2085 34.2954L22.2066 34.2976Z" fill="#705F66"/>
<path d="M18.6476 32.9101C18.4138 32.6519 18.0843 32.4901 17.7164 32.4901C17.6991 32.4901 17.6838 32.4901 17.6665 32.4901H17.6685H15.0359C15.0224 32.4901 15.0052 32.4901 14.9899 32.4901C14.6239 32.4901 14.2925 32.6519 14.0606 32.9079C13.8441 33.1419 13.7119 33.4619 13.7119 33.8139C13.7119 34.0578 13.7771 34.2877 13.8882 34.4838L13.8843 34.4776L15.3635 36.8053L14.5358 42.8742L15.9153 46.6414C15.9843 46.7974 16.1318 46.9033 16.3043 46.9033C16.4767 46.9033 16.6242 46.7974 16.6913 46.6435L16.6932 46.6414L18.0459 42.8742L17.3447 36.8053L18.8238 34.4776C18.933 34.2877 18.9982 34.0578 18.9982 33.8139C18.9982 33.4619 18.866 33.1419 18.6495 32.9079L18.6476 32.9101Z" fill="#705F66"/>
<path d="M27.5715 6.67077C27.1463 4.70915 27.2956 4.05526 25.6671 3.84529C25.6076 3.8473 25.5387 3.8473 25.4678 3.8473C23.0229 3.8473 20.7658 3.01144 18.9437 1.59971L18.9725 1.6217C17.5431 0.181967 16.6656 0 16.3897 0H16.1636C15.9624 0 15.4125 0.183966 13.8567 1.6217C12.1706 3.00945 10.017 3.8473 7.67566 3.8473C7.6201 3.8473 7.56262 3.8473 7.50705 3.84529H7.51471C5.8861 4.02925 5.93592 4.70915 5.53355 6.67077C5.13121 8.63242 3.60414 9.13032 4.05439 9.60024C4.50467 10.0701 5.53355 10.986 6.30954 11.7199C7.25798 11.058 8.36352 10.5441 9.54761 10.2441L9.61851 10.2281H9.91931C10.9904 9.26429 12.2875 8.53844 13.713 8.1505L13.7801 8.1345C13.7801 8.1345 13.7801 7.89855 13.7801 7.76859C13.7801 6.32285 14.9029 5.15305 16.2862 5.15305C17.6696 5.15305 18.7924 6.32484 18.7924 7.76859C18.7981 7.82256 18.8019 7.88656 18.8019 7.95255C18.8019 8.01852 18.7981 8.08053 18.7905 8.14251V8.1345C20.1336 8.51644 21.3062 9.13833 22.3236 9.95817L22.3006 9.94018C22.8256 10.0302 23.272 10.1401 23.709 10.2761L23.6284 10.2541C24.7128 10.5441 25.6631 10.966 26.5349 11.5119L26.4871 11.4839C27.3646 10.778 28.4682 9.86219 28.7173 9.60024C28.9665 9.33829 27.8647 8.60642 27.5639 6.67077H27.5715Z" fill="#705F66"/>
<path d="M25.2648 16.9258C23.912 20.3531 18.9228 20.7191 16.9934 20.7191H15.4893C13.6346 20.7191 8.57058 20.2472 7.01668 17.1877C6.62581 18.2176 6.38823 19.4093 6.36523 20.6571V20.6671C7.0416 25.8221 11.2338 29.7494 16.3036 29.7494C21.3734 29.7494 25.5656 25.8202 26.2362 20.7211L26.2419 20.6671C26.217 19.2554 25.9335 17.9196 25.4392 16.6998L25.4641 16.7698L25.2648 16.9258Z" fill="#705F66"/>
</svg>
