<svg width="32" height="64" viewBox="0 0 32 64" fill="none" xmlns="http://www.w3.org/2000/svg">
<path d="M25.366 13.0809L26.0176 12.557C25.5578 12.2751 25.0249 12.0351 24.4636 11.8631L24.4138 11.8492L23.3619 11.5612C21.5398 11.1733 19.4456 10.9513 17.3016 10.9513C17.0621 10.9513 16.8207 10.9533 16.5831 10.9593H16.6195C16.3761 10.9513 16.0888 10.9473 15.8014 10.9473C13.4217 10.9473 11.111 11.2573 8.90563 11.8411L9.09915 11.7972C8.3174 12.0291 7.63338 12.3691 7.02026 12.807L7.04518 12.791L7.29618 13.0269V14.5187H7.47244L7.52226 14.2567C10.015 13.0609 12.9331 12.3651 16.0044 12.3651C16.2037 12.3651 16.403 12.3671 16.6003 12.3731H16.5716C16.7268 12.3691 16.9107 12.3671 17.0928 12.3671C19.9648 12.3671 22.7067 12.955 25.211 14.0228L25.0671 13.9688H25.3679V13.3929L25.366 13.0809Z" fill="#705F66"/>
<path d="M7.36686 15.6958C8.89582 18.8092 13.6092 19.1492 15.4888 19.1492H17.0178C18.9472 19.1492 23.9365 18.7832 25.2892 15.3558C22.8463 14.1641 19.9857 13.4682 16.968 13.4682C16.8434 13.4682 16.7208 13.4702 16.5982 13.4722H16.6174C16.4852 13.4682 16.33 13.4662 16.1748 13.4662C12.9578 13.4662 9.92665 14.29 7.26147 15.7478L7.36686 15.6958Z" fill="#705F66"/>
<path d="M22.2066 34.2976L16.9931 48.581C16.882 48.8768 16.6099 49.0847 16.2919 49.0847C15.9738 49.0847 15.7017 48.8787 15.5925 48.5869L15.5906 48.581L10.3024 34.0096C4.37808 36.1031 0.160945 41.7801 0 48.5089V48.5288C0.327638 57.1454 7.09884 64 15.4047 64C15.6021 64 15.7994 63.996 15.9968 63.9879H15.9681C16.1367 63.9941 16.3321 63.9981 16.5314 63.9981C24.8372 63.9981 31.6084 57.1432 31.9341 48.5568V48.5269C31.7981 42.0141 27.8377 36.503 22.3101 34.3315L22.2085 34.2954L22.2066 34.2976Z" fill="#705F66"/>
<path d="M18.6476 32.9101C18.4138 32.6519 18.0843 32.4901 17.7164 32.4901C17.6991 32.4901 17.6838 32.4901 17.6665 32.4901H17.6685H15.0359C15.0224 32.4901 15.0052 32.4901 14.9899 32.4901C14.6239 32.4901 14.2925 32.6519 14.0606 32.9079C13.8441 33.1419 13.7119 33.4619 13.7119 33.8139C13.7119 34.0578 13.7771 34.2877 13.8882 34.4838L13.8843 34.4776L15.3635 36.8053L14.5358 42.8742L15.9153 46.6414C15.9843 46.7974 16.1318 46.9033 16.3043 46.9033C16.4767 46.9033 16.6242 46.7974 16.6913 46.6435L16.6932 46.6414L18.0459 42.8742L17.3447 36.8053L18.8238 34.4776C18.933 34.2877 18.9982 34.0578 18.9982 33.8139C18.9982 33.4619 18.866 33.1419 18.6495 32.9079L18.6476 32.9101Z" fill="#705F66"/>
<path d="M27.5715 6.67077C27.1463 4.70915 27.2956 4.05526 25.6671 3.84529C25.6076 3.8473 25.5387 3.8473 25.4678 3.8473C23.0229 3.8473 20.7658 3.01144 18.9437 1.59971L18.9725 1.6217C17.5431 0.181967 16.6656 0 16.3897 0H16.1636C15.9624 0 15.4125 0.183966 13.8567 1.6217C12.1706 3.00945 10.017 3.8473 7.67566 3.8473C7.6201 3.8473 7.56262 3.8473 7.50705 3.84529H7.51471C5.8861 4.02925 5.93592 4.70915 5.53355 6.67077C5.13121 8.63242 3.60414 9.13032 4.05439 9.60024C4.50467 10.0701 5.53355 10.986 6.30954 11.7199C7.25798 11.058 8.36352 10.5441 9.54761 10.2441L9.61851 10.2281H9.91931C10.9904 9.26429 12.2875 8.53844 13.713 8.1505L13.7801 8.1345C13.7801 8.1345 13.7801 7.89855 13.7801 7.76859C13.7801 6.32285 14.9029 5.15305 16.2862 5.15305C17.6696 5.15305 18.7924 6.32484 18.7924 7.76859C18.7981 7.82256 18.8019 7.88656 18.8019 7.95255C18.8019 8.01852 18.7981 8.08053 18.7905 8.14251V8.1345C20.1336 8.51644 21.3062 9.13833 22.3236 9.95817L22.3006 9.94018C22.8256 10.0302 23.272 10.1401 23.709 10.2761L23.6284 10.2541C24.7128 10.5441 25.6631 10.966 26.5349 11.5119L26.4871 11.4839C27.3646 10.778 28.4682 9.86219 28.7173 9.60024C28.9665 9.33829 27.8647 8.60642 27.5639 6.67077H27.5715Z" fill="#705F66"/>
<path d="M25.2648 16.9258C23.912 20.3531 18.9228 20.7191 16.9934 20.7191H15.4893C13.6346 20.7191 8.57058 20.2472 7.01668 17.1877C6.62581 18.2176 6.38823 19.4093 6.36523 20.6571V20.6671C7.0416 25.8221 11.2338 29.7494 16.3036 29.7494C21.3734 29.7494 25.5656 25.8202 26.2362 20.7211L26.2419 20.6671C26.217 19.2554 25.9335 17.9196 25.4392 16.6998L25.4641 16.7698L25.2648 16.9258Z" fill="#705F66"/>
</svg>
