<svg width="60" height="64" viewBox="0 0 60 64" fill="none" xmlns="http://www.w3.org/2000/svg">
<path d="M4.89991 60.5C4.89991 48.7 4.89991 37 4.89991 25.1C5.19991 25.1 5.49991 25.1 5.69991 25.1C7.59991 25.1 9.29991 25.1 11.1999 25.1C12.0999 25.1 12.5999 24.7 12.5999 24C12.5999 23.2 12.0999 22.8 11.0999 22.8C9.09991 22.8 6.99991 22.8 4.99991 22.8C3.69991 22.8 3.39991 22.5 3.39991 21.2C3.39991 20.1 3.39991 19 3.39991 17.8C3.39991 16.8 3.79991 16.4 4.79991 16.4C8.89991 16.4 13.0999 16.4 17.1999 16.4C18.0999 16.4 18.5999 16.8 18.5999 17.8C18.5999 19 18.5999 20.2 18.5999 21.3C18.5999 22 18.3999 22.5 17.6999 22.7C17.4999 22.8 17.3999 23 17.3999 23.1C17.2999 23.2 17.3999 23.4 17.3999 23.4C17.3999 32.9 17.3999 42.4 17.3999 51.9C17.3999 52.6 17.4999 53.2 18.1999 53.3C18.9999 53.6 19.6999 53 19.6999 52C19.6999 49.7 19.6999 47.4 19.6999 45.1C19.6999 42.3 19.6999 39.5 19.6999 36.7C19.6999 36.4 19.8999 36 19.9999 35.9C23.9999 33 27.8999 30.2 31.8999 27.3C31.8999 27.3 31.9999 27.3 32.0999 27.2C32.0999 27.4 32.1999 27.5 32.1999 27.7C32.1999 29.9 32.1999 32.1 32.1999 34.2C32.1999 34.6 32.0999 35 31.6999 35.1C31.4999 35.2 31.3999 35.3 31.3999 35.4C30.6999 35.9 30.5999 36.5 30.9999 37.1C31.3999 37.7 32.0999 37.8 32.7999 37.4C34.2999 36.3 35.7999 35.2 37.3999 34.1C39.7999 32.4 42.0999 30.7 44.3999 29.1C44.4999 29 44.6999 28.9 44.8999 28.8C44.8999 29.7 44.8999 30.7 44.8999 31.5C44.8999 32 44.8999 32.6 44.8999 33.1C44.8999 34.3 44.6999 35 43.5999 35.5C42.7999 35.9 42.7999 36.6 43.1999 37.2C43.5999 37.8 44.2999 37.9 44.9999 37.4C48.1999 35.1 51.3999 32.8 54.5999 30.6C55.3999 30 56.3999 29.3 57.3999 28.7C57.3999 39.3 57.3999 49.9 57.3999 60.4C57.6999 60.4 57.7999 60.5 58.0999 60.5C58.8999 60.6 59.4999 61.3 59.5999 62C59.6999 62.8 59.1999 63.5 58.3999 63.8C58.1999 64 57.8999 64 57.4999 64C39.0999 64 20.7999 64 2.39991 64C1.29991 64 0.499908 63.5 0.399908 62.6C0.199908 61.8 0.699908 61 1.39991 60.7C1.69991 60.6 1.99991 60.5 2.19991 60.5C2.99991 60.5 3.79991 60.5 4.59991 60.5C4.79991 60.6 4.79991 60.6 4.89991 60.5V60.5ZM28.3999 42.6C26.7999 42.6 25.2999 42.6 23.7999 42.6C23.7999 44.1 23.7999 45.6 23.7999 47.2C25.2999 47.2 26.7999 47.2 28.3999 47.2C28.3999 45.7 28.3999 44.2 28.3999 42.6ZM41.0999 42.6C39.4999 42.6 38.0999 42.6 36.4999 42.6C36.4999 44.1 36.4999 45.6 36.4999 47.2C37.9999 47.2 39.4999 47.2 41.0999 47.2C41.0999 45.7 41.0999 44.2 41.0999 42.6ZM53.1999 47.2C53.1999 45.6 53.1999 44.2 53.1999 42.6C51.6999 42.6 50.1999 42.6 48.5999 42.6C48.5999 44.1 48.5999 45.6 48.5999 47.2C50.2999 47.2 51.6999 47.2 53.1999 47.2ZM22.8999 4.29998C23.9999 2.09998 25.6999 0.599976 27.9999 0.199976C30.4999 -0.300024 32.8999 0.0999758 34.5999 2.19998C35.3999 3.09998 35.7999 4.19998 35.3999 5.49998C35.2999 5.69998 35.5999 5.99998 35.6999 6.29998C35.9999 6.09998 36.3999 6.09998 36.4999 5.89998C36.9999 4.89998 36.7999 3.99998 36.3999 2.89998C38.2999 2.09998 40.9999 3.19998 42.0999 4.69998C43.9999 6.89998 43.9999 9.99997 42.3999 12.2C40.8999 14.2 37.7999 15.4 34.5999 13.7C34.3999 14 34.2999 14.2 34.0999 14.5C32.1999 17.1 28.4999 17.6 25.8999 15.8C24.4999 14.8 23.9999 13.1 24.2999 11.4C24.3999 11.1 24.0999 10.8 23.9999 10.6C23.6999 10.8 23.2999 10.9 23.1999 11.1C22.7999 12.3 22.8999 13.5 23.4999 14.6C23.5999 14.9 23.7999 15.1 23.8999 15.4C22.0999 16.8 19.1999 16.2 16.4999 13.6C14.7999 15 13.3999 15.1 12.0999 14.1C10.8999 13.1 10.6999 11.6 11.2999 10.3C12.0999 8.89998 13.4999 8.39998 15.3999 9.09998C16.5999 5.39998 19.4999 3.69998 22.8999 4.29998V4.29998Z" fill="#705F66"/>
</svg>
