<svg width="50" height="36" viewBox="0 0 50 36" fill="none" xmlns="http://www.w3.org/2000/svg">
<path d="M0 2.28054L8.00127 9.71946L9.02156 6.19005C11.0622 6.46154 19.9763 7.65611 25.1852 8.0362C25.937 8.0905 26.7962 8.14479 27.8165 8.19909C42.9598 9.12217 46.6114 10.5339 46.9873 11.5656C47.0947 12.1629 46.9873 12.5973 46.7725 12.8145C46.3966 13.2489 45.3763 13.3032 45.0004 13.2489L44.6782 16.2353C44.9467 16.2896 47.4169 16.5068 48.9205 14.9321C49.5112 14.2805 50.2093 13.1403 49.9408 11.1855C49.4038 7.33032 41.8321 6.13575 28.0313 5.32127C27.0647 5.26697 26.1518 5.21267 25.4537 5.15837C20.567 4.77828 12.3509 3.74661 9.82706 3.36652L11.3307 0L0 2.28054Z" transform="translate(0 5.37549)" fill="#CCCCCC"/>
<path d="M18.6338 3.9638C19.3856 3.25792 20.03 2.38914 20.6744 1.41176C20.1374 1.35747 19.6004 1.30316 19.0634 1.24887C17.7209 3.14932 16.1099 4.39819 14.2841 4.72398V0.923075C14.2304 0.923075 14.1767 0.923075 14.0693 0.923075C13.6934 0.923075 13.2638 0.868777 12.7805 0.868777V4.77828C10.74 4.50678 8.91416 2.98642 7.46427 0.597284C6.87357 0.542986 6.33657 0.542983 5.79957 0.488684C6.55137 1.84615 7.41057 3.04072 8.32347 3.9638C6.01437 3.20362 3.97378 1.90045 2.25539 0.217191C1.44989 0.162893 0.751797 0.0542986 0 0C3.27569 3.8552 8.05497 6.29864 13.4249 6.29864H13.4786H13.5323C17.9894 6.29864 22.0169 4.66968 25.1315 1.95475C24.4871 1.90045 23.7353 1.79185 23.0372 1.73755C21.7484 2.66063 20.2448 3.42081 18.6338 3.9638Z" transform="translate(12.5654 29.7012)" fill="#CCCCCC"/>
<path d="M34.0457 12.543C35.0123 10.371 35.5493 7.9276 35.5493 5.37557C35.5493 4.83258 35.4956 4.28959 35.4419 3.74661C35.066 3.74661 34.529 3.74661 33.992 3.74661C34.0457 4.23529 34.0457 4.72399 34.0994 5.21267H28.1924C28.1924 4.77828 28.1387 4.2896 28.1387 3.85521C27.6554 3.85521 27.1721 3.85521 26.6888 3.9095C26.6888 4.34389 26.7425 4.77828 26.7425 5.26697H18.4727V3.9638C18.419 3.9638 18.3653 3.9638 18.2579 3.9638C18.0431 3.9638 17.5598 3.90951 16.9691 3.85521V5.26697H8.69937C8.69937 4.39819 8.75306 3.52941 8.86046 2.71493C8.37717 2.60633 7.89387 2.49774 7.41057 2.38914C7.30317 3.31222 7.24947 4.2896 7.24947 5.26697H1.44989C1.44989 3.69231 1.71839 2.11765 2.14799 0.651586C1.66469 0.434392 1.23509 0.217195 0.805497 0C0.268499 1.68326 0 3.52941 0 5.37557C0 6.19005 0.0537014 6.95023 0.161101 7.76471L0.536998 9.44796C0.966596 9.55656 1.4499 9.61086 2.04059 9.71946C1.77209 8.74208 1.61099 7.71041 1.5036 6.67873H7.30317C7.35687 7.9819 7.51797 9.17647 7.67907 10.371C8.16237 10.4253 8.64566 10.4796 9.18266 10.4796C8.96786 9.23077 8.80677 7.9819 8.75307 6.67873H17.0228V11.0226C17.5598 11.0226 18.0431 11.0769 18.4727 11.0769V6.73303H26.6888C26.6351 8.47059 26.3666 10.1538 26.0444 11.6742C26.5277 11.7285 27.011 11.7828 27.4943 11.8371C27.8702 10.2081 28.085 8.52489 28.1924 6.73303H34.0457C33.8846 8.74208 33.3476 10.6425 32.5421 12.3801C33.1328 12.4344 33.6161 12.4887 34.0457 12.543Z" transform="translate(8.37744 12.543)" fill="#CCCCCC"/>
<path d="M0.388776 3.50859C-0.363021 4.75746 0.0128772 6.11492 1.19427 6.9294C2.37567 7.74388 3.93296 8.06967 5.32916 8.28687C7.47715 8.66696 9.67884 8.82985 11.8805 8.93845C16.8746 9.20994 21.8687 9.15564 26.8091 9.04705C28.7423 8.99275 30.7291 8.93845 32.6623 8.88415C35.3473 8.77556 40.1803 8.55836 39.697 8.72126C37.7101 9.48144 35.6695 10.0787 33.6826 10.7846C32.2327 11.3276 32.8234 13.7167 34.327 13.1737C36.0991 12.5222 37.9249 11.9792 39.7507 11.3276C40.9858 10.8932 43.3486 10.2416 43.7245 8.77555C44.3152 6.33212 40.2877 6.38641 38.9452 6.33212C36.475 6.22352 34.0048 6.33212 31.5883 6.44072C26.9165 6.60361 22.2983 6.71221 17.6264 6.65791C13.2767 6.60361 8.65854 6.65791 4.52366 5.57193C4.14776 5.46334 3.71816 5.35474 3.34226 5.19184C3.28856 5.19184 3.18116 5.13755 3.12746 5.08325C2.96636 4.97465 2.80527 4.92035 2.64417 4.81176C2.37567 4.64886 2.64417 4.81175 2.53677 4.75745C2.48307 4.70316 2.42937 4.64886 2.37567 4.64886C2.26827 4.48596 2.26827 4.70316 2.42937 4.70316L2.37567 4.59456C2.37567 4.59456 2.53677 4.86605 2.42937 4.64886C2.42937 4.59456 2.37567 4.16017 2.42937 4.81176V4.64886C2.59047 4.86605 2.32197 4.92035 2.42937 4.75745C2.48307 4.70316 2.53677 4.43167 2.37567 4.81176C2.42937 4.70316 2.69787 4.37737 2.48307 4.64886C2.69787 4.37737 2.96636 4.16017 3.23486 3.94297C3.07376 4.05157 3.55706 3.72578 3.61076 3.67148C3.82556 3.50859 4.04036 3.39999 4.25516 3.23709C4.84586 2.857 5.49025 2.53121 6.08095 2.25972C7.47715 1.55384 6.24205 -0.563813 4.84586 0.14207C3.34226 1.01085 1.35537 1.93393 0.388776 3.50859Z" transform="translate(2.83301 19.46)" fill="#CCCCCC"/>
<path d="M26.0981 7.38462C25.1315 8.0362 23.9501 8.63348 22.6613 9.12217C21.6947 6.29864 20.3522 3.9095 18.6875 2.33484C21.641 3.25792 24.1649 5.04977 26.0981 7.38462ZM0 6.46154C0.429598 6.62443 0.912896 6.78733 1.50359 7.00453C3.38309 4.88688 5.74588 3.25792 8.48456 2.33484C7.03467 3.74661 5.85328 5.70136 4.94038 8.0362C5.42368 8.1448 5.85328 8.25339 6.33657 8.36199C7.84017 4.50679 10.2567 1.90045 12.9416 1.52036V9.44796C13.4249 9.50226 13.9082 9.55656 14.3915 9.55656V1.52036C17.345 1.95475 19.9226 5.10407 21.3725 9.50226C21.3188 9.50226 21.2651 9.50226 21.2651 9.55656C22.7687 9.50226 24.1112 9.50226 25.3463 9.50226C25.937 9.17647 26.5277 8.85068 27.0647 8.52489C27.2795 8.85068 27.4943 9.17647 27.7091 9.50226C28.2461 9.50226 28.8368 9.50226 29.3738 9.50226C28.9979 8.85068 28.622 8.19909 28.2461 7.60181C27.9776 7.22172 27.7091 6.84163 27.3869 6.46154C24.1112 2.49774 19.2245 0 13.7471 0H13.586H13.5323C8.10867 0 3.22199 2.55204 0 6.46154Z" transform="translate(12.4585)" fill="#CCCCCC"/>
</svg>
