<svg width="12" height="10" viewBox="0 0 12 10" fill="none" xmlns="http://www.w3.org/2000/svg">
<g clip-path="url(#clip0)">
<path d="M9.02886 2.81892H0.697488C0.312213 2.81892 0 3.07748 0 3.39692V9.18577C0 9.5044 0.312213 9.76458 0.697488 9.76458H9.02886C9.41121 9.76458 9.72342 9.5044 9.72342 9.18577V3.39692C9.72342 3.07748 9.41121 2.81892 9.02886 2.81892ZM9.02886 9.18577H0.697488V4.27283H9.02886V9.18577Z" fill="#FF6F00"/>
<path d="M11.3045 0.235413H2.97212C2.58734 0.235413 2.27756 0.493967 2.27756 0.814217V2.49177H2.97212V1.68932H11.3045V6.60226H10.0951V7.18106H11.3045C11.6873 7.18106 12 6.92089 12 6.60226V0.814217C12 0.493967 11.6873 0.235413 11.3045 0.235413Z" fill="#FF6F00"/>
</g>
</svg>
