<svg width="25" height="25" viewBox="0 0 25 25" fill="none" xmlns="http://www.w3.org/2000/svg">
<rect width="25" height="25" rx="3" fill="#FF0000"/>
<path d="M7.2 9.28571L11.871 6.5L7.2 3.71429V9.28571ZM17.604 2.015C17.721 2.45143 17.802 3.03643 17.856 3.77929C17.919 4.52214 17.946 5.16286 17.946 5.72L18 6.5C18 8.53357 17.856 10.0286 17.604 10.985C17.379 11.8207 16.857 12.3593 16.047 12.5914C15.624 12.7121 14.85 12.7957 13.662 12.8514C12.492 12.9164 11.421 12.9443 10.431 12.9443L9 13C5.229 13 2.88 12.8514 1.953 12.5914C1.143 12.3593 0.621 11.8207 0.396 10.985C0.279 10.5486 0.198 9.96357 0.144 9.22071C0.0810001 8.47786 0.0539999 7.83714 0.0539999 7.28L0 6.5C0 4.46643 0.144 2.97143 0.396 2.015C0.621 1.17929 1.143 0.640714 1.953 0.408571C2.376 0.287857 3.15 0.204286 4.338 0.148571C5.508 0.0835713 6.579 0.0557142 7.569 0.0557142L9 0C12.771 0 15.12 0.148571 16.047 0.408571C16.857 0.640714 17.379 1.17929 17.604 2.015Z" transform="translate(4 6)" fill="white"/>
</svg>
