<?xml version="1.0" encoding="UTF-8" standalone="no"?>
<svg width="84px" height="60px" viewBox="0 0 84 60" version="1.1" xmlns="http://www.w3.org/2000/svg" xmlns:xlink="http://www.w3.org/1999/xlink">
    <!-- Generator: Sketch 46.2 (44496) - http://www.bohemiancoding.com/sketch -->
    <title>Group 38</title>
    <desc>Created with Sketch.</desc>
    <defs></defs>
    <g id="Page-1" stroke="none" stroke-width="1" fill="none" fill-rule="evenodd">
        <g id="Group-38">
            <path d="M0,12.7481951 L13.4307805,25.040878 L15.1063415,19.231561 C18.5196098,19.6908293 33.4620488,21.6562927 42.1881463,22.2965366 C43.4078537,22.380878 44.8986829,22.4781951 46.5827805,22.5789268 C71.9244878,24.1110732 78.0356585,26.4480488 78.6977561,28.1143902 C78.8432195,29.1053171 78.726439,29.8001951 78.3583415,30.1805854 C77.6883902,30.8846829 76.0486829,30.9594634 75.3674634,30.8925366 L74.8006341,35.798 C75.2663902,35.845122 79.3547317,36.2354146 81.8890732,33.6204878 C82.9182439,32.5711707 84.0450732,30.6313171 83.5779512,27.4099512 C82.6672683,21.0198049 69.9716585,19.0516098 46.8846341,17.6543415 C45.2230732,17.5542927 43.7486341,17.4634634 42.5456585,17.3705854 C34.3880976,16.7750732 20.6223415,14.9902439 16.3601951,14.42 L18.8941951,8.87804878 L0,12.7481951 Z" id="Fill-1-Copy" fill="#FF7300"></path>
            <path d="M52.3169756,55.8425854 C53.5441951,54.6706829 54.6682927,53.2484878 55.6960976,51.6265366 C54.8062439,51.5466341 53.914,51.4581951 53.0302927,51.3782927 C50.7916585,54.5661951 48.0456098,56.63 45.0427805,57.0943902 L45.0427805,50.7592195 C44.9379512,50.7513659 44.8249268,50.7428293 44.7221463,50.7428293 C44.0870244,50.7039024 43.3716585,50.6707805 42.6009756,50.6318537 L42.6009756,57.1107805 C39.1887317,56.6443415 36.0889268,54.1076098 33.688439,50.1981951 C32.7347317,50.1408293 31.7871707,50.0851707 30.8703415,50.0298537 C32.0996098,52.2845366 33.5279512,54.2373659 35.1106341,55.7705366 C31.2565366,54.469561 27.8118537,52.3176585 24.9380976,49.5630732 C23.6289268,49.4439024 22.3750732,49.3144878 21.1707317,49.1707317 C26.6153659,55.5280976 34.6605854,59.5833171 43.6533659,59.6389756 L43.7496585,59.6389756 L43.8217073,59.6389756 C51.2481951,59.6389756 58.0498049,56.9093171 63.2765854,52.397561 C62.1524878,52.2763415 60.9723902,52.1571707 59.7516585,52.0274146 C57.5027805,53.6579024 55.0056585,54.9585366 52.3169756,55.8425854" id="Fill-3-Copy" fill="#333333"></path>
            <path d="M71.1189756,41.6158537 C72.7016585,37.9860976 73.6000488,33.9800488 73.6000488,29.7721951 C73.6000488,28.8659512 73.5443902,27.9740488 73.4641463,27.0838537 C72.7962439,27.0756585 71.937122,27.0920488 71.0059512,27.1145854 C71.0861951,27.9098537 71.1353659,28.7054634 71.1439024,29.5236098 L61.2756098,29.5236098 C61.2756098,28.761122 61.2260976,28.0150244 61.1953659,27.2607317 C60.3526341,27.277122 59.532439,27.2914634 58.7453659,27.3078537 C58.7863415,28.0396098 58.8273171,28.7693171 58.8273171,29.5236098 L45.0168293,29.5236098 L45.0168293,27.3880976 C44.912,27.3880976 44.7989756,27.3799024 44.6961951,27.3799024 C44.3014634,27.3570244 43.563561,27.3078537 42.5750244,27.2276098 L42.5750244,29.5236098 L28.620439,29.5236098 C28.6286341,28.0624878 28.7252683,26.6501951 28.8526341,25.2607805 C28.0590732,25.0920976 27.2556098,24.9152195 26.46,24.7137561 C26.2998537,26.2882439 26.188878,27.879122 26.1806829,29.5154146 L16.4479512,29.5154146 C16.4725366,26.866 16.898,24.312878 17.6297561,21.8878049 C16.850878,21.5589756 16.1027317,21.2052195 15.3812195,20.8292683 C14.4893171,23.6552195 14,26.6501951 14,29.7721951 C14,31.1144878 14.1048293,32.4219512 14.2813659,33.7147317 L14.8919024,36.5266829 C15.6052195,36.6786341 16.4397561,36.8309268 17.4364878,36.9910732 C16.986439,35.3694634 16.674,33.6921951 16.5363902,31.9654146 L26.2278049,31.9654146 C26.3162439,34.0845366 26.5566341,36.1237561 26.8936585,38.0909268 C27.6892683,38.1629756 28.5156098,38.2285366 29.391122,38.3005854 C29.0295122,36.2757073 28.7723902,34.165122 28.6778049,31.9654146 L42.5750244,31.9654146 L42.5750244,39.0384878 C43.475122,39.0794634 44.2932683,39.1187317 45.0250244,39.1597073 L45.0250244,31.9654146 L58.7863415,31.9654146 C58.6569268,34.855561 58.2642439,37.6101463 57.6782927,40.1871707 C58.4882439,40.2592195 59.3002439,40.3394634 60.0955122,40.4197073 C60.7060488,37.7620976 61.0987317,34.9272683 61.2260976,31.9654146 L71.0636585,31.9654146 C70.7983415,35.289561 69.9146341,38.4358049 68.558,41.3259512 C69.5301463,41.4389756 70.3954146,41.5359512 71.1189756,41.6158537" id="Fill-7-Copy-4" fill="#333333"></path>
            <path d="M5.43933738,38.0966907 C4.14245933,40.1826907 4.84587397,42.4530809 6.7990447,43.7981053 C8.77816665,45.1612273 11.3848984,45.6604468 13.7092398,46.0568858 C17.338313,46.675959 21.0233862,46.9685931 24.6968496,47.1632273 C33.0316301,47.6047395 41.3940691,47.5183492 49.7349959,47.3261053 C52.9987032,47.2506419 56.2617276,47.1482029 59.5250935,47.0461053 C63.9839227,46.9054224 72.1670935,46.47552 71.3206057,46.801959 C68.0104593,48.0783492 64.5866057,49.0211297 61.2498252,50.2193248 C58.7865081,51.1037151 59.8488008,55.0646907 62.3390935,54.170398 C65.3378252,53.0934224 68.4062154,52.2216663 71.4008496,51.1300078 C73.4346057,50.3890322 77.3894349,49.3646419 78.0208008,46.8828858 C79.0421179,42.8662517 72.2469959,42.9406907 70.0121179,42.8587395 C65.8978252,42.7074712 61.7784106,42.8778614 57.6654837,43.0069346 C49.8780691,43.2514224 42.0868984,43.4399102 34.2950447,43.3521541 C26.9918252,43.2698614 19.2921667,43.3149346 12.2959227,41.5963492 C11.6242642,41.4310809 10.9662642,41.2340565 10.3123618,41.0097151 C10.1870447,40.9666907 10.0630935,40.9178614 9.93982519,40.8686907 C9.63967885,40.7187883 9.40816665,40.5852761 9.16982519,40.4606419 C8.68392275,40.2065931 9.1295325,40.4480078 9.01514226,40.3722029 C8.94206909,40.3233736 8.83689836,40.2277639 8.78636177,40.1557151 C8.58114226,39.8641053 8.63475202,40.2523492 8.8608008,40.2694224 C8.83655689,40.2673736 8.75289836,40.1031297 8.74333738,40.0741053 C8.73582519,40.0508858 9.05270324,40.4804468 8.80821543,40.1970322 C8.76587397,40.1482029 8.72421543,39.3597639 8.8392886,40.4869346 C8.83519104,40.4486907 8.86455689,40.2506419 8.83997153,40.2233248 C9.12509348,40.5402029 8.63441055,40.7160565 8.83587397,40.4029346 C8.90382519,40.2970809 9.00421543,39.8593248 8.77850811,40.51152 C8.83723982,40.3421541 9.2975325,39.7476663 8.91919104,40.2202517 C9.28387397,39.764398 9.72675202,39.3686419 10.1829471,39.0070322 C9.95348372,39.1886907 10.6954837,38.6464468 10.8419715,38.5477639 C11.2035813,38.3046419 11.5737276,38.0741541 11.9479715,37.8511785 C12.946752,37.2553248 13.9803618,36.7205931 15.023874,36.2077151 C17.3902154,35.0446907 15.3161667,31.5098614 12.9556301,32.6694712 C10.3321667,33.958837 7.04694714,35.5104468 5.43933738,38.0966907 Z" id="Fill-9-Copy" fill="#FF7300"></path>
            <path d="M64.6373171,12.2216585 C62.9743902,13.3129756 61.0403415,14.2687317 58.8880976,15.0643415 C57.3054146,10.3654634 54.9930244,6.45604878 52.2162439,3.79843902 C57.106,5.40365854 61.3937561,8.36756098 64.6373171,12.2216585 M20.8292683,10.752 C21.5446341,11.0337073 22.395561,11.3297561 23.3267317,11.6421951 C26.4507805,8.12717073 30.4571707,5.41219512 35.0099024,3.87834146 C32.6172683,6.18253659 30.5783902,9.42609756 29.0510244,13.2965854 C29.8220488,13.4898537 30.6009268,13.683122 31.4047317,13.86 C33.941122,7.5002439 37.9328293,3.16331707 42.4999024,2.5302439 L42.4999024,15.6974146 C43.3200976,15.7694634 44.1300488,15.8415122 44.9420488,15.8906829 L44.9420488,2.5544878 C49.9120488,3.31765854 54.1834146,8.46419512 56.6088293,15.8186341 C56.5429268,15.8350244 56.4626829,15.8497073 56.3991707,15.8739512 C58.9437561,15.8186341 61.1595122,15.7694634 63.2147805,15.7530732 C64.2282439,15.2326829 65.1901463,14.6778049 66.0741951,14.0921951 C66.4521951,14.6224878 66.8120976,15.1753171 67.149122,15.7387317 C68.0741463,15.7387317 69.0217073,15.7530732 69.9836098,15.7694634 C69.3976585,14.6863415 68.7563902,13.6254146 68.0492195,12.6225366 C67.5909756,11.9812683 67.1183902,11.3543415 66.620878,10.752 C61.1451707,4.18497561 52.914878,0 43.7209756,0 L43.6489268,0 L43.5440976,0 C34.4242927,0.0573658537 26.2660488,4.23209756 20.8292683,10.752" id="Fill-5-Copy" fill="#333333"></path>
        </g>
    </g>
</svg>