<svg width="200" height="50" viewBox="0 0 200 50" fill="none" xmlns="http://www.w3.org/2000/svg">
<path d="M62.3711 44.8203C62.3711 44.1562 62.1367 43.6484 61.668 43.2969C61.1992 42.9375 60.3555 42.5625 59.1367 42.1719C57.918 41.7734 56.9531 41.3828 56.2422 41C54.3047 39.9531 53.3359 38.543 53.3359 36.7695C53.3359 35.8477 53.5938 35.0273 54.1094 34.3086C54.6328 33.582 55.3789 33.0156 56.3477 32.6094C57.3242 32.2031 58.418 32 59.6289 32C60.8477 32 61.9336 32.2227 62.8867 32.668C63.8398 33.1055 64.5781 33.7266 65.1016 34.5312C65.6328 35.3359 65.8984 36.25 65.8984 37.2734H62.3828C62.3828 36.4922 62.1367 35.8867 61.6445 35.457C61.1523 35.0195 60.4609 34.8008 59.5703 34.8008C58.7109 34.8008 58.043 34.9844 57.5664 35.3516C57.0898 35.7109 56.8516 36.1875 56.8516 36.7812C56.8516 37.3359 57.1289 37.8008 57.6836 38.1758C58.2461 38.5508 59.0703 38.9023 60.1562 39.2305C62.1562 39.832 63.6133 40.5781 64.5273 41.4688C65.4414 42.3594 65.8984 43.4688 65.8984 44.7969C65.8984 46.2734 65.3398 47.4336 64.2227 48.2773C63.1055 49.1133 61.6016 49.5312 59.7109 49.5312C58.3984 49.5312 57.2031 49.293 56.125 48.8164C55.0469 48.332 54.2227 47.6719 53.6523 46.8359C53.0898 46 52.8086 45.0312 52.8086 43.9297H56.3359C56.3359 45.8125 57.4609 46.7539 59.7109 46.7539C60.5469 46.7539 61.1992 46.5859 61.668 46.25C62.1367 45.9062 62.3711 45.4297 62.3711 44.8203Z" fill="#333333"/>
<path d="M82.1758 49.2969H78.6602V41.9844H71.8047V49.2969H68.2891V32.2344H71.8047V39.1484H78.6602V32.2344H82.1758V49.2969Z" fill="#333333"/>
<path d="M88.9961 49.2969H85.4805V32.2344H88.9961V49.2969Z" fill="#333333"/>
<path d="M106.141 49.2969H102.625L95.7812 38.0703V49.2969H92.2656V32.2344H95.7812L102.637 43.4844V32.2344H106.141V49.2969Z" fill="#333333"/>
<path d="M119.055 45.7812H112.891L111.719 49.2969H107.98L114.332 32.2344H117.59L123.977 49.2969H120.238L119.055 45.7812ZM113.84 42.9336H118.105L115.961 36.5469L113.84 42.9336Z" fill="#333333"/>
<path d="M127.234 46.2969C127.766 46.2969 128.176 46.4492 128.465 46.7539C128.754 47.0508 128.898 47.4258 128.898 47.8789C128.898 48.3242 128.754 48.6953 128.465 48.9922C128.176 49.2812 127.766 49.4258 127.234 49.4258C126.727 49.4258 126.324 49.2812 126.027 48.9922C125.73 48.7031 125.582 48.332 125.582 47.8789C125.582 47.4258 125.727 47.0508 126.016 46.7539C126.305 46.4492 126.711 46.2969 127.234 46.2969Z" fill="#FF7600"/>
<path d="M145.457 43.7422C145.285 45.5625 144.613 46.9844 143.441 48.0078C142.27 49.0234 140.711 49.5312 138.766 49.5312C137.406 49.5312 136.207 49.2109 135.168 48.5703C134.137 47.9219 133.34 47.0039 132.777 45.8164C132.215 44.6289 131.922 43.25 131.898 41.6797V40.0859C131.898 38.4766 132.184 37.0586 132.754 35.832C133.324 34.6055 134.141 33.6602 135.203 32.9961C136.273 32.332 137.508 32 138.906 32C140.789 32 142.305 32.5117 143.453 33.5352C144.602 34.5586 145.27 36.0039 145.457 37.8711H142.504C142.363 36.6445 142.004 35.7617 141.426 35.2227C140.855 34.6758 140.016 34.4023 138.906 34.4023C137.617 34.4023 136.625 34.875 135.93 35.8203C135.242 36.7578 134.891 38.1367 134.875 39.957V41.4688C134.875 43.3125 135.203 44.7188 135.859 45.6875C136.523 46.6562 137.492 47.1406 138.766 47.1406C139.93 47.1406 140.805 46.8789 141.391 46.3555C141.977 45.832 142.348 44.9609 142.504 43.7422H145.457Z" fill="#FF7600"/>
<path d="M151.246 49.2969H148.293V32.2344H151.246V49.2969Z" fill="#FF7600"/>
<path d="M166.867 34.625H161.547V49.2969H158.605V34.625H153.332V32.2344H166.867V34.625Z" fill="#FF7600"/>
<path d="M174.871 40.3203L178.797 32.2344H182.078L176.359 43.0156V49.2969H173.383V43.0156L167.652 32.2344H170.945L174.871 40.3203Z" fill="#FF7600"/>
<path d="M36 25.257C36 24.3375 35.3716 23.5185 34.4325 23.2145L20.8437 18.8084V13.7994H27.8753C29.1693 13.7994 30.219 12.924 30.219 11.8449V7.02674C30.219 5.94709 29.1693 5.0722 27.8753 5.0722H19.0911C18.9018 5.02651 18.7046 5 18.5 5C17.7959 5 17.1657 5.28824 16.7364 5.74233C16.3762 6.08585 16.1563 6.5343 16.1563 7.02674V18.8084L2.56754 23.2145C1.62836 23.5185 1 24.3375 1 25.257V27H36V25.257Z" fill="#FF7600"/>
<path d="M6.16667 30.6451H30.8333C34.2391 30.6451 37 33.3418 37 36.6684V43.9767C37 47.3031 34.2391 50 30.8333 50H6.16667C2.76086 50 0 47.3031 0 43.9767V36.6684C0 33.3418 2.76086 30.6451 6.16667 30.6451ZM26.884 43.9767H29.8487L31.8595 41.0309C32.1352 40.6262 32.1352 40.0991 31.8595 39.6945L29.8487 36.6684H26.884L29.3507 40.3627L26.884 43.9767ZM19.484 43.9767H22.4487L24.4595 41.0309C24.7353 40.6262 24.7353 40.0991 24.4595 39.6945L22.4487 36.6684H19.484L21.9507 40.3627L19.484 43.9767ZM12.084 43.9767H15.0487L17.0595 41.0309C17.3353 40.6262 17.3353 40.0991 17.0595 39.6945L15.0487 36.6684H12.084L14.5507 40.3627L12.084 43.9767ZM4.68403 43.9767H7.64872L9.65955 41.0309C9.93532 40.6262 9.93532 40.0991 9.65955 39.6945L7.64872 36.6684H4.68403L7.1507 40.3627L4.68403 43.9767Z" fill="#333333"/>
</svg>
