<svg width="50" height="33" viewBox="0 0 50 33" fill="none" xmlns="http://www.w3.org/2000/svg">
<path d="M41.643 6.951H36.104C35.196 6.956 34.389 7.382 33.866 8.044L33.861 8.05V3.341C33.861 1.496 32.365 0 30.52 0C30.512 0 30.504 0 30.496 0H3.341C1.496 0 0 1.496 0 3.341V24.891C0 26.741 1.493 28.242 3.34 28.255H5.92C5.813 27.853 5.748 27.391 5.741 26.914V26.91C5.734 26.801 5.73 26.674 5.73 26.546C5.73 23.276 8.381 20.626 11.65 20.626C14.919 20.626 17.57 23.277 17.57 26.546C17.57 26.674 17.566 26.801 17.558 26.927L17.559 26.91C17.552 27.406 17.495 27.885 17.393 28.348L17.402 28.301H30.498C32.346 28.288 33.839 26.787 33.839 24.937V24.556C34.155 24.959 34.572 25.268 35.053 25.447L35.072 25.453C35.723 22.851 38.041 20.955 40.801 20.955C43.634 20.955 46 22.953 46.569 25.616L46.576 25.655H46.89C48.5 25.655 49.805 24.35 49.805 22.74V17.739L41.643 6.951ZM43.661 17.356H36.238V9.463H39.848C41.953 9.463 43.66 11.17 43.66 13.275L43.661 17.356ZM40.858 22.424C38.208 22.424 36.059 24.573 36.059 27.223C36.059 29.873 38.208 32.022 40.858 32.022C43.508 32.022 45.657 29.873 45.657 27.223C45.657 24.573 43.508 22.424 40.858 22.424V22.424ZM40.858 30.026C39.31 30.026 38.055 28.771 38.055 27.223C38.055 25.675 39.31 24.42 40.858 24.42C42.406 24.42 43.661 25.675 43.661 27.223C43.661 28.759 42.416 30.004 40.88 30.004C40.872 30.004 40.864 30.004 40.856 30.004H40.857L40.858 30.026ZM11.549 22.424C8.899 22.424 6.75 24.573 6.75 27.223C6.75 29.873 8.899 32.022 11.549 32.022C14.199 32.022 16.348 29.873 16.348 27.223C16.348 24.573 14.199 22.424 11.549 22.424V22.424ZM11.549 30.026C10.001 30.026 8.746 28.771 8.746 27.223C8.746 25.675 10.001 24.42 11.549 24.42C13.089 24.42 14.339 25.662 14.352 27.199V27.2C14.352 27.207 14.352 27.215 14.352 27.223C14.352 28.759 13.107 30.004 11.571 30.004C11.563 30.004 11.555 30.004 11.547 30.004H11.548L11.549 30.026Z" fill="#705F66"/>
</svg>
