<svg width="49" height="14" viewBox="0 0 49 14" fill="none" xmlns="http://www.w3.org/2000/svg">
<g clip-path="url(#clip0)">
<path d="M10.7177 1.8375L8.89835 8.26875H8.58708L6.76768 1.8375C6.45641 0.749218 5.47962 0 4.3633 0H0V14H4.36867V5.72577H4.67997L7.18095 14H10.3045L12.8001 5.72577H13.1114V14H17.4801V0H13.1168C12.0058 0 11.029 0.749218 10.7177 1.8375ZM34.9064 14H39.3019V9.86015H43.7244C46.0375 9.86015 48.0073 8.52578 48.7692 6.65H34.9064V14ZM27.119 1.47656L24.0438 8.27423H23.7325V0H19.3639V14H23.0724C24.0492 14 24.9346 13.4203 25.3426 12.5234L28.4178 5.73125H28.7292V14H33.0978V0H29.3892C28.4124 0 27.527 0.579687 27.119 1.47656Z" fill="#006848"/>
<path d="M44.1592 0C45.4204 0 46.5636 0.492188 47.4276 1.30156C48.3937 2.19844 49.0001 3.48908 49.0001 4.92735C49.0001 5.22265 48.9679 5.5125 48.9196 5.79688H40.8048C38.057 5.79688 35.7277 3.95937 34.9441 1.42188C34.9334 1.39453 34.928 1.36172 34.9173 1.3289C34.8958 1.25234 34.8797 1.17031 34.8583 1.09375C34.7778 0.73828 34.7241 0.377342 34.7026 0H44.1592Z" fill="url(#paint0_linear)"/>
</g>
<defs>
<linearGradient id="paint0_linear" x1="49.0002" y1="18.1298" x2="34.7902" y2="18.1298" gradientUnits="userSpaceOnUse">
<stop stop-color="#1E5CD8"/>
<stop offset="1" stop-color="#02AFFF"/>
</linearGradient>
<clipPath id="clip0">
<rect width="49" height="14" fill="white"/>
</clipPath>
</defs>
</svg>
