<svg width="181" height="68" viewBox="0 0 181 68" fill="none" xmlns="http://www.w3.org/2000/svg">
<path d="M83.7387 52.5926V61.454H78.5566V36.3037H88.368C90.2566 36.3037 91.9148 36.6492 93.3428 37.3401C94.7822 38.0311 95.8877 39.0157 96.6593 40.2939C97.4308 41.5606 97.8166 43.0058 97.8166 44.6296C97.8166 47.0939 96.9702 49.0401 95.2774 50.468C93.5961 51.8844 91.2642 52.5926 88.2816 52.5926H83.7387ZM83.7387 48.3952H88.368C89.7384 48.3952 90.7805 48.0727 91.4945 47.4279C92.22 46.783 92.5827 45.8617 92.5827 44.6641C92.5827 43.4319 92.22 42.4358 91.4945 41.6758C90.769 40.9157 89.7671 40.5242 88.4889 40.5012H83.7387V48.3952Z" fill="#333333"/>
<path d="M110.703 52.2472H106.574V61.454H101.392V36.3037H110.737C113.708 36.3037 116 36.9659 117.612 38.2902C119.224 39.6145 120.03 41.4858 120.03 43.9041C120.03 45.6199 119.656 47.0536 118.908 48.2052C118.171 49.3452 117.048 50.255 115.539 50.9344L120.98 61.2121V61.454H115.418L110.703 52.2472ZM106.574 48.0497H110.754C112.056 48.0497 113.063 47.7215 113.777 47.0651C114.491 46.3972 114.848 45.4817 114.848 44.3186C114.848 43.1325 114.509 42.1997 113.829 41.5203C113.161 40.8409 112.131 40.5012 110.737 40.5012H106.574V48.0497Z" fill="#333333"/>
<path d="M129.496 61.454H124.314V36.3037H129.496V61.454Z" fill="#333333"/>
<path d="M154.059 53.0763C153.863 55.7825 152.862 57.9129 151.054 59.4675C149.257 61.0221 146.885 61.7994 143.937 61.7994C140.712 61.7994 138.173 60.7169 136.319 58.552C134.477 56.3755 133.555 53.393 133.555 49.6043V48.067C133.555 45.6487 133.982 43.5183 134.834 41.6758C135.686 39.8333 136.901 38.4226 138.478 37.4438C140.068 36.4534 141.91 35.9583 144.006 35.9583C146.908 35.9583 149.246 36.7356 151.019 38.2902C152.792 39.8448 153.817 42.027 154.094 44.8368H148.912C148.785 43.2131 148.33 42.0385 147.547 41.313C146.775 40.576 145.595 40.2075 144.006 40.2075C142.279 40.2075 140.983 40.8294 140.119 42.0731C139.267 43.3053 138.83 45.2226 138.807 47.8252V49.7252C138.807 52.4429 139.215 54.4294 140.033 55.6846C140.862 56.9398 142.163 57.5674 143.937 57.5674C145.538 57.5674 146.729 57.2047 147.512 56.4792C148.307 55.7422 148.762 54.6079 148.877 53.0763H154.059Z" fill="#333333"/>
<path d="M172.594 50.5544H162.644V57.291H174.321V61.454H157.462V36.3037H174.286V40.5012H162.644V46.4951H172.594V50.5544Z" fill="#333333"/>
<path d="M90.8793 24.7821C90.8793 23.8218 90.5399 23.0874 89.861 22.579C89.1822 22.0593 87.9603 21.517 86.1954 20.9521C84.4304 20.3758 83.0332 19.8109 82.0036 19.2573C79.1978 17.7434 77.7949 15.7041 77.7949 13.1394C77.7949 11.8063 78.1683 10.62 78.915 9.58053C79.673 8.52981 80.7535 7.71069 82.1564 7.12319C83.5706 6.53569 85.1545 6.24194 86.9081 6.24194C88.6731 6.24194 90.2457 6.56394 91.626 7.20793C93.0062 7.84062 94.0754 8.73882 94.8334 9.90252C95.6028 11.0662 95.9874 12.3881 95.9874 13.8682H90.8962C90.8962 12.7383 90.5399 11.8627 89.8271 11.2413C89.1143 10.6087 88.1131 10.2923 86.8233 10.2923C85.5788 10.2923 84.6115 10.5578 83.9213 11.0888C83.2312 11.6085 82.8861 12.2977 82.8861 13.1564C82.8861 13.9585 83.2877 14.6308 84.091 15.1731C84.9056 15.7154 86.0992 16.2238 87.6718 16.6983C90.5681 17.5683 92.6782 18.6472 94.0019 19.9352C95.3256 21.2232 95.9874 22.8275 95.9874 24.7482C95.9874 26.8835 95.1785 28.5613 93.5606 29.7815C91.9428 30.9904 89.7649 31.5948 87.0269 31.5948C85.1262 31.5948 83.3952 31.2503 81.8339 30.5611C80.2726 29.8606 79.079 28.9059 78.2531 27.697C77.4385 26.4881 77.0312 25.0872 77.0312 23.4941H82.1394C82.1394 26.217 83.7686 27.5784 87.0269 27.5784C88.2375 27.5784 89.1822 27.3355 89.861 26.8497C90.5399 26.3525 90.8793 25.6634 90.8793 24.7821Z" fill="#FF3501"/>
<path d="M119.56 31.2559H114.468V20.6809H104.541V31.2559H99.4494V6.58089H104.541V16.5797H114.468V6.58089H119.56V31.2559Z" fill="#FF3501"/>
<path d="M129.436 31.2559H124.345V6.58089H129.436V31.2559Z" fill="#FF3501"/>
<path d="M154.264 31.2559H149.173L139.262 15.0206V31.2559H134.171V6.58089H139.262L149.19 22.8501V6.58089H154.264V31.2559Z" fill="#FF3501"/>
<path d="M172.966 26.1718H164.04L162.342 31.2559H156.929L166.127 6.58089H170.845L180.094 31.2559H174.68L172.966 26.1718ZM165.414 22.0536H171.591L168.486 12.8174L165.414 22.0536Z" fill="#FF3501"/>
<path d="M63.4634 33.7915C63.3864 15.8293 53.5048 1.00977 40.9656 0.051L40.9646 0.0499375C40.5349 0.017 40.1021 0 39.6668 0H23.8001C17.9499 0 12.5904 3.03503 8.44236 8.05455L8.79139 7.96729L16.6884 5.70974C17.008 5.62023 17.3514 5.67229 17.6279 5.85703L20.4 7.70326L23.1711 5.85703C23.5089 5.63032 23.9429 5.60429 24.3067 5.78558L28.2564 7.75984C27.7974 8.35709 27.3531 8.97812 26.9281 9.63103L23.8806 8.10781L21.0281 10.0095C20.6473 10.2634 20.152 10.2634 19.7713 10.0095L16.8076 8.03303L9.37856 10.1558L6.34791 10.914C5.93991 11.543 5.5501 12.1947 5.1761 12.8667L6.3843 13.855L9.06578 15.6377L11.838 13.7905C12.2188 13.5355 12.714 13.5355 13.0948 13.7905L15.867 15.6367L18.638 13.7905C18.9757 13.5637 19.4097 13.5377 19.7735 13.719L23.781 15.7227C23.5 16.4175 23.2358 17.1325 22.9865 17.8602L19.3473 16.0412L16.4946 17.943C16.1139 18.1968 15.6186 18.1968 15.2377 17.943L12.4667 16.0957L9.69465 17.943C9.31388 18.1968 8.81862 18.1968 8.43771 17.943L5.03771 15.6763L4.11174 14.9192C2.50923 18.2818 1.32374 22.0773 0.646 26.1528L1.547 25.2608L4.85523 21.8733C5.06719 21.658 5.35726 21.5344 5.65994 21.5333C5.95013 21.5423 6.25374 21.6511 6.46797 21.8653L9.06671 24.4629L11.6655 21.8653C12.1075 21.4221 12.8249 21.4221 13.268 21.8653L15.8667 24.4629L18.4655 21.8653C18.9075 21.4221 19.6249 21.4221 20.068 21.8653L21.4972 23.2945C21.3159 24.157 21.1526 25.0308 21.0144 25.9215C20.9158 25.8694 20.8149 25.8173 20.7322 25.7345L19.2667 24.2691L16.6681 26.868C16.2249 27.31 15.5076 27.31 15.0656 26.868L12.4668 24.2692L9.8681 26.868C9.42491 27.31 8.70759 27.31 8.26559 26.868L5.67587 24.2783L3.15536 26.8588L0.188328 29.7975C0.155524 30.1715 0.126039 30.5467 0.102266 30.9253L1.71607 31.8943L5.44252 33.754L8.26559 30.932C8.70759 30.4888 9.42504 30.4888 9.8681 30.932L12.4668 33.5296L15.0656 30.932C15.4328 30.5648 16.004 30.4945 16.4494 30.7608L20.4126 33.1386C20.4081 33.4253 20.4001 33.7109 20.4001 33.9999C20.4001 34.6016 20.4114 35.1989 20.4307 35.7928L16.0412 33.159L13.268 35.9345C12.8248 36.3765 12.1075 36.3765 11.6655 35.9345L9.06671 33.3358L6.46797 35.9345C6.12345 36.2791 5.59752 36.3663 5.15897 36.1465L0.62568 33.8798L0.00796893 33.5093C0.00677362 33.6735 0 33.8357 0 34C0 37.9383 0.476 41.7203 1.343 45.2415L4.72374 40.171C4.91194 39.8888 5.21674 39.7052 5.55448 39.6712C5.89448 39.6395 6.22771 39.7585 6.46797 39.9987L9.06671 42.5963L11.6655 39.9987C12.1075 39.5555 12.8249 39.5555 13.268 39.9987L15.8667 42.5963L18.4655 39.9987C18.9075 39.5555 19.6249 39.5555 20.068 39.9987L20.8273 40.757C20.9745 41.9175 21.1627 43.0554 21.3837 44.1705C21.1457 44.1388 20.9145 44.0503 20.732 43.868L19.2666 42.4025L16.6678 45.0013C16.2246 45.4433 15.5073 45.4433 15.0653 45.0013L12.4666 42.4025L9.86784 45.0013C9.42464 45.4433 8.70732 45.4433 8.26532 45.0013L5.84229 42.5782L2.15462 48.11C2.61933 49.5584 3.1531 50.9524 3.75036 52.283L4.92907 51.2732L7.1323 49.0654C7.5743 48.6224 8.29175 48.6224 8.73481 49.0654L11.3336 51.663L13.9323 49.0654C14.3743 48.6224 15.0918 48.6224 15.5348 49.0654L17.9568 51.4874L19.4573 49.2377C19.7735 48.7629 20.3957 48.5974 20.9068 48.8524L22.872 49.835C23.2313 50.9139 23.6303 51.9554 24.0586 52.963L20.7878 51.3275L19.0765 53.8945C18.8883 54.1767 18.5823 54.3603 18.2447 54.3943C17.9013 54.4238 17.5715 54.307 17.3324 54.0678L14.7337 51.4691L12.1348 54.068C11.6916 54.51 10.9743 54.51 10.5323 54.068L7.93355 51.4692L6.4681 52.9347L4.7681 54.3922C6.06687 56.8594 7.59807 59.0615 9.30936 60.9451L10.7634 60.2176L14.1044 57.9906C14.4852 57.7356 14.9805 57.7356 15.3612 57.9906L18.1334 59.8368L20.9044 57.9906C21.2852 57.7356 21.7805 57.7356 22.1612 57.9906L24.9334 59.8368L26.9769 58.4756C27.3984 59.1194 27.8404 59.7326 28.2949 60.3206L25.5614 62.143C25.1806 62.3968 24.6853 62.3968 24.3044 62.143L21.5334 60.2957L18.7614 62.143C18.3806 62.3968 17.8853 62.3968 17.5044 62.143L14.7334 60.2957L11.9614 62.143C11.9228 62.169 11.8821 62.1928 11.8401 62.2132L10.9946 62.636C14.6949 66.0245 19.0878 68 23.8001 68H39.6668C40.0578 68 40.4556 67.9842 40.858 67.9535H40.8592C40.8875 67.9535 40.917 67.9535 40.9454 67.9513C41.503 67.9082 42.0935 67.8265 42.7395 67.7076C52.7932 65.8625 60.9964 55.0856 63.0035 40.7048C63.2902 38.5106 63.4455 36.2575 63.4647 34L63.4634 33.7915ZM60.7581 40.4C58.8564 54.0158 51.1758 64.1297 41.8802 65.5385C41.5334 65.5917 41.1844 65.6517 40.8444 65.6812C40.8206 65.679 40.7979 65.6745 40.7741 65.6722C40.4431 65.6394 40.1146 65.5929 39.7881 65.5327C39.6736 65.5112 39.5614 65.484 39.447 65.4602C39.2078 65.4092 38.9698 65.3537 38.7342 65.289C38.6095 65.2538 38.4849 65.2176 38.3614 65.1791C38.1325 65.1076 37.9047 65.0306 37.678 64.9456C37.5624 64.9036 37.4457 64.8618 37.3312 64.8153C37.0705 64.7098 36.8132 64.5954 36.5572 64.473C36.4835 64.4378 36.4076 64.4062 36.3339 64.37C35.9996 64.2034 35.6675 64.022 35.3411 63.827C35.3014 63.8033 35.2641 63.776 35.2244 63.7523C34.9399 63.5777 34.6589 63.3941 34.3812 63.1992C34.2984 63.1414 34.2157 63.079 34.1341 63.019C33.8961 62.8455 33.6604 62.6654 33.4281 62.4773C33.3466 62.4115 33.2649 62.3447 33.1844 62.2767C32.9384 62.0704 32.6959 61.8552 32.4568 61.6319C32.4001 61.5797 32.3436 61.5288 32.2868 61.4754C31.3723 60.6027 30.5064 59.6112 29.6961 58.5117C29.6688 58.4743 29.6416 58.4358 29.6133 58.3985C29.3674 58.0596 29.1248 57.7117 28.8891 57.3535C28.8653 57.3172 28.8426 57.282 28.8188 57.247C27.7751 55.6467 26.8389 53.8595 26.0309 51.9169C25.9776 51.7877 25.9243 51.6597 25.8721 51.5294C25.6194 50.9038 25.3803 50.2624 25.1559 49.6073C25.1536 49.6028 25.1524 49.5983 25.1514 49.5938C24.9269 48.941 24.7173 48.2746 24.5212 47.5946C24.5189 47.5888 24.5177 47.5833 24.5155 47.5776C24.325 46.9156 24.1494 46.2391 23.9862 45.5523C23.9715 45.4911 23.9579 45.4276 23.9432 45.3665C23.7902 44.7092 23.6485 44.0417 23.5216 43.3639C23.5171 43.3379 23.5114 43.3129 23.5069 43.2869C23.3811 42.6092 23.2711 41.9189 23.1726 41.2231C23.1544 41.0996 23.1386 40.9761 23.1228 40.8526C23.0343 40.193 22.9562 39.5278 22.8928 38.8534C22.8893 38.8148 22.8848 38.7763 22.8815 38.7366C22.818 38.0453 22.7727 37.3449 22.7375 36.6388C22.7295 36.4756 22.7228 36.3113 22.716 36.147C22.6865 35.4365 22.6672 34.7225 22.6672 34.0005C22.6672 33.4735 22.6752 32.9488 22.69 32.4286C22.6957 32.262 22.7058 32.0988 22.7127 31.9333C22.7262 31.5798 22.7387 31.2261 22.7591 30.8748C22.7727 30.656 22.792 30.4408 22.8079 30.2231C22.8294 29.9306 22.8476 29.636 22.8736 29.3448C22.8974 29.0841 22.9281 28.8268 22.9552 28.5673C22.9801 28.3236 23.0027 28.0778 23.0311 27.8363C23.0617 27.5813 23.0991 27.3308 23.1342 27.077C23.167 26.8356 23.1965 26.592 23.2317 26.3517C23.2691 26.1058 23.3132 25.8632 23.3541 25.6195C23.3939 25.3781 23.4312 25.1333 23.4742 24.8942C23.5195 24.646 23.5717 24.4024 23.6204 24.1565C23.6657 23.9264 23.7089 23.694 23.7576 23.4662C23.8121 23.209 23.8732 22.9585 23.9321 22.7047C23.982 22.4927 24.0274 22.2774 24.0794 22.0677C24.1429 21.8093 24.2132 21.5555 24.2812 21.3005C24.3344 21.101 24.3844 20.8982 24.4399 20.701C24.5113 20.4482 24.5884 20.2012 24.6631 19.953C24.7221 19.758 24.7776 19.5608 24.8389 19.3682C24.9159 19.1234 24.9998 18.8854 25.0803 18.644C25.1449 18.4535 25.2061 18.2587 25.273 18.0705C25.3625 17.8167 25.4588 17.5707 25.5518 17.3213C25.6163 17.1525 25.6765 16.9801 25.7422 16.8135C25.8453 16.5518 25.9542 16.2968 26.0607 16.0406C26.123 15.8921 26.182 15.7403 26.2455 15.594C26.3554 15.3413 26.471 15.0965 26.5844 14.8495C26.6512 14.7055 26.7147 14.557 26.7839 14.4143C26.8984 14.1728 27.0196 13.9395 27.1386 13.7037C27.2112 13.562 27.2792 13.417 27.3529 13.2777C27.4753 13.0454 27.6022 12.8197 27.7291 12.5931C27.8039 12.4583 27.8764 12.32 27.9536 12.1863C28.0805 11.9665 28.212 11.7534 28.3434 11.5393C28.4239 11.4067 28.5021 11.2707 28.5836 11.1415C28.7174 10.9307 28.8556 10.7278 28.9928 10.5227C29.0766 10.397 29.1583 10.2689 29.2433 10.1453C29.385 9.94128 29.5311 9.74525 29.6763 9.54802C29.7613 9.43248 29.844 9.31348 29.9301 9.20006C30.0786 9.00509 30.2316 8.81808 30.3846 8.63002C30.4706 8.52231 30.5558 8.41128 30.643 8.30702C30.7995 8.12122 30.9593 7.94431 31.119 7.76528C31.2075 7.66673 31.2935 7.56354 31.3831 7.46725C31.5428 7.29499 31.7071 7.1307 31.8715 6.96522C31.9633 6.87225 32.054 6.7737 32.1481 6.68299C32.3113 6.52428 32.479 6.37473 32.6456 6.2228C32.7431 6.13434 32.8383 6.04257 32.9358 5.95651C33.1058 5.80922 33.2792 5.67096 33.4515 5.53151C33.55 5.45102 33.6465 5.36722 33.7462 5.29005C33.9219 5.15405 34.102 5.02828 34.2812 4.90025C34.3797 4.8288 34.4784 4.75296 34.5781 4.68496C34.7549 4.5637 34.9363 4.45373 35.1164 4.34151C35.2219 4.27577 35.3261 4.20431 35.4314 4.14202C35.6117 4.03551 35.7952 3.93922 35.9777 3.84173C36.0865 3.78277 36.1942 3.72048 36.303 3.66496C36.4877 3.57199 36.6758 3.49045 36.8629 3.40545C36.9729 3.35564 37.0827 3.30119 37.1939 3.2547C37.3809 3.17648 37.5713 3.10848 37.7606 3.03941C37.8739 2.99745 37.9873 2.95096 38.1018 2.91245C38.29 2.84896 38.4803 2.79796 38.6707 2.74364C38.7897 2.70964 38.9076 2.67112 39.0266 2.64058C39.2147 2.59303 39.4063 2.55784 39.5955 2.51932C39.719 2.49329 39.8426 2.4638 39.9661 2.44229C40.1553 2.40948 40.3468 2.38903 40.5373 2.36526C40.6575 2.35052 40.7753 2.33126 40.8955 2.32103C52.2175 3.264 61.1267 17.0623 61.198 33.7778L61.1992 33.9908C61.1798 36.1477 61.0313 38.3067 60.7581 40.4Z" fill="#333333"/>
<path d="M31.3147 20.1836C31.2772 20.1473 31.2432 20.1076 31.2104 20.0658L30.8012 19.532C29.2462 23.5882 28.3328 28.5578 28.3328 33.999C28.3328 39.4107 29.236 44.3577 30.7751 48.4014L31.2748 47.8562C30.082 44.2929 29.0195 40.0102 29.0195 33.999C29.0198 27.9888 30.0156 23.2421 31.3147 20.1836Z" fill="#333333"/>
<path d="M41.9331 9.06592C37.8836 9.06592 34.3126 12.1724 31.8419 17.1614L32.9639 18.6279C35.6612 21.3479 37.3997 27.3648 37.3997 33.9993C37.3997 40.6815 35.6362 46.7369 32.906 49.4286L31.7625 50.6775C34.2354 55.7605 37.8405 58.9328 41.933 58.9328C49.5592 58.9328 55.533 47.9813 55.533 33.9995C55.533 20.0176 49.5593 9.06592 41.9331 9.06592Z" fill="#333333"/>
<path fill-rule="evenodd" clip-rule="evenodd" d="M65.8635 10.5539C66.0968 10.3705 66.1373 10.0326 65.9538 9.79927L59.8354 2.01729C59.6519 1.78396 59.3141 1.74352 59.0807 1.92697L47.5922 10.9596C47.4373 11.0814 47.3614 11.2782 47.3946 11.4724L48.0429 17.2589C48.0735 17.4382 48.1928 17.59 48.3599 17.662L53.83 19.6576C54.0109 19.7356 54.2201 19.7084 54.375 19.5866L65.8635 10.5539ZM52.8614 15.6082C53.7121 15.345 54.1883 14.4421 53.9252 13.5914C53.662 12.7408 52.7591 12.2645 51.9085 12.5276C51.0578 12.7908 50.5815 13.6937 50.8447 14.5444C51.1078 15.395 52.0107 15.8713 52.8614 15.6082Z" fill="#FF3501"/>
</svg>
