<svg width="160" height="66" viewBox="0 0 160 66" fill="none" xmlns="http://www.w3.org/2000/svg">
<path d="M0 13.9711L14.5967 27.5496L16.458 21.1073C20.1807 21.6028 36.4428 23.7833 45.9454 24.4771C47.3169 24.5762 48.8843 24.6753 50.7457 24.7744C78.3717 26.4594 85.0333 29.0363 85.719 30.9195C85.9149 32.0097 85.719 32.8026 85.3271 33.1991C84.6414 33.992 82.7801 34.0911 82.0943 33.992L81.5065 39.4432C81.9964 39.5423 86.5027 39.9388 89.2457 37.0645C90.3233 35.8751 91.5969 33.7938 91.1071 30.2257C90.1274 23.1886 76.3144 21.0081 51.1375 19.5214C49.3741 19.4223 47.7088 19.3232 46.4352 19.2241C37.5204 18.5303 22.5319 16.6472 17.9275 15.9534L20.6705 9.80835L0 13.9711Z" fill="white"/>
<path d="M56.919 61.4522C58.2905 60.1637 59.4661 58.5779 60.6416 56.7939C59.662 56.6947 58.6823 56.5956 57.7027 56.4965C55.2536 59.9655 52.3146 62.2451 48.9838 62.8398V55.9018C48.8859 55.9018 48.7879 55.9018 48.592 55.9018C47.9062 55.9018 47.1225 55.8027 46.2408 55.8027V62.9389C42.5182 62.4433 39.1874 59.6681 36.5423 55.3072C35.4647 55.2081 34.4851 55.208 33.5054 55.1089C34.8769 57.5868 36.4444 59.7673 38.1098 61.4522C33.8973 60.0646 30.1746 57.6859 27.0398 54.6134C25.5703 54.5143 24.2968 54.316 22.9253 54.2169C28.9011 61.254 37.62 65.7141 47.4164 65.7141H47.5144H47.6123C55.7434 65.7141 63.0907 62.7407 68.7727 57.785C67.5971 57.6859 66.2256 57.4877 64.9521 57.3885C62.6009 59.0735 59.8579 60.4611 56.919 61.4522Z" fill="#333333"/>
<path d="M77.3988 45.7876C79.1621 41.8231 80.1418 37.363 80.1418 32.7047C80.1418 31.7135 80.0438 30.7224 79.9459 29.7313C79.2601 29.7313 78.2805 29.7313 77.3008 29.7313C77.3988 30.6233 77.3988 31.5153 77.4967 32.4073H66.7206C66.7206 31.6144 66.6227 30.7224 66.6227 29.9295C65.741 29.9295 64.8593 29.9295 63.9776 30.0286C63.9776 30.8215 64.0756 31.6144 64.0756 32.5064H48.9891V30.1277C48.8911 30.1277 48.7931 30.1277 48.5972 30.1277C48.2053 30.1277 47.3237 30.0286 46.2461 29.9295V32.5064H31.1595C31.1595 30.9206 31.2575 29.3348 31.4534 27.8481C30.5717 27.6499 29.69 27.4517 28.8084 27.2534C28.6124 28.9384 28.5145 30.7224 28.5145 32.5064H17.9343C17.9343 29.6322 18.4241 26.7579 19.2078 24.0818C18.3262 23.6854 17.5424 23.2889 16.7587 22.8925C15.7791 25.965 15.2892 29.3348 15.2892 32.7047C15.2892 34.1914 15.3872 35.579 15.5831 37.0657L16.2689 40.1382C17.0526 40.3364 17.9343 40.4355 19.0119 40.6337C18.5221 38.8497 18.2282 36.9665 18.0323 35.0834H28.6124C28.7104 37.4621 29.0043 39.6426 29.2982 41.8231C30.1799 41.9222 31.0615 42.0213 32.0412 42.0213C31.6493 39.7417 31.3554 37.4621 31.2575 35.0834H46.344V43.0124C47.3237 43.0124 48.2053 43.1116 48.9891 43.1116V35.1825H63.9776C63.8797 38.3541 63.3899 41.4266 62.8021 44.2018C63.6837 44.3009 64.5654 44.4 65.4471 44.4991C66.1329 41.5258 66.5247 38.4532 66.7206 35.1825H77.3988C77.1049 38.8497 76.1252 42.3187 74.6558 45.4903C75.7334 45.5894 76.6151 45.6885 77.3988 45.7876Z" fill="#333333"/>
<path d="M5.87433 41.9233C4.50282 44.2029 5.18858 46.6807 7.3438 48.1674C9.49902 49.6541 12.34 50.2488 14.8871 50.6452C18.8057 51.339 22.8222 51.6364 26.8388 51.8346C35.9495 52.3302 45.0602 52.231 54.0729 52.0328C57.5996 51.9337 61.2243 51.8346 64.751 51.7355C69.6493 51.5373 78.4661 51.1408 77.5844 51.4381C73.9597 52.8257 70.2371 53.916 66.6124 55.2044C63.9673 56.1956 65.0449 60.5566 67.7879 59.5654C71.0208 58.3761 74.3516 57.3849 77.6824 56.1956C79.9355 55.4027 84.246 54.2133 84.9317 51.5373C86.0093 47.0772 78.662 47.1763 76.2129 47.0772C71.7065 46.8789 67.2002 47.0772 62.7917 47.2754C54.2688 47.5727 45.8439 47.771 37.321 47.6718C29.3858 47.5727 20.9609 47.6718 13.4176 45.6896C12.7319 45.4913 11.9481 45.2931 11.2624 44.9958C11.1644 44.9958 10.9685 44.8967 10.8705 44.7976C10.5766 44.5993 10.2827 44.5002 9.98884 44.302C9.49902 44.0047 9.98884 44.302 9.79291 44.2029C9.69495 44.1038 9.59698 44.0046 9.49902 44.0046C9.30309 43.7073 9.30309 44.1038 9.59698 44.1038L9.49902 43.9055C9.49902 43.9055 9.79291 44.4011 9.59698 44.0046C9.59698 43.9055 9.49902 43.1126 9.59698 44.302V44.0046C9.89088 44.4011 9.40105 44.5002 9.59698 44.2029C9.69495 44.1038 9.79291 43.6082 9.49902 44.302C9.59698 44.1038 10.0868 43.5091 9.69495 44.0046C10.0868 43.5091 10.5766 43.1126 11.0665 42.7162C10.7726 42.9144 11.6542 42.3197 11.7522 42.2206C12.1441 41.9233 12.5359 41.725 12.9278 41.4277C14.0054 40.7339 15.181 40.1392 16.2586 39.6437C18.8057 38.3552 16.5525 34.4898 14.0054 35.7782C11.2624 37.3641 7.63769 39.049 5.87433 41.9233Z" fill="white"/>
<path d="M70.341 13.4794C68.5776 14.6688 66.4224 15.759 64.0712 16.651C62.3079 11.4971 59.8588 7.13616 56.8219 4.26187C62.2099 5.9468 66.8142 9.21754 70.341 13.4794ZM22.7302 11.7945C23.5139 12.0918 24.3956 12.3892 25.4732 12.7856C28.902 8.9202 33.2124 5.9468 38.2086 4.26187C35.5635 6.83882 33.4083 10.4069 31.7429 14.6688C32.6246 14.867 33.4083 15.0652 34.29 15.2634C37.033 8.2264 41.4414 3.46897 46.3397 2.77517V17.2457C47.2213 17.3448 48.103 17.4439 48.9847 17.4439V2.77517C54.3727 3.56808 59.075 9.31665 61.7201 17.3448C61.6221 17.3448 61.5242 17.3448 61.5242 17.4439C64.2672 17.3448 66.7163 17.3448 68.9695 17.3448C70.0471 16.7501 71.1247 16.1555 72.1043 15.5608C72.4962 16.1555 72.8881 16.7501 73.2799 17.3448C74.2596 17.3448 75.3372 17.3448 76.3168 17.3448C75.6311 16.1555 74.9453 14.9661 74.2596 13.8759C73.7697 13.1821 73.2799 12.4883 72.6921 11.7945C66.7163 4.55921 57.8015 0 47.8091 0H47.5152H47.4173C37.5228 0 28.6081 4.65833 22.7302 11.7945Z" fill="#333333"/>
<path d="M101.332 33.715V8.91211H109.723C112.629 8.91211 114.834 9.4913 116.336 10.6497C117.839 11.7967 118.59 13.4831 118.59 15.709C118.59 16.9242 118.289 17.9974 117.685 18.9286C117.082 19.8485 116.243 20.5242 115.168 20.9558C116.397 21.2738 117.362 21.9154 118.064 22.8807C118.777 23.8461 119.133 25.0271 119.133 26.424C119.133 28.8089 118.398 30.6146 116.929 31.8411C115.459 33.0676 113.364 33.6922 110.644 33.715H101.332ZM106.268 22.9148V29.6095H110.496C111.658 29.6095 112.563 29.3256 113.21 28.7578C113.868 28.1786 114.198 27.3836 114.198 26.3729C114.198 24.1016 113.062 22.9489 110.792 22.9148H106.268ZM106.268 19.3034H109.92C112.41 19.258 113.655 18.2302 113.655 16.2201C113.655 15.0958 113.337 14.2895 112.7 13.8011C112.075 13.3014 111.083 13.0516 109.723 13.0516H106.268V19.3034Z" fill="white"/>
<path d="M138.761 33.715H122.341V30.342L130.09 21.7905C131.154 20.5867 131.938 19.5362 132.443 18.639C132.958 17.7419 133.216 16.8901 133.216 16.0838C133.216 14.9822 132.947 14.1191 132.41 13.4945C131.873 12.8585 131.105 12.5405 130.107 12.5405C129.032 12.5405 128.182 12.9267 127.557 13.6989C126.942 14.4598 126.635 15.4649 126.635 16.7141H121.864C121.864 15.2037 122.21 13.8238 122.901 12.5746C123.603 11.3254 124.59 10.3487 125.862 9.64461C127.134 8.92914 128.577 8.57141 130.189 8.57141C132.657 8.57141 134.571 9.18467 135.931 10.4112C137.302 11.6377 137.987 13.3696 137.987 15.6068C137.987 16.8333 137.68 18.0826 137.066 19.3545C136.452 20.6265 135.399 22.1085 133.907 23.8006L128.462 29.7458H138.761V33.715Z" fill="white"/>
<path d="M142.199 33.715V8.91211H150.59C153.496 8.91211 155.701 9.4913 157.203 10.6497C158.706 11.7967 159.457 13.4831 159.457 15.709C159.457 16.9242 159.156 17.9974 158.552 18.9286C157.949 19.8485 157.11 20.5242 156.035 20.9558C157.264 21.2738 158.229 21.9154 158.931 22.8807C159.644 23.8461 160 25.0271 160 26.424C160 28.8089 159.265 30.6146 157.796 31.8411C156.326 33.0676 154.231 33.6922 151.511 33.715H142.199ZM147.135 22.9148V29.6095H151.363C152.525 29.6095 153.43 29.3256 154.077 28.7578C154.736 28.1786 155.065 27.3836 155.065 26.3729C155.065 24.1016 153.929 22.9489 151.659 22.9148H147.135ZM147.135 19.3034H150.787C153.277 19.258 154.522 18.2302 154.522 16.2201C154.522 15.0958 154.204 14.2895 153.567 13.8011C152.942 13.3014 151.95 13.0516 150.59 13.0516H147.135V19.3034Z" fill="white"/>
<path d="M114.388 51.8026C114.263 53.558 113.625 54.9399 112.474 55.9483C111.33 56.9568 109.819 57.461 107.942 57.461C105.889 57.461 104.272 56.7588 103.092 55.3545C101.919 53.9427 101.332 52.008 101.332 49.5504V48.5532C101.332 46.9845 101.603 45.6026 102.146 44.4074C102.688 43.2122 103.462 42.2972 104.467 41.6622C105.478 41.0198 106.652 40.6986 107.986 40.6986C109.834 40.6986 111.323 41.2028 112.452 42.2113C113.581 43.2197 114.234 44.6352 114.41 46.4579H111.11C111.029 45.4046 110.74 44.6427 110.241 44.1721C109.75 43.694 108.998 43.455 107.986 43.455C106.886 43.455 106.061 43.8584 105.511 44.6651C104.969 45.4644 104.69 46.7081 104.676 48.3963V49.6288C104.676 51.3917 104.936 52.6803 105.457 53.4945C105.984 54.3087 106.813 54.7158 107.942 54.7158C108.961 54.7158 109.72 54.4805 110.219 54.0099C110.725 53.5318 111.015 52.796 111.088 51.8026H114.388Z" fill="white"/>
<path d="M125.596 53.8754H119.81L118.71 57.2369H115.202L121.163 40.9227H124.221L130.215 57.2369H126.706L125.596 53.8754ZM120.701 51.1527H124.705L122.692 45.0461L120.701 51.1527Z" fill="white"/>
<path d="M140.015 52.9566C140.015 52.3217 139.795 51.8362 139.355 51.5C138.915 51.1564 138.123 50.7979 136.979 50.4244C135.836 50.0434 134.93 49.6699 134.263 49.3039C132.444 48.3029 131.535 46.9546 131.535 45.259C131.535 44.3775 131.777 43.5932 132.261 42.906C132.752 42.2113 133.452 41.6697 134.362 41.2813C135.278 40.8928 136.305 40.6986 137.441 40.6986C138.585 40.6986 139.605 40.9115 140.499 41.3373C141.394 41.7556 142.087 42.3494 142.578 43.1188C143.076 43.8882 143.326 44.7622 143.326 45.7408H140.026C140.026 44.9938 139.795 44.4149 139.333 44.004C138.871 43.5857 138.222 43.3766 137.386 43.3766C136.58 43.3766 135.953 43.5521 135.506 43.9032C135.058 44.2468 134.835 44.7025 134.835 45.2702C134.835 45.8005 135.095 46.245 135.616 46.6035C136.144 46.9621 136.917 47.2982 137.936 47.612C139.813 48.1871 141.181 48.9005 142.039 49.7521C142.897 50.6036 143.326 51.6644 143.326 52.9342C143.326 54.346 142.802 55.4553 141.753 56.2621C140.704 57.0613 139.293 57.461 137.518 57.461C136.286 57.461 135.165 57.2331 134.153 56.7775C133.141 56.3143 132.367 55.6831 131.832 54.8839C131.304 54.0846 131.04 53.1583 131.04 52.1051H134.351C134.351 53.9053 135.407 54.8054 137.518 54.8054C138.303 54.8054 138.915 54.6448 139.355 54.3236C139.795 53.995 140.015 53.5393 140.015 52.9566Z" fill="white"/>
<path d="M158.603 57.2369H155.304V50.2451H148.869V57.2369H145.57V40.9227H148.869V47.5335H155.304V40.9227H158.603V57.2369Z" fill="white"/>
</svg>
