<svg width="24" height="24" viewBox="0 0 24 24" fill="none" xmlns="http://www.w3.org/2000/svg">
<path d="M12 24C5.38345 24 0 18.6166 0 12C0 5.38345 5.38345 0 12 0C18.6166 0 24 5.38345 24 12C24 18.6166 18.6166 24 12 24ZM12 2.48276C6.75228 2.48276 2.48276 6.75228 2.48276 12C2.48276 17.2477 6.75228 21.5172 12 21.5172C17.2477 21.5172 21.5172 17.2477 21.5172 12C21.5172 6.75228 17.2477 2.48276 12 2.48276Z" fill="#08B80F"/>
<path d="M9.51728 16.5517C9.19949 16.5517 8.88169 16.4309 8.63921 16.1884L6.15645 13.7056C5.67148 13.2223 5.67148 12.4353 6.15645 11.9503C6.64141 11.4654 7.4268 11.4654 7.91176 11.9503L9.51728 13.555L16.0875 6.98482C16.5725 6.49985 17.3578 6.49985 17.8428 6.98482C18.3278 7.46896 18.3278 8.25682 17.8428 8.74013L10.3945 16.1884C10.1529 16.4309 9.83507 16.5517 9.51728 16.5517Z" fill="#08B80F"/>
</svg>
