<svg width="14" height="14" viewBox="0 0 14 14" fill="none" xmlns="http://www.w3.org/2000/svg">
<path d="M10.5552 0C10.2681 0 9.98837 0.110687 9.76767 0.324187L8.20703 1.8865L12.108 5.79906L13.6686 4.25163C14.1105 3.80231 14.1105 3.10231 13.6686 2.67488L11.3353 0.324187C11.1146 0.110687 10.8349 0 10.5552 0ZM7.68434 2.40931L1.72234 8.38513L3.60683 8.59163L3.73925 10.2791L5.41745 10.4042L5.63072 12.2907L11.5927 6.31488L7.68434 2.40931ZM1.28793 9.07069L0 14L4.93147 12.6809L4.75491 11.0893L3.05442 10.9642L2.922 9.25488L1.28793 9.07069Z" fill="white"/>
</svg>
