<svg width="48" height="48" viewBox="0 0 48 48" fill="none" xmlns="http://www.w3.org/2000/svg">
<path d="M44.7932 9.69385C46.4828 7.69391 47.6342 5.18874 47.9925 2.43321L48 2.36274C48 2.34925 48 2.33276 48 2.31477C48 1.77806 47.8606 1.27432 47.6147 0.838055L47.6222 0.853047C47.5607 0.754099 47.4903 0.668645 47.4108 0.593685L47.1515 0.380798C46.7527 0.140925 46.2729 0 45.7602 0C45.7107 0 45.6612 0.0014992 45.6133 0.00449761H45.6208C42.8038 0.334322 40.3001 1.47372 38.2927 3.17981L38.3122 3.16332C35.6795 5.35216 33.3213 7.66693 31.1624 10.1601L31.098 10.2366L29.4953 11.8872L23.7909 10.1901C24.0097 9.96221 24.1447 9.65187 24.1447 9.31005C24.1447 9.30406 24.1447 9.29956 24.1447 9.29356V9.29506C24.1447 9.29356 24.1447 9.29206 24.1447 9.29056C24.1447 8.93375 24.0008 8.60993 23.7669 8.37605L22.7534 7.3386C22.5135 7.11222 22.1912 6.9698 21.8359 6.9608H21.8344H21.8329C21.4821 6.9608 21.1658 7.10473 20.9379 7.3371L19.3817 8.89328L18.5571 8.6579C18.749 8.43602 18.866 8.14517 18.866 7.82584C18.866 7.79436 18.8645 7.76438 18.863 7.73439V7.73889C18.863 7.73739 18.863 7.73589 18.863 7.73439C18.863 7.37758 18.7191 7.05375 18.4852 6.81988L17.4477 5.78243C17.2139 5.54855 16.89 5.40463 16.5332 5.40463C16.5227 5.40463 16.5137 5.40463 16.5032 5.40463H16.5047C16.5032 5.40463 16.5017 5.40463 16.5002 5.40463C16.1434 5.40463 15.8196 5.54855 15.5857 5.78243L14.172 7.19618L8.41953 5.4511H7.99525C7.57697 5.4571 7.19768 5.61602 6.90983 5.87688L6.91133 5.87538L4.88441 7.92629C4.65952 8.14217 4.5171 8.44052 4.50661 8.77334V8.77484C4.5096 9.2246 4.76447 9.61289 5.13627 9.80929L5.14227 9.81229L17.3533 16.5077C17.4702 16.5752 17.5692 16.6457 17.6636 16.7236L17.6591 16.7206L21.2182 20.3037C17.965 23.7459 15.0415 27.0696 12.7792 29.9691L12.1196 30.6527L2.68957 29.8042H2.50067C2.04192 29.8192 1.62963 30.0051 1.3208 30.3004L0.353812 31.2434C0.136428 31.4608 0.0014992 31.7606 0 32.092C0.00299841 32.5597 0.278852 32.963 0.676141 33.1504L0.683637 33.1534L7.33111 36.3122L7.59047 36.5011L8.15567 37.0438C7.99225 37.4261 7.88881 37.8684 7.87232 38.3346V38.3406C7.87232 38.3556 7.87232 38.3736 7.87232 38.3916C7.87232 38.8474 8.05222 39.2626 8.34457 39.567C8.64891 39.8458 9.05669 40.0167 9.50345 40.0167C9.52744 40.0167 9.54993 40.0167 9.57391 40.0152H9.57092C10.0327 39.9958 10.4674 39.9028 10.8722 39.7469L10.8437 39.7559L11.4089 40.3211L11.5739 40.5565L14.7327 47.2039C14.9171 47.6102 15.3204 47.8876 15.7866 47.8876C15.7881 47.8876 15.7911 47.8876 15.7926 47.8876C16.1239 47.8861 16.4238 47.7511 16.6412 47.5338L17.6081 46.5668C17.8945 46.2579 18.0729 45.8442 18.0804 45.3899V45.2715L17.2079 35.8415L18.0324 35.3707C20.9319 33.014 24.2556 30.2075 27.6738 26.9542L31.1624 30.4428L31.3978 30.7262L38.2102 42.9372C38.4096 43.315 38.7979 43.5699 39.2477 43.5744C39.2551 43.5744 39.2656 43.5744 39.2746 43.5744C39.5985 43.5744 39.8893 43.4379 40.0962 43.2205L42.1711 41.1456C42.429 40.8668 42.5894 40.495 42.5954 40.0857V40.0842C42.6074 40.0242 42.6134 39.9553 42.6134 39.8833C42.6134 39.8114 42.6074 39.7439 42.5939 39.6764L42.5954 39.6839L40.8503 33.861L42.2655 32.4458C42.4979 32.2254 42.6433 31.915 42.6433 31.5717C42.6433 31.5642 42.6433 31.5567 42.6433 31.5492V31.5507C42.6433 31.5447 42.6433 31.5372 42.6433 31.5313C42.6433 31.1834 42.5084 30.8671 42.2895 30.6317V30.6332L41.2521 29.5958C41.0107 29.3769 40.6884 29.242 40.3346 29.242H40.3331C40.0392 29.242 39.7694 29.3394 39.552 29.5043L39.555 29.5013L39.3196 28.6768L40.8518 27.1446C41.0842 26.9107 41.2296 26.5869 41.2296 26.2301C41.2296 26.2286 41.2296 26.2271 41.2296 26.2241C41.2251 25.8748 41.0812 25.5584 40.8518 25.3275L39.8144 24.2901C39.5835 24.0607 39.2686 23.9183 38.9193 23.9123H38.9178C38.9163 23.9123 38.9148 23.9123 38.9133 23.9123C38.5565 23.9123 38.2327 24.0562 37.9988 24.2901L36.2777 18.5616L37.9748 16.959C40.471 14.7612 42.7378 12.4494 44.8262 9.9832L44.9056 9.88725L44.7932 9.69385Z" fill="#705F66"/>
</svg>
