<svg width="64" height="64" viewBox="0 0 64 64" fill="none" xmlns="http://www.w3.org/2000/svg">
<path d="M45.4539 39.5833C45.4559 39.5533 45.4559 39.5173 45.4559 39.4793C45.4559 38.9493 45.2573 38.4673 44.9304 38.0993L44.9324 38.1013C44.4511 37.6433 43.8674 37.2873 43.2196 37.0713L43.1875 37.0613C41.7755 36.6033 40.5521 35.9213 39.4971 35.0473L39.5152 35.0613C38.7711 34.3393 38.3078 33.3293 38.3078 32.2113C38.3078 32.1173 38.3118 32.0233 38.3178 31.9313V31.9433C38.3158 31.9013 38.3158 31.8513 38.3158 31.8013C38.3158 30.6713 38.7751 29.6473 39.5172 28.9033C40.3596 28.1093 41.4727 27.5913 42.7042 27.5013L42.7222 27.4993V25.1093H44.4932V27.5253C45.7367 27.6533 46.8157 28.2593 47.5598 29.1533L47.5658 29.1613C48.2538 30.0113 48.6709 31.1053 48.6709 32.2953C48.6709 32.4073 48.6669 32.5193 48.6589 32.6293V32.6133H45.4559C45.4599 32.5533 45.4619 32.4833 45.4619 32.4113C45.4619 31.7353 45.2654 31.1053 44.9264 30.5733L44.9344 30.5873C44.6075 30.1593 44.0961 29.8853 43.5205 29.8853C43.4964 29.8853 43.4703 29.8853 43.4462 29.8873H43.4503C43.4081 29.8833 43.358 29.8813 43.3059 29.8813C42.8064 29.8813 42.3572 30.0933 42.0443 30.4313L42.0423 30.4333C41.7495 30.8013 41.571 31.2733 41.571 31.7853C41.571 31.8213 41.571 31.8573 41.573 31.8913V31.8873C41.571 31.9153 41.571 31.9493 41.571 31.9813C41.571 32.4833 41.7595 32.9433 42.0704 33.2913L42.0684 33.2893C42.5638 33.7553 43.1655 34.1113 43.8333 34.3193L43.8654 34.3273C45.2674 34.8293 46.4768 35.5353 47.5297 36.4193L47.5117 36.4053C48.2397 37.1253 48.691 38.1233 48.691 39.2273C48.691 39.3133 48.689 39.3973 48.683 39.4813V39.4693C48.687 39.5293 48.689 39.6013 48.689 39.6713C48.689 40.7873 48.2397 41.7993 47.5117 42.5353C46.6553 43.3153 45.5341 43.8233 44.2986 43.9113H44.2806V46.0933H42.5096V43.9113C41.1859 43.8373 39.9945 43.3293 39.0639 42.5293L39.0719 42.5353C38.2597 41.6813 37.7603 40.5233 37.7603 39.2493C37.7603 39.1433 37.7643 39.0393 37.7703 38.9353V38.9493H40.9211C40.9131 39.0333 40.9071 39.1293 40.9071 39.2273C40.9071 39.9373 41.1678 40.5853 41.6011 41.0813L41.597 41.0773C42.0283 41.4813 42.6119 41.7293 43.2517 41.7293C43.2838 41.7293 43.3159 41.7293 43.348 41.7273H43.344C43.3861 41.7293 43.4342 41.7313 43.4844 41.7313C44.0339 41.7313 44.5333 41.5213 44.9084 41.1793L44.9064 41.1813C45.2533 40.8253 45.4679 40.3393 45.4679 39.8053C45.4679 39.7233 45.4619 39.6413 45.4539 39.5613V39.5713V39.5833Z" fill="#705F66"/>
<path d="M11.5144 24.078H52.4876V64H64V14.91L31.1015 0L0 14.91V64H11.5124L11.5144 24.078Z" fill="#705F66"/>
<path d="M23.8101 56.2081H31.0765V62.4681H23.8101V56.2081V56.2081Z" fill="#705F66"/>
<path d="M32.7446 56.2081H40.0111V62.4681H32.7446V56.2081Z" fill="#705F66"/>
<path d="M14.9009 56.2081H22.1673V62.4681H14.9009V56.2081V56.2081Z" fill="#705F66"/>
<path d="M23.8101 47.6355H31.0765V53.8955H23.8101V47.6355V47.6355Z" fill="#705F66"/>
<path d="M14.9009 47.6355H22.1673V53.8955H14.9009V47.6355V47.6355Z" fill="#705F66"/>
<path d="M32.7446 47.6355H40.0111V53.8955H32.7446V47.6355Z" fill="#705F66"/>
<path d="M23.8101 39.0652H31.0765V45.3252H23.8101V39.0652V39.0652Z" fill="#705F66"/>
<path d="M14.9009 39.0652H22.1673V45.3252H14.9009V39.0652V39.0652Z" fill="#705F66"/>
<path d="M41.6509 56.2081H48.9173V62.4681H41.6509V56.2081Z" fill="#705F66"/>
</svg>
