<svg width="36" height="48" viewBox="0 0 36 48" fill="none" xmlns="http://www.w3.org/2000/svg">
<path d="M30.0343 45.6391L19.7693 45.2416C18.5853 45.2416 17.4088 45.2416 16.2396 45.2416L5.97459 45.6391C5.09846 45.6391 4.40584 46.0606 4.40584 46.527V47.1345C4.40584 47.625 5.16654 48 6.11223 48H29.8952C30.8409 48 31.6252 47.6265 31.6252 47.1345V46.527C31.6252 46.0591 30.9326 45.6856 30.0343 45.6391V45.6391ZM35.5013 44.1886L32.8714 41.6402H34.4401V12.7436C34.4401 12.7421 34.4401 12.7406 34.4401 12.7391C34.4401 11.4251 33.7756 10.2687 32.7707 9.5952L32.7574 9.5862C32.7633 9.5262 32.7663 9.4572 32.7663 9.38671C32.7663 9.31621 32.7633 9.24721 32.7559 9.17971V9.18871V5.84532C32.7559 2.63392 30.2 0.0269992 27.0374 0H8.99519C5.81032 0 3.22779 2.61742 3.22779 5.84532V9.18871C3.21595 9.24871 3.21003 9.31771 3.21003 9.38821C3.21003 9.4587 3.21595 9.5277 3.22927 9.5937L3.22779 9.5862C2.22142 10.2597 1.56728 11.4011 1.56728 12.6986C1.56728 12.7136 1.56728 12.7301 1.56728 12.7451V12.7421V41.6387H3.15823L0.506146 44.1871C0.193875 44.4781 0 44.8936 0 45.3556C0 46.2331 0.701501 46.944 1.56728 46.944C1.97723 46.944 2.35017 46.785 2.62989 46.524L2.62841 46.5255L7.56555 41.7332V42.0842C7.56555 42.5747 8.16493 42.9722 8.87975 42.9722H27.1262C27.8647 42.9722 28.4404 42.5747 28.4404 42.0842V41.7107L33.3775 46.503C33.6572 46.761 34.0287 46.9215 34.4386 46.9245C34.4431 46.9245 34.4475 46.9245 34.452 46.9245C34.8856 46.9245 35.2748 46.7355 35.5442 46.434L35.5457 46.4325C35.8268 46.1521 36 45.7636 36 45.3331C36 44.8801 35.8076 44.4721 35.4998 44.1901L35.4983 44.1886H35.5013ZM20.046 2.68942H28.5588V9.09572C26.071 7.85975 23.1569 7.10228 20.0756 7.01528H20.046V2.68942ZM22.9749 19.9674C22.9749 22.7438 20.7549 24.9937 18.0155 24.9937C15.2761 24.9937 13.0562 22.7438 13.0562 19.9674C13.0562 17.191 15.2761 14.941 18.0155 14.941C20.7549 14.941 22.9749 17.191 22.9749 19.9674V19.9674ZM7.47379 2.68942H15.9628V7.01528C12.9304 7.03028 10.0119 7.49977 7.26068 8.35774L7.47379 8.30074V2.68942ZM27.2194 40.5182L19.3534 40.1447C18.9509 40.1222 18.4788 40.1102 18.0037 40.1102C17.5286 40.1102 17.058 40.1237 16.5889 40.1477L16.654 40.1447L8.788 40.5182L9.94088 39.3963C10.0208 39.3198 10.083 39.2268 10.1244 39.1203L10.1259 39.1158C12.4405 38.2413 15.1148 37.7358 17.906 37.7358C17.9682 37.7358 18.0318 37.7358 18.094 37.7358H18.0836C18.1413 37.7358 18.2109 37.7343 18.279 37.7343C21.0569 37.7343 23.7163 38.2398 26.176 39.1668L26.0192 39.1143C26.0784 39.2208 26.1464 39.3138 26.2264 39.3948L27.3792 40.5167L27.2194 40.5182Z" fill="#705F66"/>
</svg>
