<svg width="58" height="31" viewBox="0 0 58 31" fill="none" xmlns="http://www.w3.org/2000/svg">
<path d="M33.2693 18.2546L37.7281 15.9724C37.6782 15.9628 37.6196 15.958 37.5601 15.958C37.5006 15.958 37.443 15.9628 37.3864 15.9734L37.3922 15.9724H29.3537C29.1819 15.9801 29.0235 16.0339 28.8892 16.1212L28.893 16.1193L33.2693 18.2546ZM34.7136 18.9878L38.3979 20.8506V17.1241L34.7136 18.9869V18.9878ZM33.2693 19.7201L28.8105 21.9812C28.9429 22.0733 29.107 22.128 29.2846 22.128C29.2941 22.128 29.3047 22.128 29.3143 22.127H29.3124H37.4766C37.5361 22.1414 37.6052 22.1501 37.6753 22.1501C37.7453 22.1501 37.8144 22.1414 37.8797 22.1251L37.8739 22.1261L33.2693 19.7201ZM28.3911 17.2498V20.7249L31.8239 18.9869L28.3911 17.2488V17.2498ZM44.0084 18.2546L48.5507 15.9724C48.5008 15.9628 48.4423 15.958 48.3828 15.958C48.3233 15.958 48.2657 15.9628 48.2091 15.9734L48.2148 15.9724H40.0506C39.8788 15.9801 39.7204 16.0339 39.5861 16.1212L39.5899 16.1193L44.0084 18.2546ZM45.3482 18.9878L49.0325 20.8506V17.1241L45.3482 18.9869V18.9878ZM44.0084 19.7201L39.4239 21.9812C39.563 22.0733 39.7339 22.128 39.9172 22.128C39.9277 22.128 39.9383 22.128 39.9488 22.127H39.9469H48.1947C48.2513 22.1414 48.3165 22.1501 48.3828 22.1501C48.449 22.1501 48.5142 22.1414 48.5766 22.1261L48.5709 22.127L44.0084 19.7201ZM39.0045 17.2498V20.7249L42.4585 18.9869L39.0045 17.2488V17.2498ZM22.1741 18.2546L26.7164 15.9724C26.6665 15.9619 26.6079 15.9561 26.5494 15.9561C26.4908 15.9561 26.4323 15.9619 26.3766 15.9734L26.3824 15.9724H18.2393C18.0665 15.9763 17.9082 16.031 17.7757 16.1212L17.7786 16.1193L22.1741 18.2546ZM23.6395 18.9878L27.3239 20.8506V17.1241L23.6395 18.9869V18.9878ZM22.1741 19.7201L17.7153 21.9812C17.8544 22.0733 18.0252 22.128 18.2086 22.128C18.2191 22.128 18.2297 22.128 18.2402 22.127H18.2383H26.3814C26.4409 22.1414 26.51 22.1501 26.5801 22.1501C26.6502 22.1501 26.7193 22.1414 26.7845 22.1251L26.7788 22.1261L22.1741 19.7201ZM17.2959 17.2498V20.7249L20.7288 18.9869L17.2959 17.2488V17.2498ZM37.9373 11.1163L42.4796 8.83412C42.4297 8.82452 42.3711 8.81876 42.3116 8.81876C42.2521 8.81876 42.1946 8.82452 42.1379 8.83508L42.1437 8.83412H33.9794C33.9785 8.83412 33.9785 8.83412 33.9775 8.83412C33.8086 8.83412 33.6503 8.88115 33.5149 8.96176L33.5188 8.95984L37.9373 11.1163ZM39.3816 11.8486L43.066 13.7114V9.98481L39.3816 11.8476V11.8486ZM37.9373 12.5607L33.5409 14.8429C33.68 14.9465 33.8537 15.0089 34.0428 15.0108H42.208C42.2675 15.0252 42.3366 15.0338 42.4067 15.0338C42.4767 15.0338 42.5458 15.0252 42.6111 15.0089L42.6053 15.0098L37.9373 12.5607ZM33.0591 10.1115V13.5866L36.492 11.8495L33.0591 10.1125V10.1115ZM32.5149 4.33308L37.0371 2.09312C36.9872 2.08161 36.9286 2.07489 36.8691 2.07489C36.8096 2.07489 36.752 2.08161 36.6964 2.09408L36.7012 2.09312H28.5581C28.489 2.07393 28.4093 2.06337 28.3277 2.06337C28.2461 2.06337 28.1665 2.07393 28.0907 2.09504L28.0974 2.09312L32.5149 4.33308ZM33.9593 5.0663L37.6436 6.9291V3.20255L33.9593 5.06534V5.0663ZM32.5149 5.79856L28.035 8.05963C28.1809 8.16328 28.3623 8.22566 28.5581 8.22758H36.7021C36.7031 8.22758 36.7041 8.22758 36.705 8.22758C36.8499 8.22758 36.9862 8.18919 37.1033 8.12106L37.0995 8.12297L32.5149 5.79856ZM27.6377 3.32827V6.80338L31.0504 5.06534L27.6377 3.32731V3.32827ZM27.2605 11.1163L31.7827 8.83412C31.7328 8.82356 31.6742 8.8178 31.6147 8.8178C31.5552 8.8178 31.4976 8.82356 31.442 8.83508L31.4477 8.83412H23.3248C23.319 8.83412 23.3123 8.83412 23.3056 8.83412C23.1424 8.83412 22.9898 8.88115 22.8603 8.96176L22.8641 8.95984L27.2605 11.1163ZM28.726 11.8486L32.4103 13.7114V9.98481L28.726 11.8476V11.8486ZM27.2605 12.5607L22.8017 14.8429C22.9476 14.9465 23.129 15.0089 23.3248 15.0108H31.4477C31.5072 15.0271 31.5763 15.0358 31.6464 15.0358C31.7165 15.0358 31.7856 15.0262 31.8508 15.0089L31.8451 15.0098L27.2605 12.5607ZM22.3833 10.1115V13.5866L25.8162 11.8495L22.3833 10.1125V10.1115ZM57.0921 15.7843H53.617C53.6151 15.7843 53.6132 15.7843 53.6112 15.7843C53.4606 15.7843 53.3291 15.8678 53.2619 15.9916L53.261 15.9935L49.807 22.2739C49.6467 22.556 49.3521 22.7451 49.0123 22.7557H49.0114H17.2335C16.8362 22.7489 16.4974 22.5023 16.3563 22.1549L16.3544 22.1482L14.2613 15.9724C14.2296 15.8822 14.1499 15.816 14.053 15.8054H14.0521H12.3774V4.04037C12.3658 3.27453 11.742 2.65839 10.9752 2.65839H5.95115C3.83692 2.70542 2.14111 4.43002 2.14111 6.55097V6.55193V15.7843H0.968346C0.960669 15.7843 0.951071 15.7843 0.942434 15.7843C0.422272 15.7843 0 16.2056 0 16.7268C0 16.8314 0.0172748 16.9321 0.0489451 17.0272L0.0470257 17.0204L4.63155 30.1041C4.77071 30.4621 5.11141 30.7107 5.51065 30.7116H49.8492C50.1985 30.7097 50.5018 30.5178 50.663 30.2347L50.6659 30.2299L57.8887 17.1462C57.9587 17.0195 58 16.8678 58 16.7066C58 16.2028 57.595 15.793 57.0931 15.7853H57.0921V15.7843ZM6.3264 5.96651H10.7641V8.98095H6.3264V5.96651ZM9.94834 0H10.409V3.22366H9.94834V0Z" fill="#705F66"/>
</svg>
