<svg width="50" height="15" viewBox="0 0 50 15" fill="none" xmlns="http://www.w3.org/2000/svg">
<path d="M18.3333 14.684L20.8729 0.473511H24.8412L22.3809 14.684H18.3333Z" fill="#3C58BF"/>
<path d="M36.7461 0.631578C35.9525 0.315789 34.6826 0 33.0953 0C29.1271 0 26.2699 1.97368 26.2699 4.81579C26.2699 6.94737 28.2541 8.05263 29.8414 8.76316C31.4287 9.47368 31.9049 9.94737 31.9049 10.5789C31.9049 11.5263 30.635 12 29.5239 12C27.9366 12 27.0636 11.7632 25.7144 11.2105L25.1588 10.9737L24.6033 14.2105C25.5557 14.6053 27.3017 15 29.1271 15C33.3334 15 36.1112 13.0263 36.1112 10.0263C36.1112 8.36842 35.0795 7.10526 32.6985 6.07895C31.2699 5.36842 30.3969 4.97368 30.3969 4.26316C30.3969 3.63158 31.1112 3 32.6985 3C34.0477 3 35.0001 3.23684 35.7144 3.55263L36.1112 3.71053L36.7461 0.631578Z" fill="#3C58BF"/>
<path d="M43.5715 0.473511C42.6192 0.473511 41.9049 0.552459 41.508 1.49983L35.5557 14.684H39.8414L40.635 12.3156H45.7144L46.1906 14.684H50.0001L46.6668 0.473511H43.5715V0.473511ZM41.7461 9.94719C41.9842 9.23667 43.3334 5.76298 43.3334 5.76298C43.3334 5.76298 43.6509 4.89456 43.889 4.34193L44.1271 5.68404C44.1271 5.68404 44.9207 9.23667 45.0795 10.0261H41.7461V9.94719Z" fill="#3C58BF"/>
<path d="M11.0317 10.4209L10.6349 8.36828C9.92061 5.99986 7.61903 3.3946 5.07935 2.13144L8.65077 14.763H12.9365L19.3651 0.55249H15.0793L11.0317 10.4209Z" fill="#3C58BF"/>
<path d="M0 0.473511L0.714286 0.631406C5.79365 1.81562 9.28571 4.81562 10.6349 8.36825L9.20635 1.65772C8.96825 0.710353 8.25397 0.473511 7.38095 0.473511H0V0.473511Z" fill="#FFBC00"/>
</svg>
